<svg width="72" height="61" fill="none" xmlns="http://www.w3.org/2000/svg"><path d="M18 29.462v16.129h19.18l-4-3.364H22v-9.401l-4-3.364z" fill="#000"/><path d="M69.74 54.488L64 49.594V54H8v-6.98h4v-2.69H8V33.146h4v-2.691H8V19.69h4V17H8V7.598l31.88 26.656v-4.742L7.42 2.35a2.138 2.138 0 00-1.027-.464 2.354 2.354 0 00-1.16.096c-.367.128-.68.345-.9.623-.22.278-.335.605-.333.94v52.136c0 .446.21.874.586 1.19.375.315.884.492 1.414.492h62.32c.397.002.786-.096 1.117-.28a1.79 1.79 0 00.742-.757c.152-.309.192-.648.114-.976a1.622 1.622 0 00-.553-.863z" fill="#000"/><path d="M48 50.636h8c1.06 0 2.078-.354 2.828-.985.75-.63 1.172-1.486 1.172-2.378v-32.46L55.4 7.7a3.754 3.754 0 00-1.488-1.243 4.606 4.606 0 00-2.032-.44 4.576 4.576 0 00-2.06.497c-.62.32-1.125.777-1.46 1.32L44 14.847v32.426c0 .892.421 1.747 1.172 2.378.75.631 1.767.985 2.828.985zm0-34.981l3.88-6.34L56 15.67v24.874h-8v-24.89zm0 27.632h8v4.104h-8v-4.104z" fill="#000"/></svg>