<svg width="72" height="59" fill="none" xmlns="http://www.w3.org/2000/svg"><path d="M4.5 5.954c0-1.547.711-3.03 1.977-4.124C7.743.736 9.46.12 11.25.12h49.5c1.79 0 3.507.615 4.773 1.709C66.789 2.924 67.5 4.407 67.5 5.954v27.22c0 1.548-.711 3.031-1.977 4.125-1.266 1.094-2.983 1.709-4.773 1.709H36v-3.89h24.75c.597 0 1.169-.204 1.591-.569.422-.364.659-.859.659-1.374V5.955c0-.516-.237-1.01-.659-1.376a2.441 2.441 0 00-1.591-.569h-49.5a2.44 2.44 0 00-1.591.57C9.237 4.943 9 5.438 9 5.953v5.833H4.5V5.954zM36 46.785h33.75a2.44 2.44 0 001.591-.57c.422-.364.659-.859.659-1.374 0-.516-.237-1.01-.659-1.375a2.442 2.442 0 00-1.591-.57H36v3.889zm-22.5 0a2.44 2.44 0 00-1.591.57c-.422.364-.659.858-.659 1.374 0 .515.237 1.01.659 1.374.422.365.994.57 1.591.57H18a2.44 2.44 0 001.591-.57c.422-.364.659-.859.659-1.374 0-.516-.237-1.01-.659-1.375a2.442 2.442 0 00-1.591-.57h-4.5z" fill="#092533"/><path d="M0 21.509c0-1.547.711-3.03 1.977-4.125 1.266-1.094 2.983-1.708 4.773-1.708h18c1.79 0 3.507.614 4.773 1.708 1.266 1.094 1.977 2.578 1.977 4.125v31.11c0 1.546-.711 3.03-1.977 4.124-1.266 1.094-2.983 1.708-4.773 1.708h-18c-1.79 0-3.507-.614-4.773-1.708C.711 55.649 0 54.165 0 52.618v-31.11zm6.75-1.945a2.44 2.44 0 00-1.591.57c-.422.365-.659.86-.659 1.375v31.11c0 .515.237 1.01.659 1.374.422.365.994.57 1.591.57h18a2.44 2.44 0 001.591-.57c.422-.365.659-.86.659-1.375v-31.11c0-.515-.237-1.01-.659-1.374a2.442 2.442 0 00-1.591-.57h-18z" fill="#092533"/></svg>