<svg width="72" height="71" fill="none" xmlns="http://www.w3.org/2000/svg"><path d="M38.206 28.522a7.06 7.06 0 00-4.959 2.027 6.878 6.878 0 00-2.054 4.896v11.538c0 .612-.246 1.2-.685 1.632a2.353 2.353 0 01-1.653.676c-.62 0-1.214-.243-1.653-.676a2.293 2.293 0 01-.684-1.632V35.445c0-3.06 1.231-5.995 3.423-8.16a11.766 11.766 0 018.265-3.379h3.707L38.89 20.92a2.307 2.307 0 01-.714-1.64 2.283 2.283 0 01.684-1.652 2.34 2.34 0 011.674-.675 2.363 2.363 0 011.66.704l7.014 6.923c.438.433.684 1.02.684 1.632 0 .612-.246 1.198-.684 1.631l-7.013 6.923a2.338 2.338 0 01-1.661.705 2.362 2.362 0 01-1.674-.676 2.306 2.306 0 01-.684-1.652 2.282 2.282 0 01.714-1.64l3.024-2.981h-3.707z" fill="#000"/><path d="M27.6 3.414A11.7 11.7 0 0131.394.912a11.82 11.82 0 018.947 0 11.7 11.7 0 013.793 2.502L68.31 27.285a11.532 11.532 0 012.534 3.744 11.41 11.41 0 010 8.832 11.532 11.532 0 01-2.534 3.744L44.133 67.471a11.698 11.698 0 01-3.793 2.502 11.82 11.82 0 01-8.947 0 11.698 11.698 0 01-3.792-2.502L3.425 43.605A11.53 11.53 0 01.89 39.861a11.41 11.41 0 010-8.832 11.53 11.53 0 012.535-3.744L27.6 3.415zm13.227 3.263a7.02 7.02 0 00-2.276-1.501 7.093 7.093 0 00-5.37 0 7.02 7.02 0 00-2.275 1.501L6.73 30.553a6.878 6.878 0 00-2.053 4.894c0 1.836.738 3.597 2.053 4.895l24.176 23.87a7.02 7.02 0 002.276 1.503 7.092 7.092 0 005.37 0 7.02 7.02 0 002.275-1.502l24.176-23.871a6.879 6.879 0 002.053-4.895 6.878 6.878 0 00-2.053-4.894L40.827 6.682v-.005z" fill="#000"/></svg>