<svg width="877" height="664" fill="none" xmlns="http://www.w3.org/2000/svg"><mask id="a" style="mask-type:alpha" maskUnits="userSpaceOnUse" x="0" y="59" width="842" height="597"><path d="M841.89 59.74H0v595.28h841.89V59.74z" fill="#fff"/></mask><g mask="url(#a)"><path d="M773.014 554.575c78.019-78.019 78.019-204.512 0-282.531s-204.512-78.019-282.531 0-78.019 204.512 0 282.531 204.512 78.019 282.531 0z" stroke="#D4E8F2" stroke-width="2" stroke-miterlimit="10"/><path d="M794.438 424.684c96.924-96.924 96.924-254.069 0-350.994-96.924-96.924-254.07-96.924-350.994 0-96.924 96.925-96.924 254.07 0 350.994 96.924 96.924 254.07 96.924 350.994 0z" stroke="#D4E8F2" stroke-width="2" stroke-miterlimit="10"/><path d="M842.452 207.61a.68.68 0 11-1.361-.001.68.68 0 011.361.001zm-10.581-17.13c0 .34-.28.62-.62.62-.34 0-.62-.28-.62-.62 0-.34.28-.62.62-.62.34 0 .62.28.62.62zm5.699-19.8c0 .39-.32.71-.71.71-.39 0-.71-.32-.71-.71 0-.39.32-.71.71-.71.39 0 .71.32.71.71zm-15.71-12.33c0 .45-.36.81-.81.81-.45 0-.81-.36-.81-.81 0-.45.36-.81.81-.81.45 0 .81.36.81.81zm-21.878-4.07a.81.81 0 100-1.62.81.81 0 000 1.62zm11.469-24.34a.57.57 0 11-1.14 0 .57.57 0 011.14 0zm-13.769 2.81c0 .14-.11.25-.25.25s-.25-.11-.25-.25.11-.25.25-.25.25.11.25.25zm1.059-9.8a.591.591 0 11-1.182-.002.591.591 0 011.182.002zm-16.219-7.63a.85.85 0 10-.001-1.701.85.85 0 00.001 1.701zm-1.68-25.85a.33.33 0 100-.66.33.33 0 000 .66zm-25.03 7.71a.81.81 0 100-1.62.81.81 0 000 1.62zm8.848-20.77a.51.51 0 100-1.02.51.51 0 000 1.02zm-19.839-10.25c0 .11-.09.19-.19.19s-.19-.09-.19-.19.09-.19.19-.19.19.09.19.19zM724.282 86.8a.3.3 0 01-.3.3c-.16 0-.3-.14-.3-.3 0-.16.14-.3.3-.3.16 0 .3.14.3.3zm-12.931-13.1a.3.3 0 10-.001-.601.3.3 0 00.001.6zm-181.35-12.37a.56.56 0 11-1.12 0 .56.56 0 111.12 0zm-32.451 9.88c0 .18-.14.32-.32.32s-.32-.14-.32-.32.14-.32.32-.32.32.14.32.32zm.511 10.55c0 .31-.25.55-.55.55-.3 0-.55-.25-.55-.55 0-.3.25-.55.55-.55.3 0 .55.25.55.55zm-8.929 5.35c0 .38-.31.69-.69.69-.38 0-.69-.31-.69-.69 0-.38.31-.69.69-.69.38 0 .69.31.69.69zm-19.121-3.09c0 .33-.27.6-.6.6-.33 0-.6-.27-.6-.6 0-.33.27-.6.6-.6.33 0 .6.27.6.6zM457.1 91.85a.78.78 0 100-1.56.78.78 0 000 1.56zm-5.429 22.37c0 .12-.1.23-.23.23s-.23-.1-.23-.23.1-.23.23-.23.23.1.23.23zm-37.5-15.25a.53.53 0 100-1.061.53.53 0 000 1.06zm19.069 20.45c0 .44-.36.79-.79.79-.43 0-.79-.36-.79-.79 0-.43.36-.79.79-.79.43 0 .79.36.79.79zm-24.889-7.43c0 .41-.33.74-.74.74s-.74-.33-.74-.74.33-.74.74-.74.74.33.74.74zm-3.101 3.4a.85.85 0 100-1.7.85.85 0 000 1.7zm.011 3.14c0 .17-.14.31-.31.31-.17 0-.31-.14-.31-.31 0-.17.14-.31.31-.31.17 0 .31.14.31.31zm-8.889 16.78c0 .28-.23.51-.51.51s-.51-.23-.51-.51.23-.51.51-.51.51.23.51.51zm4.99 19.1c0 .4-.32.72-.72.72-.4 0-.72-.32-.72-.72 0-.4.32-.72.72-.72.4 0 .72.32.72.72zm-31.911 6.13a.56.56 0 100-1.12.56.56 0 000 1.12zm21.181 19.14a.29.29 0 100-.58.29.29 0 000 .58zm-15.141-.28a.76.76 0 11-1.52 0 .76.76 0 011.52 0zm.5 20.33c0 .4-.32.72-.72.72-.4 0-.72-.32-.72-.72 0-.4.32-.72.72-.72.4 0 .72.32.72.72zm-22.021-.09c0 .34-.28.62-.62.62-.34 0-.62-.28-.62-.62 0-.34.28-.62.62-.62.34 0 .62.28.62.62zm-2.469 5.94c0 .43-.35.77-.77.77-.42 0-.77-.35-.77-.77 0-.42.35-.77.77-.77.42 0 .77.35.77.77zm-.309 16.7a.34.34 0 100-.68.34.34 0 000 .68zm25.33 16.04c0 .12-.09.21-.21.21s-.21-.09-.21-.21.09-.21.21-.21.21.09.21.21zm-8.271 4.11a.62.62 0 10-.001-1.241.62.62 0 00.001 1.241zm-17.481 3.24a.37.37 0 100-.74.37.37 0 000 .74zm-10.229 10.1c0 .44-.35.79-.79.79-.44 0-.79-.36-.79-.79 0-.43.36-.79.79-.79.43 0 .79.36.79.79zm5.57 7.56c0 .14-.11.24-.24.24s-.24-.11-.24-.24.11-.24.24-.24.24.11.24.24zm-6.09 14.01c0 .38-.31.7-.7.7-.39 0-.7-.31-.7-.7 0-.39.31-.7.7-.7.39 0 .7.31.7.7zm11.04 11.08a.67.67 0 11-1.34 0 .67.67 0 011.34 0zm2.93 17.31a.54.54 0 100-1.08.54.54 0 000 1.08zm17.42 6.65c0 .28-.23.51-.51.51s-.51-.23-.51-.51.23-.51.51-.51.51.23.51.51zm7.64 17.75c0 .09-.07.17-.17.17s-.17-.07-.17-.17.07-.17.17-.17.17.07.17.17zm-23.89 9.77c0 .36-.29.65-.65.65-.36 0-.65-.29-.65-.65 0-.36.29-.65.65-.65.36 0 .65.29.65.65zm11.199 16.84a.46.46 0 100-.92.46.46 0 000 .92zm16.542 11.77c0 .25-.2.45-.45.45s-.45-.2-.45-.45.2-.45.45-.45.45.2.45.45zm-16.171 25.26c0 .33-.27.6-.6.6-.33 0-.6-.27-.6-.6 0-.33.27-.6.6-.6.33 0 .6.27.6.6zm32.7-.43a.2.2 0 01-.2.2.2.2 0 01-.2-.2c0-.11.09-.2.2-.2.11 0 .2.09.2.2zm-1.25 21.29a.49.49 0 11-.982-.002.49.49 0 01.982.002zm9.971 14.76c0 .25-.2.45-.45.45s-.45-.2-.45-.45.2-.45.45-.45.45.2.45.45zm.209 3.84a.42.42 0 100-.84.42.42 0 000 .84zm14.499 2.94c0 .33-.27.6-.6.6-.33 0-.6-.27-.6-.6 0-.33.27-.6.6-.6.33 0 .6.27.6.6zm-11.618 23.37a.23.23 0 100-.46.23.23 0 000 .46zm15.489 12.91c0 .33-.26.59-.59.59-.33 0-.59-.26-.59-.59 0-.33.26-.59.59-.59.33 0 .59.26.59.59zm3.08 12.19c0 .11-.09.21-.21.21s-.21-.09-.21-.21.09-.21.21-.21.21.09.21.21zm24.53-17.85a.72.72 0 100-1.44.72.72 0 000 1.44zm-7.561 23.8a.19.19 0 11-.38 0 .19.19 0 01.38 0zm-1.259 8.57c0 .46-.37.83-.83.83-.46 0-.83-.37-.83-.83 0-.46.37-.83.83-.83.46 0 .83.37.83.83zm25.72-1.05a.36.36 0 11-.359-.36c.2 0 .359.16.359.36zm2.251 16.41c0 .18-.15.33-.33.33-.18 0-.33-.15-.33-.33 0-.18.15-.33.33-.33.18 0 .33.15.33.33zm23.48-13.62c0 .31-.25.57-.57.57-.32 0-.57-.25-.57-.57 0-.32.25-.57.57-.57.32 0 .57.25.57.57zm19.549-1.18a.38.38 0 100-.76.38.38 0 000 .76zm.39 16.11c0 .15-.12.27-.27.27-.15 0-.27-.12-.27-.27 0-.15.12-.27.27-.27.15 0 .27.12.27.27zm11.23 4.22c0 .24-.19.43-.43.43s-.43-.19-.43-.43.19-.43.43-.43.43.19.43.43zm5.02 3.71a.55.55 0 100-1.1.55.55 0 000 1.1zm10.83-15.43a.43.43 0 10-.001-.861.43.43 0 00.001.861zm8.15 4.53c0 .18-.151.33-.331.33-.18 0-.33-.15-.33-.33 0-.18.15-.33.33-.33.18 0 .331.15.331.33zm9.671 9.73a.21.21 0 100-.42.21.21 0 000 .42zm4.268 27.45c0 .11-.09.21-.21.21s-.21-.09-.21-.21.09-.21.21-.21.21.09.21.21zm8.521-24.34c0 .36-.29.65-.65.65-.36 0-.65-.29-.65-.65 0-.36.29-.65.65-.65.36 0 .65.29.65.65zm6.871-7.03a.56.56 0 11-1.12 0 .56.56 0 111.12 0zm8.6 11.43c0 .13-.11.24-.24.24s-.24-.11-.24-.24.11-.24.24-.24.24.11.24.24zm3.519-2.32a.56.56 0 100-1.12.56.56 0 000 1.12zm18.99 15.67c0 .08-.07.15-.15.15-.08 0-.15-.07-.15-.15 0-.08.07-.15.15-.15.08 0 .15.07.15.15zm7.631-20.19c0 .27-.22.48-.48.48s-.48-.22-.48-.48.22-.48.48-.48.48.22.48.48zm9.078 14.66c0 .29-.24.53-.53.53-.29 0-.53-.24-.53-.53 0-.29.24-.53.53-.53.29 0 .53.24.53.53zm7.75-12.84a.63.63 0 100-1.26.63.63 0 000 1.26zm16.552 1.72c0 .23-.19.42-.42.42-.23 0-.42-.19-.42-.42 0-.23.19-.42.42-.42.23 0 .42.19.42.42zm15.289 9.01a.57.57 0 100-1.14.57.57 0 000 1.14zm1.84-28.86c0 .23-.19.42-.42.42-.23 0-.42-.19-.42-.42 0-.23.19-.42.42-.42.23 0 .42.19.42.42zm12.541 8.39c0 .3-.24.54-.54.54-.3 0-.54-.24-.54-.54 0-.3.24-.54.54-.54.3 0 .54.24.54.54zm21.529 3.85a.58.58 0 11-1.16 0 .58.58 0 011.16 0zm5.28-3.03a.45.45 0 100-.9.45.45 0 000 .9zm17.16-8.85a.56.56 0 11-1.12 0 .56.56 0 111.12 0zm6.799-7.04c0 .15-.12.27-.27.27-.15 0-.27-.12-.27-.27 0-.15.12-.27.27-.27.15 0 .27.12.27.27zm14.742-7.99c0 .33-.26.59-.59.59-.33 0-.59-.26-.59-.59 0-.33.26-.59.59-.59.33 0 .59.26.59.59zm-9.311-15.68a.37.37 0 11-.738.002.37.37 0 01.738-.002zm15.651-3.58a.68.68 0 100-1.36.68.68 0 000 1.36zm21.569 6.75c0 .18-.14.32-.32.32s-.32-.14-.32-.32.14-.32.32-.32.32.14.32.32zm.31-9.33c0 .3-.25.55-.55.55-.3 0-.55-.25-.55-.55 0-.3.25-.55.55-.55.3 0 .55.25.55.55zm21.4-5.51c0 .35-.28.63-.63.63s-.63-.28-.63-.63.28-.63.63-.63.63.28.63.63zm-.23-25.33a.85.85 0 11-1.699.001.85.85 0 011.699-.001zm5.02-3.71c0 .15-.12.27-.27.27-.15 0-.27-.12-.27-.27 0-.15.12-.27.27-.27.15 0 .27.12.27.27zm-3.8-17.73a.42.42 0 100-.84.42.42 0 000 .84zm1.97-5.86a.63.63 0 100-1.26.63.63 0 000 1.26zm24.421-6.53c0 .35-.28.63-.63.63s-.63-.28-.63-.63.28-.63.63-.63.63.28.63.63zm6.648-5.19c0 .12-.099.22-.219.22s-.221-.1-.221-.22.101-.22.221-.22.219.1.219.22zm-3.399-7.56c0 .17-.14.32-.32.32s-.32-.14-.32-.32.14-.32.32-.32.32.14.32.32zm2.911-7.38a.67.67 0 100-1.34.67.67 0 000 1.34zm10.309-16.54a.3.3 0 01-.3.3c-.17 0-.3-.13-.3-.3 0-.17.13-.3.3-.3.17 0 .3.13.3.3zm-.021-67.08c0 .29-.24.53-.53.53-.29 0-.53-.24-.53-.53 0-.29.24-.53.53-.53.29 0 .53.24.53.53zm-6.06-3.42c0 .46-.37.83-.83.83-.46 0-.83-.37-.83-.83 0-.46.37-.83.83-.83.46 0 .83.37.83.83zm-11.34-32.55c0 .25-.2.45-.45.45s-.45-.2-.45-.45.2-.45.45-.45.45.2.45.45zm14.869-17.95a.66.66 0 100-1.32.66.66 0 000 1.32zm-18.338-8.04c0 .22-.18.4-.4.4-.22 0-.4-.18-.4-.4 0-.22.18-.4.4-.4.22 0 .4.18.4.4zm18.928-23.59a.58.58 0 100-1.16.58.58 0 000 1.16zm-10.268-6.19c0 .33-.27.6-.6.6-.33 0-.6-.27-.6-.6 0-.33.27-.6.6-.6.33 0 .6.27.6.6zm.139-9.65c0 .39-.31.7-.7.7-.39 0-.7-.31-.7-.7 0-.39.31-.7.7-.7.39 0 .7.31.7.7zm-21.381-3a.15.15 0 100-.3.15.15 0 000 .3zm-6.779-11.91a.66.66 0 11-1.319.001.66.66 0 011.319-.001zm-9.45-2.2c0 .12-.1.22-.22.22s-.22-.1-.22-.22.1-.22.22-.22.22.1.22.22zm15.479-25.6a.65.65 0 100-1.3.65.65 0 000 1.3zm-2.268-2.89c0 .33-.27.6-.6.6-.33 0-.6-.27-.6-.6 0-.33.27-.6.6-.6.33 0 .6.27.6.6zm-11.171 2.4a.28.28 0 01-.281.28.285.285 0 01-.279-.28c0-.15.129-.28.279-.28.15 0 .281.13.281.28zm10.27-19.11c0 .19-.15.34-.34.34-.19 0-.34-.15-.34-.34 0-.19.15-.34.34-.34.19 0 .34.15.34.34zm-19.199 6.73c0 .15-.12.26-.26.26s-.26-.12-.26-.26.12-.26.26-.26.26.12.26.26zm-2.712-9.23c0 .25-.2.45-.45.45s-.45-.2-.45-.45.2-.45.45-.45.45.2.45.45zm-25.678 3.93c0 .38-.31.69-.69.69-.38 0-.69-.31-.69-.69 0-.38.31-.69.69-.69.38 0 .69.31.69.69zm6.969-19.21a.48.48 0 100-.96.48.48 0 000 .96zm-13.83-3.47a.41.41 0 100-.82.41.41 0 000 .82zm-4.89-7.59a.42.42 0 100-.84.42.42 0 000 .84zm7.009-17.06a.781.781 0 01-1.56 0 .781.781 0 011.56 0zm-11.738 2.8c0 .43-.351.78-.781.78-.43 0-.77-.35-.77-.78 0-.43.35-.78.77-.78.42 0 .781.35.781.78zm-21.851 4.77c0 .3-.24.54-.54.54-.3 0-.54-.24-.54-.54 0-.3.24-.54.54-.54.3 0 .54.24.54.54zm-9.761-11.5c0 .25-.2.45-.45.45s-.449-.2-.449-.45.199-.45.449-.45.45.2.45.45zm-8.249-18.27c0 .18-.15.33-.33.33-.18 0-.33-.15-.33-.33 0-.18.15-.33.33-.33.18 0 .33.15.33.33zm-12.28 8.33a.65.65 0 100-1.3.65.65 0 000 1.3zm-28.67-.29c0 .24-.2.44-.44.44s-.44-.2-.44-.44.2-.44.44-.44.44.2.44.44zm-18.6-14.88a.76.76 0 11-1.52 0 .76.76 0 011.52 0zm-19.92 11.4c0 .22-.18.39-.39.39-.21 0-.39-.18-.39-.39 0-.21.18-.39.39-.39.21 0 .39.18.39.39zm-81.331 4.39c0 .44-.35.79-.79.79-.44 0-.79-.35-.79-.79 0-.44.35-.79.79-.79.44 0 .79.35.79.79zm-17.498-3.08c0 .18-.15.33-.33.33-.18 0-.32-.15-.32-.33 0-.18.15-.32.32-.32s.33.15.33.32zm-21.741-8.82a.85.85 0 11-1.699.001.85.85 0 011.699-.001zm-15.73 6.23a.24.24 0 100-.48.24.24 0 000 .48zm-5.42 8.03a.16.16 0 100-.32.16.16 0 000 .32zm-22.139-3.93c0 .13-.1.23-.23.23s-.23-.1-.23-.23.1-.23.23-.23.23.1.23.23zM445.29 89.01c0 .16-.13.28-.28.28-.15 0-.28-.13-.28-.28 0-.15.13-.28.28-.28.15 0 .28.13.28.28zm6.611 24.51a.52.52 0 100-1.04.52.52 0 000 1.04zm-27.531-8.76c0 .2-.16.36-.36.36-.2 0-.36-.16-.36-.36 0-.2.16-.36.36-.36.2 0 .36.16.36.36zm-10.5 11.92c0 .12-.1.23-.23.23s-.23-.1-.23-.23.1-.23.23-.23.23.1.23.23zm-2.69 16.83c0 .4-.32.72-.72.72-.4 0-.72-.32-.72-.72 0-.4.32-.72.72-.72.4 0 .72.32.72.72zm-11.929 5.01c0 .24-.19.43-.43.43s-.43-.19-.43-.43.19-.43.43-.43.43.19.43.43zm-13.181.98a.33.33 0 100-.66.33.33 0 000 .66zm2.801 25.08c0 .23-.18.41-.41.41-.23 0-.41-.18-.41-.41 0-.23.18-.41.41-.41.23 0 .41.18.41.41zm11.58 9.4c0 .45-.37.82-.82.82-.45 0-.82-.37-.82-.82 0-.45.37-.82.82-.82.45 0 .82.37.82.82zm-20.792 11.2c0 .09-.07.15-.15.15-.08 0-.15-.07-.15-.15 0-.08.07-.15.15-.15.08 0 .15.07.15.15zM378 195.76c0 .25-.21.46-.46.46s-.46-.21-.46-.46.21-.46.46-.46.46.21.46.46zm-27.679-4.55c0 .44-.36.8-.8.8-.44 0-.8-.36-.8-.8 0-.44.36-.8.8-.8.44 0 .8.36.8.8zm9.72 9.17c0 .23-.18.41-.41.41-.23 0-.41-.18-.41-.41 0-.23.18-.41.41-.41.23 0 .41.18.41.41zm.809 14.19c0 .46-.38.84-.84.84-.46 0-.84-.38-.84-.84 0-.46.38-.84.84-.84.46 0 .84.38.84.84zm-22.659 8.41c0 .2-.16.36-.36.36-.2 0-.36-.16-.36-.36 0-.2.16-.36.36-.36.2 0 .36.16.36.36zm-3.281 12.94c0 .39-.32.71-.71.71-.39 0-.71-.32-.71-.71 0-.39.32-.71.71-.71.39 0 .71.32.71.71zm16.119 23.3c0 .36-.29.66-.66.66-.37 0-.66-.29-.66-.66 0-.37.29-.66.66-.66.37 0 .66.29.66.66zm13.762 6.5c0 .09-.07.16-.16.16s-.16-.07-.16-.16.07-.16.16-.16.16.07.16.16zm-6.521 15.81a.77.77 0 11-1.54 0 .77.77 0 011.54 0zm-9.88 13.03c0 .22-.18.4-.4.4-.22 0-.4-.18-.4-.4 0-.22.18-.4.4-.4.22 0 .4.18.4.4zm12.85 10.41c0 .25-.2.45-.45.45s-.45-.2-.45-.45.2-.45.45-.45.45.2.45.45zm-18.2 20.75c0 .35-.29.64-.64.64-.35 0-.64-.29-.64-.64 0-.35.29-.64.64-.64.35 0 .64.29.64.64zm-13.48 5.03c0 .31-.25.57-.57.57-.32 0-.57-.25-.57-.57 0-.32.25-.57.57-.57.32 0 .57.25.57.57zm11.46 8.17a.36.36 0 100-.72.36.36 0 000 .72zm5.35 14.27c0 .28-.23.51-.51.51s-.51-.23-.51-.51.23-.51.51-.51.51.23.51.51zm6.46 2.93a.73.73 0 100-1.46.73.73 0 000 1.46zm15.8 12.16c0 .15-.12.28-.28.28-.16 0-.28-.12-.28-.28 0-.16.12-.28.28-.28.16 0 .28.12.28.28zm-22.369 25.92c0 .17-.14.31-.31.31-.17 0-.31-.14-.31-.31 0-.17.14-.31.31-.31.17 0 .31.14.31.31zm27.619-4.58a.54.54 0 100-1.08.54.54 0 000 1.08zm-1.19 11.63c0 .44-.36.8-.8.8-.44 0-.8-.36-.8-.8 0-.44.36-.8.8-.8.44 0 .8.36.8.8zm-4.46 12.67a.49.49 0 10.001-.979.49.49 0 00-.001.979zm-7.63 20.55a.51.51 0 100-1.02.51.51 0 000 1.02zm25.201 3.63c0 .35-.28.62-.62.62-.34 0-.62-.28-.62-.62 0-.34.28-.62.62-.62.34 0 .62.28.62.62zm13.759 9.3c0 .23-.18.41-.41.41-.23 0-.41-.18-.41-.41 0-.23.18-.41.41-.41.23 0 .41.18.41.41zm-14.689 19.22c0 .41-.33.74-.74.74s-.74-.33-.74-.74.33-.74.74-.74.74.33.74.74zm11.67 3.21a.2.2 0 01-.2.2.2.2 0 01-.2-.2c0-.11.09-.2.2-.2.11 0 .2.09.2.2zm23.748-14.11c0 .44-.35.79-.79.79-.44 0-.79-.35-.79-.79 0-.44.35-.79.79-.79.44 0 .79.35.79.79zm1.851 20.97a.2.2 0 01-.2.2.2.2 0 01-.2-.2c0-.11.09-.2.2-.2.11 0 .2.09.2.2zm-.77 8.02c0 .36-.29.65-.65.65-.36 0-.65-.29-.65-.65 0-.36.29-.65.65-.65.36 0 .65.29.65.65zm11.78-.75c0 .3-.24.54-.54.54-.3 0-.54-.24-.54-.54 0-.3.24-.54.54-.54.3 0 .54.24.54.54zm-.04 19.01a.63.63 0 100-1.26.63.63 0 000 1.26zm7-.34a.27.27 0 100-.54.27.27 0 000 .54zm7.42-2.8c0 .47-.38.84-.84.84-.46 0-.84-.38-.84-.84 0-.46.38-.84.84-.84.46 0 .84.38.84.84zm.049 4.06c0 .24-.2.44-.44.44s-.44-.2-.44-.44.2-.44.44-.44.44.2.44.44zm9.032 8.55a.57.57 0 11-1.14 0 .57.57 0 011.14 0zm5.329 6.23c0 .4-.32.72-.72.72-.4 0-.72-.32-.72-.72 0-.4.32-.72.72-.72.4 0 .72.32.72.72zm19.241 3.3c0 .13-.1.23-.23.23s-.23-.1-.23-.23.1-.23.23-.23.23.1.23.23zm9.169 10.46c0 .35-.28.63-.63.63s-.63-.28-.63-.63.28-.63.63-.63.63.28.63.63zm12.219 4.02a.56.56 0 11-1.12 0 .56.56 0 111.12 0zm5.72 4.68c0 .12-.09.21-.21.21s-.21-.09-.21-.21.09-.21.21-.21.21.09.21.21zm8.992 3.34a.8.8 0 100-1.6.8.8 0 000 1.6zm19.52-7.95a.58.58 0 11-1.16 0 .58.58 0 011.16 0zm16.99 10.25a.58.58 0 11-1.16 0 .58.58 0 011.16 0zm15.228 21.77a.49.49 0 11-.982-.002.49.49 0 01.982.002zm5.772-24.56a.66.66 0 10-.001-1.321.66.66 0 00.001 1.321zm2.769 11.77a.57.57 0 100-1.14.57.57 0 000 1.14zm20.27 14.21c0 .18-.15.33-.33.33-.18 0-.33-.15-.33-.33 0-.18.15-.33.33-.33.18 0 .33.15.33.33zm1.11-25.43c0 .44-.36.8-.8.8-.44 0-.8-.36-.8-.8 0-.44.36-.8.8-.8.44 0 .8.36.8.8zm3.26 1.71c0 .1-.08.18-.18.18a.18.18 0 01-.18-.18c0-.1.08-.18.18-.18.1 0 .18.08.18.18zm16.221-10.09c0 .45-.36.81-.81.81-.45 0-.81-.36-.81-.81 0-.45.36-.81.81-.81.45 0 .81.36.81.81zm18.518 21.9c0 .25-.2.45-.45.45s-.45-.2-.45-.45.2-.45.45-.45.45.2.45.45zm8.301-16.29a.58.58 0 11-1.16 0 .58.58 0 011.16 0zm14.681-3.95a.37.37 0 100-.74.37.37 0 000 .74zm2.809-9.73c0 .18-.15.33-.33.33-.18 0-.33-.15-.33-.33 0-.18.15-.33.33-.33.18 0 .33.15.33.33zm15.07 10.13c0 .39-.31.7-.7.7-.39 0-.7-.32-.7-.7 0-.38.32-.7.7-.7.38 0 .7.32.7.7zm4.921-20.53c0 .1-.08.17-.17.17-.09 0-.17-.08-.17-.17 0-.09.08-.17.17-.17.09 0 .17.08.17.17zM709.3 540.8c0 .34-.27.61-.61.61-.34 0-.61-.27-.61-.61 0-.34.27-.61.61-.61.34 0 .61.27.61.61zm1.36-2.66a.75.75 0 100-1.5.75.75 0 000 1.5zm13.04-18.49c0 .29-.23.52-.52.52-.29 0-.52-.23-.52-.52 0-.29.23-.52.52-.52.29 0 .52.23.52.52zm3.23-25.37a.6.6 0 01-1.2 0 .6.6 0 011.2 0zm25.81 21.03a.25.25 0 100-.5.25.25 0 000 .5zm-8.889-26.25c0 .29-.23.52-.52.52-.29 0-.52-.23-.52-.52 0-.29.23-.52.52-.52.29 0 .52.23.52.52zm25.038 5.49a.36.36 0 100-.72.36.36 0 000 .72zm10.061 3.82c0 .29-.23.52-.52.52-.29 0-.52-.23-.52-.52 0-.29.23-.52.52-.52.29 0 .52.23.52.52zm-5.29-25.79a.49.49 0 11-.982-.002.49.49 0 01.982.002zm8.199 1.17a.67.67 0 100-1.34.67.67 0 000 1.34zm8.262-17.39c0 .09-.07.16-.16.16s-.16-.07-.16-.16.07-.16.16-.16.16.07.16.16zm16.59 6.15a.66.66 0 11-1.319.001.66.66 0 011.319-.001zm2.078-10.46a.759.759 0 11-1.519 0 .76.76 0 111.519 0zm3.331-7.7a.52.52 0 100-1.04.52.52 0 000 1.04zm-1.749-16.65c0 .13-.11.24-.24.24s-.24-.11-.24-.24.11-.24.24-.24.24.11.24.24zm4.668-16.32c0 .3-.24.54-.54.54-.3 0-.54-.24-.54-.54 0-.3.24-.54.54-.54.3 0 .54.24.54.54zm2.662-18.94c0 .09-.07.16-.16.16s-.16-.07-.16-.16.07-.16.16-.16.16.07.16.16zm19.488-8.34c0 .14-.11.25-.25.25s-.25-.11-.25-.25.11-.25.25-.25.25.11.25.25zm-6.319-11.84c0 .29-.23.52-.52.52-.29 0-.52-.23-.52-.52 0-.29.23-.52.52-.52.29 0 .52.23.52.52zm-10.629-8.13a.27.27 0 100-.54.27.27 0 000 .54zm22.108-22.64c0 .15-.12.28-.28.28-.16 0-.28-.12-.28-.28 0-.16.12-.28.28-.28.16 0 .28.12.28.28zM825.2 321.86a.8.8 0 100-1.6.8.8 0 000 1.6zm16.251 48.17a.781.781 0 01-1.56 0 .781.781 0 011.56 0zm2.799-45.88a1.34 1.34 0 11-2.68 0 1.34 1.34 0 012.68 0zm-48.15-13.84c0 .62-.51 1.13-1.13 1.13-.62 0-1.13-.51-1.13-1.13 0-.62.51-1.13 1.13-1.13.62 0 1.13.51 1.13 1.13zm-9.58-33.58a.69.69 0 100-1.38.69.69 0 000 1.38zm-11.249-8.54a1.16 1.16 0 11-2.322-.002 1.16 1.16 0 012.322.002zm1.25-49.21c0 .34-.28.62-.62.62-.34 0-.62-.28-.62-.62 0-.34.28-.62.62-.62.34 0 .62.28.62.62zm-20.319-22.5c0 .3-.25.55-.55.55-.3 0-.55-.25-.55-.55 0-.3.25-.55.55-.55.3 0 .55.25.55.55zm-12.051-.76c0 .76-.62 1.38-1.38 1.38-.76 0-1.38-.62-1.38-1.38 0-.76.62-1.38 1.38-1.38.76 0 1.38.62 1.38 1.38zm-20.861-12.77c0 .45-.37.82-.82.82-.45 0-.82-.37-.82-.82 0-.45.37-.82.82-.82.45 0 .82.37.82.82zm-44.859 6.47c0 .5-.41.91-.91.91s-.91-.41-.91-.91.41-.91.91-.91.91.41.91.91zm-18.31-33.41c0 .25-.2.45-.46.45s-.45-.2-.45-.45.2-.46.45-.46.46.2.46.46zm-22.621-2.45a.591.591 0 11-1.182-.002.591.591 0 011.182.002zm-28.228 18.62c0 .81-.65 1.46-1.46 1.46-.81 0-1.46-.65-1.46-1.46 0-.81.65-1.46 1.46-1.46.81 0 1.46.65 1.46 1.46zm-9.852 17.79c0 .27-.22.5-.5.5s-.5-.22-.5-.5.22-.5.5-.5.5.22.5.5zm-11.879-7.21c0 .62-.5 1.12-1.12 1.12-.62 0-1.12-.5-1.12-1.12 0-.62.5-1.12 1.12-1.12.62 0 1.12.5 1.12 1.12zm-12.9 9.24a.77.77 0 100-1.54.77.77 0 000 1.54zm-38.089-42.22c0 .86-.7 1.56-1.56 1.56-.86 0-1.56-.7-1.56-1.56 0-.86.7-1.56 1.56-1.56.86 0 1.56.7 1.56 1.56zm-28.542-8.35c0 .84-.68 1.52-1.52 1.52s-1.51-.68-1.51-1.52.68-1.52 1.51-1.52 1.52.68 1.52 1.52zm-25.639 43.1c0 .35-.28.63-.63.63s-.63-.28-.63-.63.28-.63.63-.63.63.28.63.63zm-21.921-7.54c0 .43-.34.77-.77.77s-.77-.34-.77-.77.34-.77.77-.77.77.34.77.77zm1.362 20.37c0 .24-.2.44-.44.44s-.44-.2-.44-.44.2-.44.44-.44.44.2.44.44zm-7.361 41.3c0 .83-.67 1.5-1.5 1.5s-1.5-.67-1.5-1.5.67-1.5 1.5-1.5 1.5.67 1.5 1.5zm-61.43-8.68c0 .29-.24.53-.53.53-.29 0-.53-.24-.53-.53 0-.29.24-.53.53-.53.29 0 .53.24.53.53zm21.379 45.57c0 .43-.35.79-.79.79-.44 0-.79-.35-.79-.79 0-.44.35-.79.79-.79.44 0 .79.35.79.79zm-52.25-6.29a1.66 1.66 0 100-3.32 1.66 1.66 0 000 3.32zm18.61 39.13a.96.96 0 11-1.92 0 .96.96 0 011.92 0zm-4.949 38.19a.76.76 0 11-1.52 0 .76.76 0 011.52 0zm11.59 36.55c0 .47-.38.84-.84.84-.46 0-.84-.38-.84-.84 0-.46.38-.84.84-.84.46 0 .84.38.84.84zm-41.04 29.5a1.62 1.62 0 11-3.24 0 1.62 1.62 0 013.24 0zm9.079 18.71c0 .63-.51 1.15-1.15 1.15-.64 0-1.14-.51-1.14-1.15 0-.64.51-1.14 1.14-1.14.63 0 1.15.51 1.15 1.14zm-36.309 30.32c0 .18-.15.33-.33.33-.18 0-.33-.15-.33-.33 0-.18.15-.33.33-.33.18 0 .33.15.33.33zm35.129 11.91a.69.69 0 100-1.38.69.69 0 000 1.38zm-9.7 25.21a1.609 1.609 0 11-3.22 0 1.609 1.609 0 113.22 0zm19.081 7.77c0 .19-.16.35-.35.35-.19 0-.35-.16-.35-.35 0-.19.16-.35.35-.35.19 0 .35.16.35.35zm45.299 17.84a1.27 1.27 0 100-2.54 1.27 1.27 0 000 2.54zm-13.439 22.95c0 .7-.57 1.27-1.27 1.27-.7 0-1.27-.57-1.27-1.27 0-.7.57-1.27 1.27-1.27.7 0 1.27.57 1.27 1.27zm-5.4 28.74a1.47 1.47 0 100-2.94 1.47 1.47 0 000 2.94zm.5 36.38c0 .2-.16.36-.36.36-.2 0-.36-.16-.36-.36 0-.2.16-.36.36-.36.2 0 .36.16.36.36zm75.129-25.27c0 .84-.68 1.53-1.53 1.53s-1.53-.68-1.53-1.53.68-1.53 1.53-1.53 1.53.68 1.53 1.53zm17.87 32.35c0 .49-.4.89-.89.89s-.89-.4-.89-.89.4-.89.89-.89.89.4.89.89zm6.671 2.51c0 .3-.24.54-.54.54-.3 0-.54-.24-.54-.54 0-.3.24-.54.54-.54.3 0 .54.24.54.54zm20.509 12.14a1.261 1.261 0 11-2.522-.002 1.261 1.261 0 012.522.002zm29.8-3.78a1.16 1.16 0 11-2.322-.002 1.16 1.16 0 012.322.002zm55.98 11.85a1.609 1.609 0 11-3.22 0 1.609 1.609 0 113.22 0zm17.03-.25a.67.67 0 100-1.34.67.67 0 000 1.34zm35.17-1.86c0 .28-.23.5-.5.5s-.5-.23-.5-.5.23-.5.5-.5.5.23.5.5zm87.441 3.22a.33.33 0 100-.66.33.33 0 000 .66zm34.78-17.51c0 .59-.48 1.06-1.06 1.06-.58 0-1.06-.48-1.06-1.06 0-.58.48-1.06 1.06-1.06.58 0 1.06.48 1.06 1.06zm-8.301-41.83c0 .49-.39.88-.88.88s-.88-.39-.88-.88.39-.88.88-.88.88.39.88.88zm43.45 21.15a.89.89 0 100-1.78.89.89 0 000 1.78zm-29.119-55.39c0 .86-.7 1.56-1.56 1.56-.86 0-1.56-.7-1.56-1.56 0-.86.7-1.56 1.56-1.56.86 0 1.56.7 1.56 1.56zm9.18-14.86a.87.87 0 11-1.741-.001.87.87 0 011.741.001zm57.859-50.83c0 .61-.5 1.11-1.11 1.11-.61 0-1.11-.5-1.11-1.11 0-.61.5-1.11 1.11-1.11.61 0 1.11.5 1.11 1.11zm-5.36-49.73c0 .89-.72 1.6-1.6 1.6-.88 0-1.6-.72-1.6-1.6 0-.88.72-1.6 1.6-1.6.88 0 1.6.72 1.6 1.6z" fill="#D4E8F2"/><path d="M743.223 515.866c96.924-96.924 96.924-254.069 0-350.994-96.924-96.924-254.07-96.924-350.994 0-96.924 96.925-96.924 254.07 0 350.994 96.924 96.924 254.07 96.924 350.994 0z" stroke="#D4E8F2" stroke-miterlimit="10"/><path d="M730.42 552.335c96.924-96.924 96.924-254.069 0-350.993-96.924-96.925-254.069-96.925-350.994 0-96.924 96.924-96.924 254.069.001 350.993 96.924 96.924 254.069 96.924 350.993 0z" stroke="#D4E8F2" stroke-miterlimit="10"/><path d="M717.61 570.571c96.924-96.924 96.924-254.069 0-350.994-96.925-96.924-254.07-96.924-350.994 0-96.924 96.925-96.924 254.07 0 350.994 96.924 96.924 254.069 96.924 350.994 0z" stroke="#D4E8F2" stroke-width="2" stroke-miterlimit="10"/><path d="M704.793 442.92c96.924-96.925 96.924-254.07 0-350.994-96.924-96.924-254.069-96.924-350.993 0-96.925 96.924-96.925 254.069 0 350.994 96.924 96.924 254.069 96.924 350.993 0z" stroke="#D4E8F2" stroke-miterlimit="10"/><path d="M658.076 500.175c78.191-78.191 78.191-204.963 0-283.154-78.19-78.191-204.963-78.191-283.153 0-78.191 78.191-78.191 204.963 0 283.154 78.19 78.191 204.963 78.191 283.153 0z" stroke="#D4E8F2" stroke-miterlimit="10"/><path d="M644.55 663.02c127.837 0 231.47-103.633 231.47-231.47S772.387 200.08 644.55 200.08 413.08 303.713 413.08 431.55s103.633 231.47 231.47 231.47z" stroke="#D4E8F2" stroke-miterlimit="10"/></g><path d="M422.704 399.518c4.546-4.26 4.777-11.398.518-15.944-4.26-4.546-11.399-4.778-15.944-.518-4.546 4.26-4.778 11.398-.518 15.944 4.26 4.546 11.398 4.778 15.944.518zm4.146 12.572c0 2.76 2.24 4.99 4.99 4.99s4.99-2.24 4.99-4.99-2.24-4.99-4.99-4.99-4.99 2.24-4.99 4.99zm-123.229-51.7c3.683-3.682 3.683-9.653 0-13.336-3.682-3.682-9.653-3.682-13.336 0-3.682 3.683-3.682 9.654 0 13.336 3.683 3.683 9.654 3.683 13.336 0zm80.783 103.495c1.149-5.289-2.207-10.508-7.496-11.658-5.289-1.149-10.508 2.207-11.657 7.496-1.149 5.289 2.206 10.508 7.495 11.657 5.289 1.15 10.509-2.206 11.658-7.495zm319.943-7.684c.905-6.064-3.276-11.713-9.339-12.618-6.063-.905-11.712 3.277-12.617 9.34-.905 6.063 3.276 11.712 9.339 12.617 6.063.905 11.712-3.276 12.617-9.339zm-91.116 84.779a6.84 6.84 0 10-.002-13.682 6.84 6.84 0 00.002 13.682zM493.75 571.31c8.273 0 14.98-6.707 14.98-14.98s-6.707-14.98-14.98-14.98c-8.274 0-14.98 6.707-14.98 14.98s6.706 14.98 14.98 14.98zm24.191 49.74a5.529 5.529 0 11-11.06 0c0-3.05 2.48-5.53 5.53-5.53 3.05 0 5.53 2.48 5.53 5.53zm119.628-9.36a5.73 5.73 0 11-11.459.001 5.73 5.73 0 0111.459-.001zm28.01 4.01a5.55 5.55 0 100-11.1 5.55 5.55 0 000 11.1zm114.794-302.027c3.827-3.827 3.827-10.032 0-13.859-3.827-3.828-10.032-3.828-13.859 0-3.828 3.827-3.828 10.032 0 13.859 3.827 3.827 10.032 3.827 13.859 0zM663.361 215.55c0 3.88-3.15 7.03-7.03 7.03-3.88 0-7.03-3.15-7.03-7.03 0-3.88 3.15-7.03 7.03-7.03 3.88 0 7.03 3.15 7.03 7.03zm42.719-2.59a4.99 4.99 0 100-9.98 4.99 4.99 0 000 9.98zm53.83 14.06c0 3.47-2.82 6.29-6.29 6.29s-6.29-2.82-6.29-6.29 2.82-6.29 6.29-6.29 6.29 2.82 6.29 6.29zm11.829-36.81c0 3.37-2.73 6.1-6.1 6.1-3.37 0-6.1-2.73-6.1-6.1 0-3.37 2.73-6.1 6.1-6.1 3.37 0 6.1 2.73 6.1 6.1zm39.96 73.43c0 3.47-2.82 6.29-6.29 6.29s-6.29-2.82-6.29-6.29 2.82-6.29 6.29-6.29 6.29 2.82 6.29 6.29zm13.82 26.16a3.33 3.33 0 10.001-6.659 3.33 3.33 0 00-.001 6.659zm-91.51-156a7.4 7.4 0 100-14.8 7.4 7.4 0 000 14.8zm-341.903 45.055c4.046-4.046 4.046-10.605 0-14.651-4.046-4.046-10.606-4.046-14.651 0-4.046 4.046-4.046 10.605 0 14.651 4.045 4.046 10.605 4.046 14.651 0zM377.41 220.31c0 2.35-1.9 4.25-4.25 4.25s-4.25-1.9-4.25-4.25 1.9-4.25 4.25-4.25 4.25 1.9 4.25 4.25zm-47.9 312.63c5.617 0 10.17-4.553 10.17-10.17s-4.553-10.17-10.17-10.17-10.17 4.553-10.17 10.17 4.553 10.17 10.17 10.17zm37.539 33.67a5.181 5.181 0 01-10.36 0 5.181 5.181 0 0110.36 0zm42.912 7.03c0 3.68-2.98 6.66-6.66 6.66s-6.66-2.98-6.66-6.66 2.98-6.66 6.66-6.66 6.66 2.98 6.66 6.66zM546.63 223.53a7.18 7.18 0 01-7.18 7.18c-3.97 0-7.18-3.21-7.18-7.18 0-3.97 3.21-7.18 7.18-7.18 3.97 0 7.18 3.21 7.18 7.18zm-57.679 57.88a5.74 5.74 0 11-11.48 0 5.74 5.74 0 0111.48 0zM761.12 642.46c6.13 0 11.099-4.97 11.099-11.1 0-6.131-4.969-11.1-11.099-11.1-6.131 0-11.1 4.969-11.1 11.1 0 6.13 4.969 11.1 11.1 11.1zm74.811-73.82a5.73 5.73 0 11-11.459.001 5.73 5.73 0 0111.459-.001z" fill="#D4E8F2"/></svg>