<svg width="80" height="80" fill="none" xmlns="http://www.w3.org/2000/svg"><path fill="url(#paint0_linear_850_628)" d="M0 0h80v80H0z"/><path d="M17.98 27.972l-.21.084c0 .322-.028.714.112 1.064.238.588 1.064 1.232 1.652 1.232.518 0 .812-.392 1.582-.994.784-.63 2.828-2.436 4.69-2.436 1.596 0 2.478 1.246 2.478 2.604 0 1.414-.798 2.408-2.002 3.108-1.442.868-2.968 1.176-4.914 1.4l.042.322c2.058.154 4.536-.028 6.048-.84 1.442-.742 2.548-1.876 2.548-3.752 0-1.862-1.596-3.612-4.158-3.612-2.296 0-4.424 1.358-6.076 2.086-.462.21-.672.252-.868.252-.364 0-.728-.294-.924-.518zm16.156-2.184l-.182.112c.392 1.162.826 1.68 1.834 1.68 1.652 0 3.598-.602 4.424-.91.63-.238.84-.476.84-.756 0-.574-.56-.63-1.05-.63-.14 0-.98.49-2.016.756-.574.154-1.596.434-2.24.434-.602 0-.91-.084-1.61-.686zm2.17-1.722l.014.196c.266.098.518.196.7.308.196.14.238.252.238.546 0 .798-.056 2.464-.112 3.85l.882.322c.168-1.372.42-3.08.56-3.822.098-.462.294-.56.294-.896 0-.322-.91-.756-1.554-.756-.42 0-.686.098-1.022.252zm2.17 5.852c0-1.036-.616-1.4-1.61-1.4-1.26 0-2.184 1.26-2.184 2.534 0 .994.868 1.946 1.946 1.946 1.358 0 1.848-1.89 1.848-3.08zm-2.128 1.694c-.504 0-.84-.476-.84-.98 0-.756.434-1.484 1.078-1.484.448 0 .644.336.644.854 0 .882-.238 1.61-.882 1.61zm1.414.448H36.67c-.084.546-.238 1.134-.238 1.834 0 1.33.98 1.946 3.5 1.946 2.66 0 4.326-.84 4.326-1.96 0-.574-.28-.742-.658-1.862-.238-.714-.56-2.562-.56-3.318 0-.952.238-1.302.644-1.302.532 0 1.33.798 1.33 1.498 0 .196-.056.294-.21.42-.21.168-.644.392-.98.574l.07.196c1.176-.154 1.26.336 1.876.322.686-.028.784-.49.784-.98 0-1.498-1.372-2.674-2.604-2.674-.896 0-1.484.616-1.484 2.072 0 1.008.196 3.01.196 3.752 0 .882-.238 1.162-.7 1.414-.49.252-1.316.462-2.408.462-1.316 0-2.17-.126-2.17-.854 0-.406.168-.966.378-1.54zM60.4 25.634c.238.336.406.532.644.546.294 0 .504-.21.504-.504.014-.266-.084-.518-.392-.798-.42-.392-1.078-.658-1.862-.882l-.14.182c.658.56.994 1.078 1.246 1.456zm1.33-.966c.266.35.42.574.7.574.294 0 .462-.182.462-.49 0-.322-.14-.588-.504-.868-.378-.294-1.022-.518-1.82-.686l-.126.196c.742.56 1.036.952 1.288 1.274zm-10.5.826c.77.504 1.19.672 2.142.672.798 0 2.198-.294 3.01-.546 1.26-.392 1.722-.882 1.876-.882.56 0 1.162.084 1.176.588 0 .196-.112.406-.406.602-.826.56-3.332 1.358-5.376 1.358-1.344 0-1.988-.35-2.59-1.68l.168-.112zm1.54 2.142c-.602.77-.392 1.232.826 1.232 1.232 0 2.604-.28 4.004-.77 1.47-.49 1.82-.84 1.96-.84.532-.07 1.176.042 1.176.588 0 .21-.084.434-.406.644-1.26.784-4.074 1.596-6.734 1.596-1.932 0-2.758-1.428-1.022-2.59l.196.14zm2.814 3.542c.994 0 1.988.168 2.534.28.168.042.182 0 .112-.126-.294-.448-.91-1.26-1.512-2.422a37.143 37.143 0 01-1.638-3.71c-.154-.378-.266-.518-.686-.616a12.393 12.393 0 00-.924-.126l-.056-.182c.434-.378.896-.63 1.47-.63.784 0 1.33.154 1.414.686.056.406.154 1.204.336 1.75.336 1.008.602 1.652 1.134 2.604 1.246 2.226 2.324 2.59 2.324 3.22 0 .686-.406 1.316-.854 1.316-.448 0-.672-.322-1.484-.798-.504-.28-1.526-.644-2.618-.644-1.414 0-2.268.602-2.268 1.414 0 1.008 1.372 1.246 2.52 1.246 1.26 0 1.372-.168 2.184-.168.602 0 1.12.196 1.12.728 0 .714-1.428.924-2.954.924-2.212 0-3.962-.84-3.962-2.38 0-1.246 1.288-2.366 3.808-2.366zM23.076 58.266c1.26 0 2.24-.28 3.122-.812l-.028-2.422h-.756l-.728 2.758.98-.322v-.504c-.77.56-1.442.784-2.24.784-2.1 0-3.668-1.568-3.668-4.914 0-3.332 1.568-4.942 3.654-4.942.826 0 1.442.224 2.17.728v-.462l-1.008-.336.742 2.786h.756l.028-2.436c-.91-.518-1.764-.798-3.01-.798-3.024 0-5.432 1.918-5.432 5.53 0 3.556 2.338 5.362 5.418 5.362zm11.274 0c2.604 0 4.83-1.918 4.83-5.446 0-3.542-2.24-5.446-4.83-5.446-2.576 0-4.83 1.932-4.83 5.446 0 3.556 2.254 5.446 4.83 5.446zm0-.518c-1.848 0-2.744-2.128-2.744-4.928 0-2.786.896-4.928 2.744-4.928 1.862 0 2.744 2.142 2.744 4.928 0 2.8-.882 4.928-2.744 4.928zm8.029.252h2.338v-.658h-.196l-2.142.21V58zm1.302 0h2.072c-.042-1.61-.042-3.234-.042-5.026v-.434c0-1.68 0-3.318.042-4.9H43.68c.042 1.61.042 3.22.042 4.9v.434c0 1.82 0 3.458-.042 5.026zm1.036 0h1.876c3.444 0 5.53-1.974 5.53-5.194 0-3.234-1.974-5.166-5.306-5.166h-2.1v.504h1.904c2.184 0 3.444 1.624 3.444 4.676 0 2.94-1.26 4.69-3.528 4.69h-1.82V58zm-2.338-9.898l2.142.182h.196v-.644h-2.338v.462zM55.21 58h2.338v-.658h-.196l-2.142.21V58zm1.302 0h2.072c-.042-1.61-.042-3.234-.042-5.026v-.392c0-1.722 0-3.36.042-4.942h-2.072c.042 1.61.042 3.22.042 4.858v.658c0 1.638 0 3.276-.042 4.844zm1.036 0h5.74l.014-2.772h-.714l-.686 2.73 1.008-.476h-5.36V58zm0-5.026h3.444v-.49H57.55v.49zm3.29 1.414h.63V51h-.63l-.21 1.54v.294l.21 1.554zm-5.628-6.286l2.142.182h.196v-.644H55.21v.462zm7.084 2.226h.742l-.014-2.688H57.55v.532h5.068l-.98-.504.658 2.66z" fill="#fff"/><path stroke="#fff" stroke-linecap="round" d="M4.5 5.5h4m2 0h4m51 70h4m2 0h4"/><defs><linearGradient id="paint0_linear_850_628" x1="40" y1="0" x2="40" y2="80" gradientUnits="userSpaceOnUse"><stop offset=".099" stop-color="#0B2B3C" stop-opacity=".96"/><stop offset=".349" stop-color="#092533"/></linearGradient></defs></svg>