<svg width="230" height="185" fill="none" xmlns="http://www.w3.org/2000/svg"><path d="M28.68 167.87c0 3.54-1.55 6.39-4.66 8.55-2.32 1.61-5.83 2.94-10.52 4-.16.05-.32.07-.48.07-.57 0-1.07-.21-1.48-.62-.41-.41-.62-.92-.62-1.52 0-1.17.58-1.87 1.72-2.11 3.49-.71 6.12-1.59 7.86-2.62 2.37-1.42 3.55-3.22 3.55-5.38 0-1.4-.52-2.46-1.57-3.17S20.05 164 18.32 164c-1.84 0-4.32.48-7.45 1.45-2.6.8-5.14 1.77-7.62 2.9-.3.14-.6.21-.9.21-.6 0-1.1-.21-1.52-.64-.41-.43-.62-.94-.62-1.53 0-.99.45-1.66 1.34-2 7.61-2.97 13.37-4.45 17.28-4.45 3.15 0 5.62.82 7.41 2.45 1.61 1.47 2.41 3.3 2.41 5.48h.03zm36.138 9.03c0 2.99-1.29 4.96-3.86 5.9-2.23.83-5.46 1.24-9.69 1.24-2.23 0-3.85-.28-4.86-.83-1.17-.64-1.76-1.73-1.76-3.28 0-.97.03-1.66.1-2.07-.46.6-1.29.9-2.48.9-1.31 0-2.39-.41-3.24-1.24-.97-.92-1.45-2.18-1.45-3.79 0-2 .53-3.64 1.59-4.92 1.06-1.28 2.48-1.91 4.28-1.91.74 0 1.3.23 1.69.69l.24-3.86-4.79.72a1.87 1.87 0 01-1.55-.43 1.82 1.82 0 01-.69-1.47c0-.48.17-.91.52-1.28.34-.37.76-.57 1.24-.62 2.07-.21 3.91-.49 5.52-.86.09-1.56.15-2.92.18-4.07.02-.58.23-1.06.64-1.45.4-.39.89-.59 1.46-.59s1.1.22 1.52.67c.42.45.6.97.55 1.57l-.21 2.69c.78-.25 1.51-.52 2.17-.79.23-.09.47-.14.72-.14.58 0 1.05.2 1.43.59.38.39.57.86.57 1.41 0 .92-.44 1.54-1.31 1.86-1.31.48-2.61.9-3.9 1.24l-.45 6.45c-.3 4.37-.45 7.24-.45 8.62 0 1.01.32 1.63.97 1.86.39.16 1.34.24 2.86.24 3.2 0 5.44-.35 6.72-1.03.92-.48 1.38-1.47 1.38-2.97 0-.41-.06-1.03-.17-1.86-.09-.64.07-1.21.48-1.69s.94-.72 1.59-.72c.51 0 .96.17 1.36.5.4.34.65.74.74 1.23.23 1.22.34 2.38.34 3.48v.01zm-19.83-5.03c-.02-.39-.16-.77-.41-1.14-.32-.48-.76-.72-1.31-.72-.62 0-1.13.29-1.53.88-.4.58-.6 1.33-.6 2.22 0 1.5.59 2.24 1.76 2.24.69 0 1.22-.32 1.6-.97.38-.65.55-1.48.5-2.52l-.01.01zm21.76-5.35c0 .58-.2 1.06-.6 1.47-.4.4-.89.6-1.46.6-.71 0-1.29-.31-1.72-.93-.76-1.1-1.58-2.17-2.45-3.21a2.02 2.02 0 01-.48-1.31c0-.55.19-1.03.59-1.43.4-.4.86-.6 1.42-.6.6 0 1.09.22 1.48.66 1.26 1.38 2.23 2.58 2.9 3.59.23.34.34.74.34 1.17l-.02-.01zm33.863-1.14c0 .51-.17.93-.52 1.28-.35.34-.76.53-1.24.55-1.5.05-3.06.18-4.69.41a62.4 62.4 0 004 5.83c.32.41.48.91.48 1.48 0 .67-.24 1.24-.71 1.72s-1.04.72-1.71.72c-.39 0-.86-.1-1.41-.31-.46-.18-.92-.36-1.38-.52-1.98-.64-3.87-.97-5.69-.97-3.29 0-4.93.84-4.93 2.52 0 1.82 2.86 2.73 8.59 2.73.32 0 .75-.01 1.28-.03.55-.02 1.02.15 1.4.53.38.38.57.83.57 1.36 0 .53-.18.98-.53 1.34-.36.37-.79.56-1.29.59-.57.02-1.19.03-1.86.03-8.16 0-12.24-2.14-12.24-6.41 0-1.82.8-3.28 2.41-4.38 1.54-1.04 3.53-1.55 5.96-1.55 2.28 0 4.48.37 6.62 1.1-1.08-1.49-2.21-3.21-3.38-5.14-2.87.57-5.32 1.25-7.34 2.03-.23.09-.46.14-.69.14-.51 0-.95-.19-1.33-.57-.38-.38-.57-.82-.57-1.33 0-.97.46-1.57 1.38-1.83 2.25-.62 4.5-1.15 6.73-1.59-.32-.58-.8-1.46-1.45-2.66-2.32.28-4.72.34-7.21.21-.48-.02-.89-.21-1.22-.55-.33-.34-.5-.76-.5-1.24 0-.53.19-.98.59-1.34.39-.37.85-.53 1.38-.48 1.72.14 3.49.14 5.31 0-.44-.97-.81-1.82-1.14-2.55-.11-.28-.17-.54-.17-.79 0-.55.19-1.02.59-1.41.39-.39.86-.59 1.41-.59.94 0 1.58.44 1.9 1.31.48 1.29.95 2.45 1.41 3.48 1.47-.3 2.74-.7 3.79-1.21.25-.11.53-.17.83-.17.51 0 .94.18 1.29.55.36.37.53.8.53 1.31 0 .87-.4 1.46-1.21 1.76-1.17.44-2.4.79-3.69 1.07.37.71.83 1.59 1.38 2.62 2.5-.44 4.61-.72 6.31-.86.51-.04.96.12 1.36.48.4.37.6.81.6 1.31v.02zm.83-6.41c0 .41-.14.78-.43 1.09-.29.31-.65.47-1.08.47-.55 0-.99-.25-1.31-.76-.51-.78-1.17-1.65-2-2.62-.23-.28-.34-.59-.34-.93 0-.41.14-.76.41-1.05.27-.29.62-.43 1.03-.43.44 0 .79.15 1.07.45 1.03 1.15 1.83 2.1 2.38 2.86.18.25.28.56.28.93l-.01-.01zm3.9-2.48c0 .44-.16.8-.46 1.1-.31.3-.69.45-1.12.45-.53 0-.96-.23-1.28-.69-.44-.64-1.13-1.47-2.07-2.48-.25-.28-.38-.63-.38-1.07 0-.41.14-.77.43-1.07.29-.3.64-.45 1.05-.45.41 0 .77.15 1.07.45.73.71 1.54 1.66 2.41 2.83.23.3.35.61.35.93zm19.718-36.74c32.922 0 59.61-26.689 59.61-59.61 0-32.922-26.688-59.61-59.61-59.61-32.921 0-59.61 26.688-59.61 59.61 0 32.921 26.689 59.61 59.61 59.61z" fill="#052432"/><path d="M125.059 12.03c26.57 0 48.11 21.54 48.11 48.11s-21.54 48.11-48.11 48.11" stroke="#548A88" stroke-width="23.43" stroke-miterlimit="10"/><path d="M136.039 178.22c0 .41-.08.77-.25 1.08-1.01 1.9-2.27 3.3-3.79 4.19-1.61.96-3.67 1.44-6.17 1.44-3.82 0-6.79-1.26-8.88-3.77-2.09-2.51-3.14-6.07-3.14-10.67s1.11-7.9 3.32-10.49 5.15-3.88 8.81-3.88c4.5 0 7.71 1.77 9.64 5.31.17.31.25.69.25 1.12 0 .65-.23 1.2-.69 1.66-.46.46-1.01.69-1.66.69-.96 0-1.66-.43-2.09-1.3-1.13-2.21-2.95-3.32-5.45-3.32-2.12 0-3.83.8-5.13 2.38-1.44 1.81-2.17 4.42-2.17 7.83s.69 6.08 2.06 7.84c1.25 1.61 2.98 2.42 5.2 2.42 2.62 0 4.51-1.19 5.67-3.57.41-.87 1.12-1.3 2.13-1.3.65 0 1.2.23 1.66.69.46.46.69 1.01.69 1.66l-.01-.01zm33-7.73c0 4.45-1.08 7.98-3.25 10.56-2.17 2.59-5.15 3.88-8.95 3.88-3.8 0-6.79-1.29-8.96-3.88-2.17-2.59-3.25-6.11-3.25-10.56s1.08-7.96 3.25-10.52c2.17-2.56 5.15-3.85 8.96-3.85 3.81 0 6.79 1.28 8.95 3.85 2.17 2.56 3.25 6.07 3.25 10.52zm-4.87 0c0-3.47-.7-6.08-2.09-7.83-1.28-1.59-3.02-2.38-5.24-2.38s-3.96.8-5.24 2.38c-1.4 1.76-2.09 4.37-2.09 7.83s.7 6.08 2.09 7.84c1.27 1.61 3.02 2.42 5.24 2.42s3.96-.8 5.24-2.42c1.4-1.76 2.09-4.37 2.09-7.84zm36.352 0c0 4.33-1.07 7.76-3.2 10.29-2.13 2.53-4.94 3.79-8.43 3.79h-6.64c-2.4 0-3.61-1.2-3.61-3.61v-20.91c0-2.41 1.2-3.61 3.61-3.61h6.64c3.49 0 6.3 1.26 8.43 3.79 2.13 2.53 3.2 5.95 3.2 10.25v.01zm-4.91 0c0-3.22-.76-5.73-2.27-7.51-1.3-1.54-2.91-2.31-4.84-2.31h-4.19c-.6 0-.9.3-.9.9v17.95c0 .6.3.9.9.9h4.19c1.9 0 3.51-.8 4.84-2.38 1.51-1.8 2.27-4.32 2.27-7.55zm34.161 11.95c0 .6-.21 1.11-.63 1.52-.42.41-.92.61-1.5.61h-13.86c-2.4 0-3.61-1.2-3.61-3.61v-20.91c0-2.41 1.2-3.61 3.61-3.61h13.86c.58 0 1.08.21 1.5.61.42.41.63.9.63 1.48s-.21 1.11-.63 1.52c-.42.41-.92.61-1.5.61h-11.77c-.6 0-.9.3-.9.9v6.17h10.94c.58 0 1.08.21 1.5.61.42.41.63.92.63 1.52s-.21 1.11-.63 1.52c-.42.41-.92.61-1.5.61h-10.94v7.4c0 .6.3.9.9.9h11.77c.58 0 1.08.2 1.5.62.42.41.63.91.63 1.51v.02z" fill="#052432"/></svg>