<svg width="512" height="512" fill="none" xmlns="http://www.w3.org/2000/svg"><path fill="#092533" d="M0 0h512v512H0z"/><path d="M108.087 136h-15.2V78.88h33.76v12.4h-18.56v10.88h17.12v12.4h-17.12V136zm52.645-45.04c5.6 0 9.973 1.387 13.12 4.16 3.146 2.773 4.72 6.72 4.72 11.84V136h-10.56l-2.96-5.84h-.32c-1.227 1.547-2.507 2.827-3.84 3.84-1.28.96-2.774 1.653-4.48 2.08-1.707.48-3.787.72-6.24.72-2.56 0-4.854-.507-6.88-1.52-2.027-1.067-3.627-2.64-4.8-4.72-1.174-2.133-1.76-4.827-1.76-8.08 0-4.747 1.626-8.267 4.88-10.56 3.306-2.293 8.08-3.573 14.32-3.84l7.36-.24v-.64c0-1.973-.48-3.36-1.44-4.16-.96-.853-2.267-1.28-3.92-1.28-1.76 0-3.707.32-5.84.96a47.374 47.374 0 00-6.48 2.32l-4.4-10.08c2.56-1.333 5.44-2.32 8.64-2.96 3.253-.693 6.88-1.04 10.88-1.04zm-.88 25.44c-2.774.107-4.747.613-5.92 1.52-1.12.853-1.68 2.08-1.68 3.68 0 1.493.4 2.613 1.2 3.36.8.693 1.866 1.04 3.2 1.04 1.866 0 3.44-.587 4.72-1.76 1.333-1.173 2-2.693 2-4.56v-3.44l-3.52.16zm44.723 19.6l-16.88-44.24h15.92l7.52 26.16c.054.16.134.507.24 1.04.107.48.214 1.04.32 1.68a9.79 9.79 0 01.16 1.76h.24c0-.587.027-1.147.08-1.68.107-.587.214-1.12.32-1.6.16-.48.267-.853.32-1.12l7.84-26.24h15.92L219.695 136h-15.12zm56.667-44.24V136h-15.28V91.76h15.28zm-7.6-17.84c2.186 0 4.08.453 5.68 1.36 1.653.907 2.48 2.72 2.48 5.44 0 2.613-.827 4.4-2.48 5.36-1.6.907-3.494 1.36-5.68 1.36-2.24 0-4.16-.453-5.76-1.36-1.547-.96-2.32-2.747-2.32-5.36 0-2.72.773-4.533 2.32-5.44 1.6-.907 3.52-1.36 5.76-1.36zm42.415 62.88c-4.48 0-8.373-.8-11.68-2.4-3.306-1.6-5.866-4.08-7.68-7.44-1.813-3.36-2.72-7.653-2.72-12.88 0-5.387 1.014-9.76 3.04-13.12 2.027-3.413 4.774-5.92 8.24-7.52 3.52-1.653 7.52-2.48 12-2.48 2.72 0 5.28.293 7.68.88 2.454.587 4.72 1.413 6.8 2.48l-4.48 11.28c-1.813-.8-3.52-1.44-5.12-1.92a16.366 16.366 0 00-4.88-.72c-1.546 0-2.906.4-4.08 1.2-1.173.8-2.08 2.027-2.72 3.68-.64 1.6-.96 3.653-.96 6.16 0 2.56.32 4.613.96 6.16.694 1.547 1.627 2.693 2.8 3.44 1.174.693 2.534 1.04 4.08 1.04 2.187 0 4.374-.347 6.56-1.04a27.06 27.06 0 006.32-2.88v12.16c-1.813 1.173-3.866 2.133-6.16 2.88-2.293.693-4.96 1.04-8 1.04zm69.205-23.04c0 3.68-.506 6.96-1.52 9.84-1.013 2.88-2.48 5.307-4.4 7.28-1.92 1.92-4.24 3.387-6.96 4.4-2.72 1.013-5.813 1.52-9.28 1.52-3.2 0-6.16-.507-8.88-1.52-2.666-1.013-4.986-2.48-6.96-4.4-1.92-1.973-3.44-4.4-4.56-7.28-1.066-2.88-1.6-6.16-1.6-9.84 0-4.907.88-9.04 2.64-12.4 1.814-3.413 4.374-6 7.68-7.76 3.307-1.76 7.28-2.64 11.92-2.64 4.267 0 8.027.88 11.28 2.64 3.307 1.76 5.894 4.347 7.76 7.76 1.92 3.36 2.88 7.493 2.88 12.4zm-28.64 0c0 2.507.214 4.64.64 6.4.427 1.76 1.12 3.093 2.08 4 1.014.853 2.32 1.28 3.92 1.28s2.854-.427 3.76-1.28c.96-.907 1.654-2.24 2.08-4 .427-1.76.64-3.893.64-6.4 0-2.507-.213-4.613-.64-6.32-.426-1.707-1.12-2.987-2.08-3.84-.96-.853-2.24-1.28-3.84-1.28-2.293 0-3.973.96-5.04 2.88-1.013 1.92-1.52 4.773-1.52 8.56zm69.018-22.8c4.586 0 8.32 1.28 11.2 3.84 2.88 2.56 4.32 6.693 4.32 12.4V136h-15.28v-24.16c0-2.933-.427-5.147-1.28-6.64-.854-1.493-2.214-2.24-4.08-2.24-2.88 0-4.827 1.173-5.84 3.52-.96 2.347-1.44 5.733-1.44 10.16V136h-15.28V91.76h11.52l2.08 5.84h.56a15.1 15.1 0 013.36-3.52 14.891 14.891 0 014.48-2.32c1.706-.533 3.6-.8 5.68-.8zM184.697 202.122v3.434h15.266v-3.434h-15.266zm0 6.698v3.434h15.266v-3.434h-15.266zm-.442 6.834v3.706h17.238v-3.706h-17.238zm6.63-18.326v19.414h3.774v-19.414h-3.774zm2.142-8.126c-.612 2.55-1.836 5.984-2.958 8.194l3.502.884c1.122-2.04 2.584-5.236 3.774-8.194l-4.318-.884zm-7.786-.136c-1.258 4.692-3.502 9.248-6.324 12.07.782.884 2.074 2.754 2.584 3.604 3.264-3.502 6.018-9.112 7.65-14.688l-3.91-.986zm1.666 6.29h-1.904l-2.006 2.006v23.664h3.91v-22.1h13.94v-3.57h-13.94zm-17.612 11.152l.85 3.978c3.128-.85 7.072-1.938 10.778-3.026l-.476-3.604c-4.046 1.02-8.296 2.074-11.152 2.652zm.68-10.914v3.74h10.506v-3.74h-10.506zm4.012-6.426v27.302c0 .476-.17.646-.612.646-.442 0-1.836 0-3.162-.068.51 1.122 1.02 2.89 1.156 3.978 2.312 0 3.944-.136 5.066-.816 1.122-.646 1.462-1.734 1.462-3.74v-27.302h-3.91zm32.028 21.148v3.366h30.6v-3.366h-30.6zm12.886-2.856c-.544 6.188-1.666 8.976-13.668 10.166.714.85 1.564 2.448 1.87 3.468 13.396-1.666 15.334-5.78 16.082-13.634h-4.284zm4.896 4.318l-3.808.408c2.516 5.916 6.562 8.228 15.13 8.874.442-1.156 1.462-2.856 2.312-3.774-7.582-.17-11.764-1.564-13.634-5.508zm-7.106-12.682v2.992h20.196v-2.992h-20.196zm-10.88-6.63c.986 1.768 1.972 4.114 2.312 5.61l3.162-1.394c-.408-1.462-1.496-3.74-2.516-5.44l-2.958 1.224zm11.56 2.176c.782 1.36 1.598 3.196 1.87 4.352l3.026-1.122c-.306-1.156-1.19-2.924-2.04-4.216l-2.856.986zm5.542-.612c.714 1.428 1.394 3.264 1.564 4.42l3.162-.952c-.238-1.19-.952-2.958-1.768-4.318l-2.958.85zm-4.352 9.112c1.258 1.258 2.618 3.026 3.162 4.25l3.06-1.7c-.612-1.224-2.04-2.924-3.366-4.08l-2.856 1.53zm-6.8-14.008v19.992h3.774v-19.992h-3.774zm17.408 8.636v7.378c0 .374-.136.442-.578.476-.442.034-2.04.034-3.366-.034.476.85 1.054 2.176 1.224 3.128 2.176 0 3.774-.034 4.998-.51 1.224-.476 1.598-1.258 1.598-2.958v-7.48h-3.876zm2.958-5.406c-.884 1.496-2.482 3.536-3.774 4.828l2.788 1.394c1.292-1.19 2.924-2.924 4.42-4.658l-3.434-1.564zm-26.792 10.846l1.598 3.468a276.448 276.448 0 006.8-4.08l-1.054-3.094c-2.72 1.428-5.474 2.856-7.344 3.706zm27.37-14.11c-3.842.85-10.438 1.462-16.116 1.7.34.714.748 1.972.85 2.754 5.882-.17 12.886-.714 17.782-1.836l-2.516-2.618zm32.742 13.906v-8.908c0-1.36.136-2.448.204-3.128h-4.862c.136.646.204 1.768.204 3.128v9.044c0 8.364-2.856 11.322-9.452 13.6l3.638 3.434c8.228-3.638 10.268-8.772 10.268-17.17zm-12.308-11.764h-4.828c.136 1.054.204 2.108.204 3.06v12.172c0 1.53-.102 2.924-.17 3.57h4.76c-.068-.646-.17-2.04-.17-3.57v-12.138c0-1.36.136-2.448.204-3.094zm-11.186 6.12v4.624c.782-.034 1.972-.102 3.672-.102h22.338c1.768 0 2.992 0 3.74.102v-4.522c-.952.136-1.972.238-3.774.238h-22.304c-1.666 0-3.06-.238-3.672-.34zm35.87 7.446l2.108 4.284c5.372-1.598 10.88-4.148 14.722-6.426 4.012-2.414 8.16-5.61 11.254-8.738l-3.672-3.468c-2.21 2.686-6.086 6.086-9.554 8.228-3.808 2.346-8.772 4.556-14.858 6.12zm14.144-3.91v14.178c0 1.496-.136 3.638-.272 4.454h5.406c-.238-.85-.306-2.958-.306-4.454v-15.334l-4.828 1.156zm44.53-11.152l-2.686 1.088c.918 1.394 1.938 3.332 2.652 4.726l2.72-1.156c-.544-1.19-1.802-3.366-2.686-4.658zm4.284-1.19l-2.686 1.088c.884 1.292 2.006 3.264 2.72 4.692l2.72-1.156c-.612-1.19-1.87-3.366-2.754-4.624zm-2.754 7.242l-2.754-2.074c-.714.238-2.04.442-3.536.442h-12.002c-.986 0-3.094-.136-4.012-.272v4.862c.748-.068 2.618-.238 4.012-.238h11.56c-.782 2.414-2.856 5.78-5.1 8.33-3.196 3.57-8.432 7.684-13.94 9.758l3.536 3.672c5.27-2.516 10.404-6.732 14.212-11.118 2.924-3.4 5.44-8.024 6.834-11.254.306-.714.918-1.734 1.19-2.108zm-7.582 10.54l-3.196 3.162c3.638 3.298 7.344 7.344 9.86 10.846l3.876-3.366c-2.21-2.72-7.038-7.786-10.54-10.642zm-242.797 41.75c1.36 0 2.595.306 3.706.918 1.11.612 1.995 1.496 2.652 2.652.657 1.156.986 2.573.986 4.25 0 1.813-.363 3.355-1.088 4.624-.725 1.247-1.813 2.199-3.264 2.856-1.45.635-3.287.952-5.508.952-1.405 0-2.686-.113-3.842-.34-1.156-.227-2.187-.555-3.094-.986v-5.372c.861.385 1.893.737 3.094 1.054 1.201.317 2.3.476 3.298.476.816 0 1.496-.113 2.04-.34.567-.227.997-.567 1.292-1.02.295-.476.442-1.043.442-1.7 0-.929-.34-1.655-1.02-2.176-.657-.521-1.655-.782-2.992-.782-.612 0-1.213.068-1.802.204-.567.113-1.077.238-1.53.374l-2.414-1.19.918-12.818H93.36v5.474h-8.262l-.306 3.196 1.088-.204c.385-.068.975-.102 1.768-.102zM113.894 264h-6.664v-13.226c0-.589.011-1.247.034-1.972a225.4 225.4 0 01.068-1.938c-.295.34-.567.635-.816.884a6.794 6.794 0 01-.714.68l-2.754 2.278-3.4-4.182 8.33-6.8h5.916V264zm24.614 0h-17.612v-4.318l5.916-5.984a125.23 125.23 0 002.856-3.094c.702-.771 1.19-1.428 1.462-1.972a3.756 3.756 0 00.408-1.7c0-.725-.238-1.247-.714-1.564-.454-.317-.998-.476-1.632-.476-.771 0-1.542.215-2.312.646-.771.431-1.655 1.077-2.652 1.938l-3.604-4.216a26.79 26.79 0 012.312-1.87c.838-.589 1.813-1.065 2.924-1.428 1.11-.385 2.47-.578 4.08-.578 1.654 0 3.082.295 4.284.884 1.201.567 2.13 1.349 2.788 2.346.68.997 1.02 2.131 1.02 3.4 0 1.043-.148 2.006-.442 2.89-.272.861-.703 1.7-1.292 2.516-.567.816-1.292 1.666-2.176 2.55a82.814 82.814 0 01-3.026 2.856l-1.768 1.598v.17h9.18V264zm14.652-25.84l-.646 5.848 5.916-1.666.612 4.896-5.202.34 3.434 4.624-4.318 2.278-2.38-4.692-2.04 4.658-4.522-2.244 3.434-4.624-5.202-.408.748-4.828 5.78 1.666-.646-5.848h5.032zm19.315 9.928c1.36 0 2.596.306 3.706.918 1.111.612 1.995 1.496 2.652 2.652.658 1.156.986 2.573.986 4.25 0 1.813-.362 3.355-1.088 4.624-.725 1.247-1.813 2.199-3.264 2.856-1.45.635-3.286.952-5.508.952-1.405 0-2.686-.113-3.842-.34-1.156-.227-2.187-.555-3.094-.986v-5.372c.862.385 1.893.737 3.094 1.054 1.202.317 2.301.476 3.298.476.816 0 1.496-.113 2.04-.34.567-.227.998-.567 1.292-1.02.295-.476.442-1.043.442-1.7 0-.929-.34-1.655-1.02-2.176-.657-.521-1.654-.782-2.992-.782-.612 0-1.212.068-1.802.204-.566.113-1.076.238-1.53.374l-2.414-1.19.918-12.818h13.838v5.474h-8.262l-.306 3.196 1.088-.204c.386-.068.975-.102 1.768-.102zM198.721 264h-6.664v-13.226c0-.589.012-1.247.034-1.972.023-.725.046-1.371.068-1.938-.294.34-.566.635-.816.884a6.604 6.604 0 01-.714.68l-2.754 2.278-3.4-4.182 8.33-6.8h5.916V264zm24.614 0h-17.612v-4.318l5.916-5.984a125.23 125.23 0 002.856-3.094c.703-.771 1.19-1.428 1.462-1.972a3.756 3.756 0 00.408-1.7c0-.725-.238-1.247-.714-1.564-.453-.317-.997-.476-1.632-.476-.771 0-1.541.215-2.312.646-.771.431-1.655 1.077-2.652 1.938l-3.604-4.216a26.79 26.79 0 012.312-1.87c.839-.589 1.813-1.065 2.924-1.428 1.111-.385 2.471-.578 4.08-.578 1.655 0 3.083.295 4.284.884 1.201.567 2.131 1.349 2.788 2.346.68.997 1.02 2.131 1.02 3.4 0 1.043-.147 2.006-.442 2.89-.272.861-.703 1.7-1.292 2.516-.567.816-1.292 1.666-2.176 2.55a82.002 82.002 0 01-3.026 2.856l-1.768 1.598v.17h9.18V264zm33.718-9.452c0 1.564-.215 2.958-.646 4.182-.431 1.224-1.054 2.255-1.87 3.094-.816.816-1.802 1.439-2.958 1.87-1.156.431-2.471.646-3.944.646-1.36 0-2.618-.215-3.774-.646a8.55 8.55 0 01-2.958-1.87c-.816-.839-1.462-1.87-1.938-3.094-.453-1.224-.68-2.618-.68-4.182 0-2.085.374-3.842 1.122-5.27.771-1.451 1.859-2.55 3.264-3.298 1.405-.748 3.094-1.122 5.066-1.122 1.813 0 3.411.374 4.794 1.122 1.405.748 2.505 1.847 3.298 3.298.816 1.428 1.224 3.185 1.224 5.27zm-12.172 0c0 1.065.091 1.972.272 2.72.181.748.476 1.315.884 1.7.431.363.986.544 1.666.544.68 0 1.213-.181 1.598-.544.408-.385.703-.952.884-1.7.181-.748.272-1.655.272-2.72 0-1.065-.091-1.961-.272-2.686-.181-.725-.476-1.269-.884-1.632-.408-.363-.952-.544-1.632-.544-.975 0-1.689.408-2.142 1.224-.431.816-.646 2.029-.646 3.638zm28.924-9.69c.363 0 .737.023 1.122.068.386.045.669.091.85.136l-.578 6.12c-.226-.045-.51-.091-.85-.136-.317-.045-.77-.068-1.36-.068-.408 0-.85.045-1.326.136a3.753 3.753 0 00-1.326.476c-.408.249-.748.623-1.02 1.122-.249.499-.374 1.179-.374 2.04V264h-6.494v-18.802h4.828l1.02 2.992h.306a6.613 6.613 0 011.326-1.666 6.362 6.362 0 011.802-1.224 5.168 5.168 0 012.074-.442zM291.843 264l8.33-18.836h-10.506v-5.44h17.51v3.876l-8.534 20.4h-6.8zm36.888-12.104c0 1.949-.159 3.695-.476 5.236-.295 1.519-.793 2.822-1.496 3.91a6.81 6.81 0 01-2.686 2.448c-1.111.567-2.482.85-4.114.85-2.017 0-3.683-.499-4.998-1.496-1.292-.997-2.244-2.425-2.856-4.284-.612-1.859-.918-4.08-.918-6.664 0-2.629.272-4.873.816-6.732.567-1.859 1.496-3.287 2.788-4.284 1.292-.997 3.015-1.496 5.168-1.496 2.017 0 3.672.499 4.964 1.496 1.292.975 2.244 2.403 2.856 4.284.635 1.859.952 4.103.952 6.732zm-11.016 0c0 1.587.057 2.913.17 3.978.136 1.065.363 1.87.68 2.414.317.544.782.816 1.394.816.612 0 1.077-.261 1.394-.782.317-.544.533-1.349.646-2.414.136-1.088.204-2.425.204-4.012 0-1.609-.068-2.947-.204-4.012-.113-1.088-.329-1.904-.646-2.448s-.782-.816-1.394-.816c-.612 0-1.077.272-1.394.816-.317.544-.544 1.36-.68 2.448-.113 1.065-.17 2.403-.17 4.012zm32.638 0c0 1.949-.159 3.695-.476 5.236-.295 1.519-.794 2.822-1.496 3.91a6.817 6.817 0 01-2.686 2.448c-1.111.567-2.482.85-4.114.85-2.018 0-3.684-.499-4.998-1.496-1.292-.997-2.244-2.425-2.856-4.284-.612-1.859-.918-4.08-.918-6.664 0-2.629.272-4.873.816-6.732.566-1.859 1.496-3.287 2.788-4.284 1.292-.997 3.014-1.496 5.168-1.496 2.017 0 3.672.499 4.964 1.496 1.292.975 2.244 2.403 2.856 4.284.634 1.859.952 4.103.952 6.732zm-11.016 0c0 1.587.056 2.913.17 3.978.136 1.065.362 1.87.68 2.414.317.544.782.816 1.394.816.612 0 1.076-.261 1.394-.782.317-.544.532-1.349.646-2.414.136-1.088.204-2.425.204-4.012 0-1.609-.068-2.947-.204-4.012-.114-1.088-.329-1.904-.646-2.448-.318-.544-.782-.816-1.394-.816-.612 0-1.077.272-1.394.816-.318.544-.544 1.36-.68 2.448-.114 1.065-.17 2.403-.17 4.012zm25.566-13.736l-.646 5.848 5.916-1.666.612 4.896-5.202.34 3.434 4.624-4.318 2.278-2.38-4.692-2.04 4.658-4.522-2.244 3.434-4.624-5.202-.408.748-4.828 5.78 1.666-.646-5.848h5.032zM376.67 264l8.33-18.836h-10.506v-5.44h17.51v3.876L383.47 264h-6.8zm36.888-12.104c0 1.949-.158 3.695-.476 5.236-.294 1.519-.793 2.822-1.496 3.91a6.81 6.81 0 01-2.686 2.448c-1.11.567-2.482.85-4.114.85-2.017 0-3.683-.499-4.998-1.496-1.292-.997-2.244-2.425-2.856-4.284-.612-1.859-.918-4.08-.918-6.664 0-2.629.272-4.873.816-6.732.567-1.859 1.496-3.287 2.788-4.284 1.292-.997 3.015-1.496 5.168-1.496 2.018 0 3.672.499 4.964 1.496 1.292.975 2.244 2.403 2.856 4.284.635 1.859.952 4.103.952 6.732zm-11.016 0c0 1.587.057 2.913.17 3.978.136 1.065.363 1.87.68 2.414.318.544.782.816 1.394.816.612 0 1.077-.261 1.394-.782.318-.544.533-1.349.646-2.414.136-1.088.204-2.425.204-4.012 0-1.609-.068-2.947-.204-4.012-.113-1.088-.328-1.904-.646-2.448-.317-.544-.782-.816-1.394-.816-.612 0-1.076.272-1.394.816-.317.544-.544 1.36-.68 2.448-.113 1.065-.17 2.403-.17 4.012zm32.638 0c0 1.949-.159 3.695-.476 5.236-.295 1.519-.793 2.822-1.496 3.91a6.81 6.81 0 01-2.686 2.448c-1.111.567-2.482.85-4.114.85-2.017 0-3.683-.499-4.998-1.496-1.292-.997-2.244-2.425-2.856-4.284-.612-1.859-.918-4.08-.918-6.664 0-2.629.272-4.873.816-6.732.567-1.859 1.496-3.287 2.788-4.284 1.292-.997 3.015-1.496 5.168-1.496 2.017 0 3.672.499 4.964 1.496 1.292.975 2.244 2.403 2.856 4.284.635 1.859.952 4.103.952 6.732zm-11.016 0c0 1.587.057 2.913.17 3.978.136 1.065.363 1.87.68 2.414.317.544.782.816 1.394.816.612 0 1.077-.261 1.394-.782.317-.544.533-1.349.646-2.414.136-1.088.204-2.425.204-4.012 0-1.609-.068-2.947-.204-4.012-.113-1.088-.329-1.904-.646-2.448s-.782-.816-1.394-.816c-.612 0-1.077.272-1.394.816-.317.544-.544 1.36-.68 2.448-.113 1.065-.17 2.403-.17 4.012zM330.96 454.04l1.14 2.82c2.1-.92 6.82-2.9 9.78-2.9 2.4 0 3.7 1.42 3.7 3.3 0 3.5-4.26 5.06-9.68 5.18l1.18 2.66c7.04-.36 11.36-3.26 11.36-7.78 0-3.7-2.86-5.78-6.46-5.78-2.94 0-7.02 1.42-8.54 1.9-.74.22-1.74.48-2.48.6zm27.92-5.2h-2.8c.16.56.22 1.24.22 2.5v5.1l2.4.94c0-1.34-.02-5.08 0-6.04 0-1.2.08-1.94.18-2.5zm6.72 1.84l-1.68 1.66c1.16.82 3.04 2.66 4.14 4l1.8-1.84c-.9-1.08-3-3.04-4.26-3.82zm-13.14.56l.14 2.34c1.32.14 2.42.18 3.26.18 1.46 0 4.08-.2 6.4-.72v-2.42c-2.28.64-4.58.9-6.58.9-.92 0-2.12-.12-3.22-.28zm5.8 9.3l-2.46.72c0 .54-.04 1.3-.04 2 0 1.4.2 2.88 4.88 2.88 1.36 0 3.44-.16 4.34-.44 2.3-.7 2.86-1.84 2.96-3.64.04-.84.02-1.3.02-2.36l-2.76-.82c.12.92.14 1.68.14 2.46 0 1.02-.42 1.7-1.46 2.02-.76.22-2.06.36-3.06.36-2.38 0-2.6-.44-2.6-1.3 0-.62.02-1.46.04-1.88zm1.02-2.3c0-1.84-1.02-3.14-3.08-3.14-2.16 0-3.7 1.78-3.7 4.16 0 2.56 1.5 3.58 2.96 3.58 2.74 0 3.82-2.26 3.82-4.6zm-3.58 2.22c-.56 0-1.1-.52-1.1-1.4 0-1.16.66-1.96 1.46-1.96.56 0 .92.46.92 1.24 0 1.14-.34 2.12-1.28 2.12zm31.64-11.78l-1.46.6c.62.9 1.04 1.68 1.54 2.78l1.52-.68c-.38-.78-1.1-2-1.6-2.7zm2.22-.92l-1.46.68c.64.86 1.1 1.62 1.64 2.7l1.5-.72c-.42-.78-1.18-1.96-1.68-2.66zm-15.12 2.98l.12 2.3c3.04.28 5.8.28 7.88.12 1.74-.14 3.02-.4 4.06-.66l-.32-2.28c-1.04.32-2.44.62-4.26.76-2.12.16-4.56.1-7.48-.24zm-.36 4.2l.12 2.34c3.62.24 7.5.2 10.04-.08 1.62-.2 3.08-.46 4.28-.76l-.38-2.38c-1.16.34-2.68.74-4.82.94-2.4.24-5.64.28-9.24-.06zm6.66-3.64c.26.98.48 1.7.96 3.1.52 1.46 1.24 3.2 2.32 4.98-.6-.04-1.68-.14-2.52-.22l-.2 1.9c1.46.16 3.62.4 4.74.64l1.22-1.84c-.36-.34-.64-.64-.9-1.04-.92-1.4-1.92-3.46-2.38-4.84-.54-1.56-1.02-3.32-1.26-5.22l-2.68.28c.28.78.5 1.52.7 2.26zm-2.84 8.28l-2.48-.48c-.46.94-.9 1.92-.86 3.22.04 2.84 2.52 4.04 6.52 4.04 1.64 0 3.48-.16 4.88-.38l.14-2.54c-1.44.28-3.14.44-5.02.44-2.66 0-4.06-.62-4.06-2.08 0-.86.4-1.56.88-2.22zm22.9-5.9c-.453 0-.86.1-1.22.3-.36.187-.666.467-.92.84-.253.36-.446.8-.58 1.32-.133.52-.2 1.113-.2 1.78 0 .893.114 1.647.34 2.26.227.613.574 1.08 1.04 1.4.467.307 1.054.46 1.76.46.627 0 1.234-.087 1.82-.26.6-.173 1.2-.387 1.8-.64v3.26c-.626.28-1.273.48-1.94.6-.653.133-1.353.2-2.1.2-1.546 0-2.813-.307-3.8-.92a5.468 5.468 0 01-2.18-2.56c-.466-1.107-.7-2.38-.7-3.82 0-1.08.147-2.067.44-2.96.307-.907.754-1.687 1.34-2.34a5.876 5.876 0 012.16-1.54c.867-.36 1.86-.54 2.98-.54.694 0 1.42.08 2.18.24.76.16 1.507.413 2.24.76l-1.18 3.04a10.49 10.49 0 00-1.58-.62 5.475 5.475 0 00-1.7-.26zm20.598 4.16c0 1.107-.133 2.113-.4 3.02-.267.893-.68 1.667-1.24 2.32-.56.653-1.28 1.153-2.16 1.5-.867.347-1.913.52-3.14.52-1.2 0-2.24-.173-3.12-.52-.867-.347-1.587-.847-2.16-1.5-.56-.653-.98-1.427-1.26-2.32-.267-.907-.4-1.92-.4-3.04 0-1.48.247-2.767.74-3.86a5.46 5.46 0 012.28-2.56c1.027-.6 2.34-.9 3.94-.9 1.627 0 2.947.307 3.96.92a5.248 5.248 0 012.24 2.56c.48 1.093.72 2.38.72 3.86zm-9.82 0c0 .853.093 1.593.28 2.22.2.613.513 1.087.94 1.42.427.333.98.5 1.66.5.707 0 1.267-.167 1.68-.5.427-.333.733-.807.92-1.42.187-.627.28-1.367.28-2.22 0-1.293-.213-2.313-.64-3.06-.427-.747-1.167-1.12-2.22-1.12-.693 0-1.253.173-1.68.52-.427.333-.74.813-.94 1.44-.187.613-.28 1.353-.28 2.22zm25.518-.28c0 1.653-.314 3.033-.94 4.14a5.845 5.845 0 01-2.6 2.48c-1.12.547-2.44.82-3.96.82h-4.62v-14.28h4.94c1.533 0 2.833.267 3.9.8 1.066.52 1.88 1.287 2.44 2.3s.84 2.26.84 3.74zm-4 .14c0-.867-.12-1.587-.36-2.16-.227-.573-.574-1-1.04-1.28-.454-.28-1.034-.42-1.74-.42h-1.12v8h.86c1.173 0 2.033-.34 2.58-1.02.546-.68.82-1.72.82-3.12zm16.047 7.3h-8.48v-14.28h8.48v3.1h-4.62v2.24h4.28v3.1h-4.28v2.7h4.62V465zM34.146 362.96c0 .813-.02 1.5-.06 2.06-.04.56-.073.987-.1 1.28h.18c.24-.387.507-.693.8-.92a2.858 2.858 0 011.02-.48c.373-.107.78-.16 1.22-.16.733 0 1.393.14 1.98.42.587.28 1.053.72 1.4 1.32.36.587.54 1.36.54 2.32v7.2h-3.84v-6.04c0-.733-.107-1.287-.32-1.66-.214-.373-.547-.56-1-.56-.453 0-.813.133-1.08.4-.267.267-.46.653-.58 1.16-.107.493-.16 1.107-.16 1.84V376h-3.82v-15.2h3.82v2.16zm15.998 10.22c.347 0 .66-.033.94-.1.294-.08.594-.173.9-.28v2.78a9.59 9.59 0 01-1.32.44c-.466.12-1.06.18-1.78.18s-1.353-.113-1.9-.34c-.533-.227-.953-.613-1.26-1.16-.306-.56-.46-1.34-.46-2.34v-4.56h-1.34v-1.56l1.7-1.2.98-2.32h2.5v2.22h2.72v2.86h-2.72v4.3c0 .36.087.633.26.82.187.173.447.26.78.26zm10.2 0c.346 0 .66-.033.94-.1.293-.08.593-.173.9-.28v2.78c-.414.173-.854.32-1.32.44-.467.12-1.06.18-1.78.18s-1.354-.113-1.9-.34c-.534-.227-.954-.613-1.26-1.16-.307-.56-.46-1.34-.46-2.34v-4.56h-1.34v-1.56l1.7-1.2.98-2.32h2.5v2.22h2.72v2.86h-2.72v4.3c0 .36.086.633.26.82.186.173.446.26.78.26zm11.539-8.44c1.226 0 2.186.493 2.88 1.48.693.973 1.04 2.38 1.04 4.22 0 1.253-.18 2.313-.54 3.18-.347.853-.827 1.5-1.44 1.94-.6.427-1.287.64-2.06.64-.52 0-.96-.067-1.32-.2a3.339 3.339 0 01-.9-.48c-.24-.2-.44-.4-.6-.6h-.12c.026.253.053.527.08.82.026.293.04.633.04 1.02v4.04h-3.82v-15.86h3.1l.54 1.4h.18c.186-.293.406-.56.66-.8.266-.24.586-.433.96-.58.373-.147.813-.22 1.32-.22zm-1.44 3c-.374 0-.667.093-.88.28-.214.173-.367.433-.46.78-.094.347-.147.787-.16 1.32v.3c0 .587.04 1.08.12 1.48.093.4.253.707.48.92.226.2.533.3.92.3.32 0 .586-.087.8-.26.226-.187.393-.48.5-.88.106-.4.16-.927.16-1.58 0-.973-.127-1.66-.38-2.06-.254-.4-.62-.6-1.1-.6zm16.751 4.86c0 .693-.16 1.313-.48 1.86-.306.547-.806.973-1.5 1.28-.68.307-1.58.46-2.7.46-.786 0-1.493-.047-2.12-.14a8.478 8.478 0 01-1.88-.48v-3.06c.707.32 1.42.553 2.14.7.72.133 1.287.2 1.7.2.427 0 .74-.047.94-.14.2-.093.3-.233.3-.42a.55.55 0 00-.2-.42c-.133-.12-.373-.253-.72-.4a52.87 52.87 0 00-1.44-.6 7.835 7.835 0 01-1.54-.82c-.4-.307-.7-.667-.9-1.08-.2-.427-.3-.94-.3-1.54 0-1.08.414-1.893 1.24-2.44.84-.547 1.947-.82 3.32-.82.734 0 1.42.08 2.06.24.64.16 1.307.393 2 .7l-1.04 2.46a8.179 8.179 0 00-1.12-.44 9.761 9.761 0 00-1.06-.28c-.32-.067-.593-.1-.82-.1-.293 0-.526.04-.7.12-.16.08-.24.193-.24.34 0 .133.054.253.16.36.12.107.34.227.66.36l1.4.58c.64.253 1.167.533 1.58.84.427.293.74.653.94 1.08.214.413.32.947.32 1.6zm2.632 1.78c0-.693.2-1.18.6-1.46.414-.28.907-.42 1.48-.42.547 0 1.014.14 1.4.42.4.28.6.767.6 1.46 0 .653-.2 1.127-.6 1.42-.386.293-.853.44-1.4.44-.573 0-1.066-.147-1.48-.44-.4-.293-.6-.767-.6-1.42zm0-7.72c0-.68.2-1.16.6-1.44.414-.28.907-.42 1.48-.42.547 0 1.014.14 1.4.42.4.28.6.76.6 1.44 0 .667-.2 1.147-.6 1.44-.386.293-.853.44-1.4.44-.573 0-1.066-.147-1.48-.44-.4-.293-.6-.773-.6-1.44zm14.742-5.14l-5.32 14.68h-3.38l5.32-14.68h3.38zm9.847 0l-5.32 14.68h-3.38l5.32-14.68h3.38zm7.768 3.22c1.4 0 2.493.347 3.28 1.04.787.693 1.18 1.68 1.18 2.96V376h-2.64l-.74-1.46h-.08a5.442 5.442 0 01-.96.96c-.32.24-.693.413-1.12.52-.427.12-.947.18-1.56.18-.64 0-1.213-.127-1.72-.38a2.919 2.919 0 01-1.2-1.18c-.293-.533-.44-1.207-.44-2.02 0-1.187.407-2.067 1.22-2.64.827-.573 2.02-.893 3.58-.96l1.84-.06v-.16c0-.493-.12-.84-.36-1.04-.24-.213-.567-.32-.98-.32-.44 0-.927.08-1.46.24-.533.147-1.073.34-1.62.58l-1.1-2.52c.64-.333 1.36-.58 2.16-.74.813-.173 1.72-.26 2.72-.26zm-.22 6.36c-.693.027-1.187.153-1.48.38-.28.213-.42.52-.42.92 0 .373.1.653.3.84.2.173.467.26.8.26.467 0 .86-.147 1.18-.44.333-.293.5-.673.5-1.14v-.86l-.88.04zm18.841-.66c0 .92-.127 1.74-.38 2.46-.254.72-.62 1.327-1.1 1.82-.48.48-1.06.847-1.74 1.1-.68.253-1.454.38-2.32.38-.8 0-1.54-.127-2.22-.38a5.012 5.012 0 01-1.74-1.1c-.48-.493-.86-1.1-1.14-1.82-.267-.72-.4-1.54-.4-2.46 0-1.227.22-2.26.66-3.1a4.568 4.568 0 011.92-1.94c.826-.44 1.82-.66 2.98-.66 1.066 0 2.006.22 2.82.66a4.698 4.698 0 011.94 1.94c.48.84.72 1.873.72 3.1zm-7.16 0c0 .627.053 1.16.16 1.6.106.44.28.773.52 1 .253.213.58.32.98.32s.713-.107.94-.32c.24-.227.413-.56.52-1 .106-.44.16-.973.16-1.6 0-.627-.054-1.153-.16-1.58-.107-.427-.28-.747-.52-.96-.24-.213-.56-.32-.96-.32-.574 0-.994.24-1.26.72-.254.48-.38 1.193-.38 2.14zm9.434 1.72v-3.04h5.52v3.04h-5.52zm16.487.44c0 .693-.16 1.313-.48 1.86-.306.547-.806.973-1.5 1.28-.68.307-1.58.46-2.7.46-.786 0-1.493-.047-2.12-.14a8.482 8.482 0 01-1.88-.48v-3.06c.707.32 1.42.553 2.14.7.72.133 1.287.2 1.7.2.427 0 .74-.047.94-.14.2-.093.3-.233.3-.42 0-.16-.066-.3-.2-.42-.133-.12-.373-.253-.72-.4a52.064 52.064 0 00-1.44-.6 7.864 7.864 0 01-1.54-.82c-.4-.307-.7-.667-.9-1.08-.2-.427-.3-.94-.3-1.54 0-1.08.414-1.893 1.24-2.44.84-.547 1.947-.82 3.32-.82.734 0 1.42.08 2.06.24.64.16 1.307.393 2 .7l-1.04 2.46a8.164 8.164 0 00-1.12-.44 9.701 9.701 0 00-1.06-.28c-.32-.067-.593-.1-.82-.1-.293 0-.526.04-.7.12-.16.08-.24.193-.24.34 0 .133.054.253.16.36.12.107.34.227.66.36l1.4.58c.64.253 1.167.533 1.58.84.427.293.74.653.94 1.08.214.413.32.947.32 1.6zm1.772-7.66h4.02l1.88 6.34c.027.093.054.207.08.34.027.133.047.273.06.42.027.147.04.293.04.44h.08c.027-.267.06-.493.1-.68.054-.2.1-.367.14-.5l1.92-6.36h3.9l-4.38 11.76c-.333.893-.726 1.647-1.18 2.26a4.187 4.187 0 01-1.64 1.38c-.653.307-1.466.46-2.44.46-.346 0-.646-.02-.9-.06a6.503 6.503 0 01-.66-.1v-3c.147.027.32.053.52.08.214.027.434.04.66.04.427 0 .767-.087 1.02-.26.267-.173.487-.4.66-.68.174-.267.32-.56.44-.88l.04-.1-4.36-10.9zm22.767 7.66c0 .693-.16 1.313-.48 1.86-.306.547-.806.973-1.5 1.28-.68.307-1.58.46-2.7.46-.786 0-1.493-.047-2.12-.14a8.482 8.482 0 01-1.88-.48v-3.06c.707.32 1.42.553 2.14.7.72.133 1.287.2 1.7.2.427 0 .74-.047.94-.14.2-.093.3-.233.3-.42 0-.16-.066-.3-.2-.42-.133-.12-.373-.253-.72-.4a52.064 52.064 0 00-1.44-.6 7.864 7.864 0 01-1.54-.82c-.4-.307-.7-.667-.9-1.08-.2-.427-.3-.94-.3-1.54 0-1.08.414-1.893 1.24-2.44.84-.547 1.947-.82 3.32-.82.734 0 1.42.08 2.06.24.64.16 1.307.393 2 .7l-1.04 2.46a8.164 8.164 0 00-1.12-.44 9.701 9.701 0 00-1.06-.28c-.32-.067-.593-.1-.82-.1-.293 0-.526.04-.7.12-.16.08-.24.193-.24.34 0 .133.054.253.16.36.12.107.34.227.66.36l1.4.58c.64.253 1.167.533 1.58.84.427.293.74.653.94 1.08.214.413.32.947.32 1.6zm8.532.58c.347 0 .66-.033.94-.1.294-.08.594-.173.9-.28v2.78a9.59 9.59 0 01-1.32.44c-.466.12-1.06.18-1.78.18s-1.353-.113-1.9-.34c-.533-.227-.953-.613-1.26-1.16-.306-.56-.46-1.34-.46-2.34v-4.56h-1.34v-1.56l1.7-1.2.98-2.32h2.5v2.22h2.72v2.86h-2.72v4.3c0 .36.087.633.26.82.187.173.447.26.78.26zm9.76-8.44c1.08 0 2.006.187 2.78.56a3.932 3.932 0 011.8 1.68c.426.747.64 1.687.64 2.82v1.7h-6.82c.026.573.24 1.047.64 1.42.413.373 1.006.56 1.78.56a8.42 8.42 0 001.9-.2 8.74 8.74 0 001.78-.64v2.74c-.534.28-1.12.487-1.76.62-.627.133-1.42.2-2.38.2-1.12 0-2.12-.193-3-.58a4.623 4.623 0 01-2.06-1.86c-.507-.84-.76-1.913-.76-3.22 0-1.333.226-2.427.68-3.28.466-.853 1.106-1.487 1.92-1.9.826-.413 1.78-.62 2.86-.62zm.14 2.6c-.454 0-.834.14-1.14.42-.294.28-.467.727-.52 1.34h3.28c0-.333-.067-.627-.2-.88-.12-.267-.3-.48-.54-.64-.24-.16-.534-.24-.88-.24zm21.743-2.6c1.267 0 2.233.32 2.9.96.667.64 1 1.673 1 3.1v7.2h-3.82v-6.02c0-.84-.113-1.42-.34-1.74-.227-.333-.56-.5-1-.5-.613 0-1.04.273-1.28.82-.24.533-.36 1.293-.36 2.28V376h-3.82v-6.02c0-.533-.047-.96-.14-1.28-.093-.333-.233-.573-.42-.72-.187-.16-.427-.24-.72-.24-.44 0-.787.133-1.04.4-.24.267-.407.653-.5 1.16-.093.507-.14 1.127-.14 1.86V376h-3.82v-11.06h2.88l.56 1.36h.1c.2-.307.453-.573.76-.8.307-.24.673-.427 1.1-.56.427-.133.913-.2 1.46-.2.813 0 1.48.14 2 .42.533.267.967.64 1.3 1.12h.12a3.476 3.476 0 011.34-1.14c.56-.267 1.187-.4 1.88-.4zm7.02 9.64c0-.693.2-1.18.6-1.46.413-.28.907-.42 1.48-.42.547 0 1.013.14 1.4.42.4.28.6.767.6 1.46 0 .653-.2 1.127-.6 1.42-.387.293-.853.44-1.4.44-.573 0-1.067-.147-1.48-.44-.4-.293-.6-.767-.6-1.42zm14.181-9.64c1.147 0 2.08.32 2.8.96.72.64 1.08 1.673 1.08 3.1v7.2h-3.82v-6.04c0-.733-.106-1.287-.32-1.66-.213-.373-.553-.56-1.02-.56-.72 0-1.206.293-1.46.88-.24.587-.36 1.433-.36 2.54V376h-3.82v-11.06h2.88l.52 1.46h.14a3.768 3.768 0 011.96-1.46c.427-.133.9-.2 1.42-.2zm12.459 0c1.08 0 2.006.187 2.78.56a3.932 3.932 0 011.8 1.68c.426.747.64 1.687.64 2.82v1.7h-6.82c.026.573.24 1.047.64 1.42.413.373 1.006.56 1.78.56a8.42 8.42 0 001.9-.2 8.74 8.74 0 001.78-.64v2.74c-.534.28-1.12.487-1.76.62-.627.133-1.42.2-2.38.2-1.12 0-2.12-.193-3-.58a4.623 4.623 0 01-2.06-1.86c-.507-.84-.76-1.913-.76-3.22 0-1.333.226-2.427.68-3.28.466-.853 1.106-1.487 1.92-1.9.826-.413 1.78-.62 2.86-.62zm.14 2.6c-.454 0-.834.14-1.14.42-.294.28-.467.727-.52 1.34h3.28c0-.333-.067-.627-.2-.88-.12-.267-.3-.48-.54-.64-.24-.16-.534-.24-.88-.24zm13.663 5.84c.347 0 .66-.033.94-.1.293-.08.593-.173.9-.28v2.78a9.59 9.59 0 01-1.32.44c-.467.12-1.06.18-1.78.18s-1.353-.113-1.9-.34c-.533-.227-.953-.613-1.26-1.16-.307-.56-.46-1.34-.46-2.34v-4.56h-1.34v-1.56l1.7-1.2.98-2.32h2.5v2.22h2.72v2.86h-2.72v4.3c0 .36.087.633.26.82.187.173.447.26.78.26zm12.259-11.66l-5.32 14.68h-3.38l5.32-14.68h3.38zm9.128 6.28h-2.36v8.2h-3.82v-8.2h-1.46v-1.88l1.54-.94v-.18c0-.96.126-1.74.38-2.34.253-.6.653-1.04 1.2-1.32.56-.293 1.286-.44 2.18-.44a8.01 8.01 0 011.56.14c.466.08.953.207 1.46.38l-.82 2.48a5.94 5.94 0 00-.64-.14 4.273 4.273 0 00-.74-.06c-.294 0-.507.093-.64.28-.134.173-.2.46-.2.86v.3h2.36v2.86zm7.902-3.06c1.4 0 2.493.347 3.28 1.04.786.693 1.18 1.68 1.18 2.96V376h-2.64l-.74-1.46h-.08a5.442 5.442 0 01-.96.96c-.32.24-.694.413-1.12.52-.427.12-.947.18-1.56.18-.64 0-1.214-.127-1.72-.38a2.919 2.919 0 01-1.2-1.18c-.294-.533-.44-1.207-.44-2.02 0-1.187.406-2.067 1.22-2.64.826-.573 2.02-.893 3.58-.96l1.84-.06v-.16c0-.493-.12-.84-.36-1.04-.24-.213-.567-.32-.98-.32-.44 0-.927.08-1.46.24a11.83 11.83 0 00-1.62.58l-1.1-2.52c.64-.333 1.36-.58 2.16-.74.813-.173 1.72-.26 2.72-.26zm-.22 6.36c-.694.027-1.187.153-1.48.38-.28.213-.42.52-.42.92 0 .373.1.653.3.84.2.173.466.26.8.26.466 0 .86-.147 1.18-.44.333-.293.5-.673.5-1.14v-.86l-.88.04zm11.18 4.9l-4.22-11.06h3.98l1.88 6.54a2.4 2.4 0 01.06.26c.027.12.054.26.08.42.027.147.04.293.04.44h.06c0-.147.007-.287.02-.42.027-.147.054-.28.08-.4.04-.12.067-.213.08-.28l1.96-6.56h3.98l-4.22 11.06h-3.78zm14.167-11.06V376h-3.82v-11.06h3.82zm-1.9-4.46c.547 0 1.02.113 1.42.34.413.227.62.68.62 1.36 0 .653-.207 1.1-.62 1.34-.4.227-.873.34-1.42.34-.56 0-1.04-.113-1.44-.34-.387-.24-.58-.687-.58-1.34 0-.68.193-1.133.58-1.36.4-.227.88-.34 1.44-.34zm10.604 15.72c-1.12 0-2.093-.2-2.92-.6-.827-.4-1.467-1.02-1.92-1.86-.453-.84-.68-1.913-.68-3.22 0-1.347.253-2.44.76-3.28.507-.853 1.193-1.48 2.06-1.88.88-.413 1.88-.62 3-.62.68 0 1.32.073 1.92.22.613.147 1.18.353 1.7.62l-1.12 2.82c-.453-.2-.88-.36-1.28-.48a4.093 4.093 0 00-1.22-.18c-.387 0-.727.1-1.02.3-.293.2-.52.507-.68.92-.16.4-.24.913-.24 1.54 0 .64.08 1.153.24 1.54.173.387.407.673.7.86.293.173.633.26 1.02.26a5.41 5.41 0 001.64-.26 6.74 6.74 0 001.58-.72v3.04a6.582 6.582 0 01-1.54.72c-.573.173-1.24.26-2 .26zm17.301-5.76c0 .92-.126 1.74-.38 2.46-.253.72-.62 1.327-1.1 1.82-.48.48-1.06.847-1.74 1.1-.68.253-1.453.38-2.32.38-.8 0-1.54-.127-2.22-.38a5.03 5.03 0 01-1.74-1.1c-.48-.493-.86-1.1-1.14-1.82-.266-.72-.4-1.54-.4-2.46 0-1.227.22-2.26.66-3.1a4.579 4.579 0 011.92-1.94c.827-.44 1.82-.66 2.98-.66 1.067 0 2.007.22 2.82.66a4.687 4.687 0 011.94 1.94c.48.84.72 1.873.72 3.1zm-7.16 0c0 .627.054 1.16.16 1.6.107.44.28.773.52 1 .254.213.58.32.98.32s.714-.107.94-.32c.24-.227.414-.56.52-1 .107-.44.16-.973.16-1.6 0-.627-.053-1.153-.16-1.58-.106-.427-.28-.747-.52-.96-.24-.213-.56-.32-.96-.32-.573 0-.993.24-1.26.72-.253.48-.38 1.193-.38 2.14zm17.255-5.7c1.146 0 2.08.32 2.8.96.72.64 1.08 1.673 1.08 3.1v7.2h-3.82v-6.04c0-.733-.107-1.287-.32-1.66-.214-.373-.554-.56-1.02-.56-.72 0-1.207.293-1.46.88-.24.587-.36 1.433-.36 2.54V376h-3.82v-11.06h2.88l.52 1.46h.14a3.768 3.768 0 011.96-1.46c.426-.133.9-.2 1.42-.2zm11.018 0c.773 0 1.393.153 1.86.46.48.293.867.66 1.16 1.1h.08l.28-1.36h3.3v11.08c0 1.04-.213 1.913-.64 2.62-.427.707-1.08 1.24-1.96 1.6-.867.373-1.967.56-3.3.56-.893 0-1.68-.047-2.36-.14a8.798 8.798 0 01-1.96-.5v-3.18c.453.187.88.34 1.28.46.4.133.827.227 1.28.28.453.067.967.1 1.54.1.773 0 1.347-.14 1.72-.42.387-.28.58-.687.58-1.22v-.2c0-.173.007-.38.02-.62.027-.24.06-.493.1-.76h-.12c-.253.44-.613.82-1.08 1.14-.467.307-1.08.46-1.84.46-1.173 0-2.127-.487-2.86-1.46-.733-.973-1.1-2.393-1.1-4.26 0-1.253.167-2.3.5-3.14.347-.853.82-1.5 1.42-1.94a3.51 3.51 0 012.1-.66zm1.44 2.96c-.347 0-.64.107-.88.32-.24.213-.42.533-.54.96-.107.413-.16.933-.16 1.56 0 .96.133 1.653.4 2.08.267.413.68.62 1.24.62.307 0 .567-.047.78-.14a1.24 1.24 0 00.5-.44c.133-.2.227-.447.28-.74.067-.293.1-.64.1-1.04v-.46c0-.573-.053-1.06-.16-1.46-.093-.413-.267-.727-.52-.94-.24-.213-.587-.32-1.04-.32zm13.852-2.96c1.08 0 2.006.187 2.78.56a3.932 3.932 0 011.8 1.68c.426.747.64 1.687.64 2.82v1.7h-6.82c.026.573.24 1.047.64 1.42.413.373 1.006.56 1.78.56a8.42 8.42 0 001.9-.2 8.74 8.74 0 001.78-.64v2.74c-.534.28-1.12.487-1.76.62-.627.133-1.42.2-2.38.2-1.12 0-2.12-.193-3-.58a4.623 4.623 0 01-2.06-1.86c-.507-.84-.76-1.913-.76-3.22 0-1.333.226-2.427.68-3.28.466-.853 1.106-1.487 1.92-1.9.826-.413 1.78-.62 2.86-.62zm.14 2.6c-.454 0-.834.14-1.14.42-.294.28-.467.727-.52 1.34h3.28c0-.333-.067-.627-.2-.88-.12-.267-.3-.48-.54-.64-.24-.16-.534-.24-.88-.24zm15.163-2.6c1.147 0 2.08.32 2.8.96.72.64 1.08 1.673 1.08 3.1v7.2h-3.82v-6.04c0-.733-.107-1.287-.32-1.66-.213-.373-.553-.56-1.02-.56-.72 0-1.207.293-1.46.88-.24.587-.36 1.433-.36 2.54V376h-3.82v-11.06h2.88l.52 1.46h.14a3.768 3.768 0 011.96-1.46c.427-.133.9-.2 1.42-.2zm12.458 0c1.08 0 2.007.187 2.78.56a3.922 3.922 0 011.8 1.68c.427.747.64 1.687.64 2.82v1.7h-6.82c.027.573.24 1.047.64 1.42.414.373 1.007.56 1.78.56.694 0 1.327-.067 1.9-.2a8.697 8.697 0 001.78-.64v2.74c-.533.28-1.12.487-1.76.62-.626.133-1.42.2-2.38.2-1.12 0-2.12-.193-3-.58a4.633 4.633 0 01-2.06-1.86c-.506-.84-.76-1.913-.76-3.22 0-1.333.227-2.427.68-3.28.467-.853 1.107-1.487 1.92-1.9.827-.413 1.78-.62 2.86-.62zm.14 2.6c-.453 0-.833.14-1.14.42-.293.28-.466.727-.52 1.34h3.28c0-.333-.066-.627-.2-.88-.12-.267-.3-.48-.54-.64-.24-.16-.533-.24-.88-.24zm14.924-2.6c.213 0 .433.013.66.04.226.027.393.053.5.08l-.34 3.6a6 6 0 00-1.3-.12c-.24 0-.5.027-.78.08a2.19 2.19 0 00-.78.28c-.24.147-.44.367-.6.66-.147.293-.22.693-.22 1.2V376h-3.82v-11.06h2.84l.6 1.76h.18c.2-.36.46-.687.78-.98.32-.307.673-.547 1.06-.72.4-.173.806-.26 1.22-.26zm8.704 0c1.4 0 2.493.347 3.28 1.04.787.693 1.18 1.68 1.18 2.96V376h-2.64l-.74-1.46h-.08a5.442 5.442 0 01-.96.96c-.32.24-.693.413-1.12.52-.427.12-.947.18-1.56.18-.64 0-1.213-.127-1.72-.38a2.919 2.919 0 01-1.2-1.18c-.293-.533-.44-1.207-.44-2.02 0-1.187.407-2.067 1.22-2.64.827-.573 2.02-.893 3.58-.96l1.84-.06v-.16c0-.493-.12-.84-.36-1.04-.24-.213-.567-.32-.98-.32-.44 0-.927.08-1.46.24-.533.147-1.073.34-1.62.58l-1.1-2.52c.64-.333 1.36-.58 2.16-.74.813-.173 1.72-.26 2.72-.26zm-.22 6.36c-.693.027-1.187.153-1.48.38-.28.213-.42.52-.42.92 0 .373.1.653.3.84.2.173.467.26.8.26.467 0 .86-.147 1.18-.44.333-.293.5-.673.5-1.14v-.86l-.88.04zm13.701 2.08c.347 0 .66-.033.94-.1.293-.08.593-.173.9-.28v2.78a9.59 9.59 0 01-1.32.44c-.467.12-1.06.18-1.78.18s-1.353-.113-1.9-.34c-.533-.227-.953-.613-1.26-1.16-.307-.56-.46-1.34-.46-2.34v-4.56h-1.34v-1.56l1.7-1.2.98-2.32h2.5v2.22h2.72v2.86h-2.72v4.3c0 .36.087.633.26.82.187.173.447.26.78.26zm15.339-2.74c0 .92-.127 1.74-.38 2.46s-.62 1.327-1.1 1.82c-.48.48-1.06.847-1.74 1.1-.68.253-1.453.38-2.32.38-.8 0-1.54-.127-2.22-.38a5.012 5.012 0 01-1.74-1.1c-.48-.493-.86-1.1-1.14-1.82-.267-.72-.4-1.54-.4-2.46 0-1.227.22-2.26.66-3.1a4.568 4.568 0 011.92-1.94c.827-.44 1.82-.66 2.98-.66 1.067 0 2.007.22 2.82.66a4.692 4.692 0 011.94 1.94c.48.84.72 1.873.72 3.1zm-7.16 0c0 .627.053 1.16.16 1.6.107.44.28.773.52 1 .253.213.58.32.98.32s.713-.107.94-.32c.24-.227.413-.56.52-1 .107-.44.16-.973.16-1.6 0-.627-.053-1.153-.16-1.58-.107-.427-.28-.747-.52-.96-.24-.213-.56-.32-.96-.32-.573 0-.993.24-1.26.72-.253.48-.38 1.193-.38 2.14zm17.014-5.7c.214 0 .434.013.66.04.227.027.394.053.5.08l-.34 3.6a5.98 5.98 0 00-1.3-.12c-.24 0-.5.027-.78.08-.266.04-.526.133-.78.28-.24.147-.44.367-.6.66-.146.293-.22.693-.22 1.2V376h-3.82v-11.06h2.84l.6 1.76h.18c.2-.36.46-.687.78-.98.32-.307.674-.547 1.06-.72.4-.173.807-.26 1.22-.26zm11.175-3.22l-5.32 14.68h-3.38l5.32-14.68h3.38zm-337.05-42.72h-2.36v8.2h-3.82v-8.2h-1.46v-1.88l1.54-.94v-.18c0-.96.127-1.74.38-2.34.254-.6.654-1.04 1.2-1.32.56-.293 1.287-.44 2.18-.44.574 0 1.094.047 1.56.14.467.08.954.207 1.46.38l-.82 2.48c-.186-.053-.4-.1-.64-.14a4.257 4.257 0 00-.74-.06c-.293 0-.506.093-.64.28-.133.173-.2.46-.2.86v.3h2.36v2.86zm7.902-3.06c1.4 0 2.493.347 3.28 1.04.787.693 1.18 1.68 1.18 2.96V327h-2.64l-.74-1.46h-.08a5.442 5.442 0 01-.96.96c-.32.24-.693.413-1.12.52-.427.12-.947.18-1.56.18-.64 0-1.213-.127-1.72-.38a2.919 2.919 0 01-1.2-1.18c-.293-.533-.44-1.207-.44-2.02 0-1.187.407-2.067 1.22-2.64.827-.573 2.02-.893 3.58-.96l1.84-.06v-.16c0-.493-.12-.84-.36-1.04-.24-.213-.567-.32-.98-.32-.44 0-.927.08-1.46.24-.533.147-1.073.34-1.62.58l-1.1-2.52c.64-.333 1.36-.58 2.16-.74.813-.173 1.72-.26 2.72-.26zm-.22 6.36c-.693.027-1.187.153-1.48.38-.28.213-.42.52-.42.92 0 .373.1.653.3.84.2.173.467.26.8.26.467 0 .86-.147 1.18-.44.333-.293.5-.673.5-1.14v-.86l-.88.04zm11.181 4.9l-4.22-11.06h3.98l1.88 6.54a8.104 8.104 0 01.14.68c.027.147.04.293.04.44h.06c0-.147.007-.287.02-.42.027-.147.053-.28.08-.4.04-.12.067-.213.08-.28l1.96-6.56h3.98l-4.22 11.06h-3.78zm14.167-11.06V327h-3.82v-11.06h3.82zm-1.9-4.46c.546 0 1.02.113 1.42.34.413.227.62.68.62 1.36 0 .653-.207 1.1-.62 1.34-.4.227-.874.34-1.42.34-.56 0-1.04-.113-1.44-.34-.387-.24-.58-.687-.58-1.34 0-.68.193-1.133.58-1.36.4-.227.88-.34 1.44-.34zm10.604 15.72c-1.12 0-2.094-.2-2.92-.6-.827-.4-1.467-1.02-1.92-1.86-.454-.84-.68-1.913-.68-3.22 0-1.347.253-2.44.76-3.28.506-.853 1.193-1.48 2.06-1.88.88-.413 1.88-.62 3-.62.68 0 1.32.073 1.92.22.613.147 1.18.353 1.7.62l-1.12 2.82c-.454-.2-.88-.36-1.28-.48a4.097 4.097 0 00-1.22-.18c-.387 0-.727.1-1.02.3-.294.2-.52.507-.68.92-.16.4-.24.913-.24 1.54 0 .64.08 1.153.24 1.54.173.387.406.673.7.86.293.173.633.26 1.02.26.546 0 1.093-.087 1.64-.26a6.759 6.759 0 001.58-.72v3.04a6.602 6.602 0 01-1.54.72c-.574.173-1.24.26-2 .26zm17.301-5.76c0 .92-.127 1.74-.38 2.46-.254.72-.62 1.327-1.1 1.82-.48.48-1.06.847-1.74 1.1-.68.253-1.454.38-2.32.38-.8 0-1.54-.127-2.22-.38a5.012 5.012 0 01-1.74-1.1c-.48-.493-.86-1.1-1.14-1.82-.267-.72-.4-1.54-.4-2.46 0-1.227.22-2.26.66-3.1a4.568 4.568 0 011.92-1.94c.826-.44 1.82-.66 2.98-.66 1.066 0 2.006.22 2.82.66a4.698 4.698 0 011.94 1.94c.48.84.72 1.873.72 3.1zm-7.16 0c0 .627.053 1.16.16 1.6.106.44.28.773.52 1 .253.213.58.32.98.32s.713-.107.94-.32c.24-.227.413-.56.52-1 .106-.44.16-.973.16-1.6 0-.627-.054-1.153-.16-1.58-.107-.427-.28-.747-.52-.96-.24-.213-.56-.32-.96-.32-.574 0-.994.24-1.26.72-.254.48-.38 1.193-.38 2.14zm17.254-5.7c1.147 0 2.08.32 2.8.96.72.64 1.08 1.673 1.08 3.1v7.2h-3.82v-6.04c0-.733-.107-1.287-.32-1.66-.213-.373-.553-.56-1.02-.56-.72 0-1.207.293-1.46.88-.24.587-.36 1.433-.36 2.54V327h-3.82v-11.06h2.88l.52 1.46h.14a3.768 3.768 0 011.96-1.46c.427-.133.9-.2 1.42-.2zm20.739-4.08l-1.68.68c.74 1.04 1.18 1.9 1.78 3.16l1.72-.76c-.44-.92-1.26-2.24-1.82-3.08zm2.76-.98l-1.7.72c.74 1 1.22 1.78 1.86 3.04l1.72-.76c-.48-.88-1.26-2.2-1.88-3zm-11.44.58l-1.46 2.2c1.32.74 3.42 2.1 4.52 2.88l1.5-2.22c-1.04-.72-3.24-2.14-4.56-2.86zm-3.7 14.2l1.5 2.64c1.76-.32 4.64-1.32 6.66-2.48 3.28-1.88 6.1-4.42 7.96-7.18l-1.54-2.72c-1.6 2.86-4.38 5.6-7.78 7.5-2.18 1.2-4.58 1.86-6.8 2.24zm.62-9.64l-1.46 2.22c1.36.7 3.42 2.06 4.56 2.84l1.46-2.24c-1.02-.72-3.22-2.1-4.56-2.82zm22.1.36v2.5c.44-.04 1.16-.06 1.6-.06h9.14c.46 0 1.06.02 1.56.06v-2.5c-.48.06-1.06.1-1.56.1h-9.14c-.44 0-1.16-.04-1.6-.1zm4.7 10.22h2.62v-8.86h-2.62v8.86zm-5.7-1.48v2.62c.52-.06 1.14-.08 1.64-.08h11.04c.36 0 1.1.02 1.52.08v-2.62c-.42.06-.96.12-1.52.12h-11.04c-.52 0-1.14-.04-1.64-.12zm29.62-14.24h-2.86c.08.48.1 1.2.1 1.84v2.22h2.62v-2.22c0-.62.06-1.38.14-1.84zm5.58 4.28l-1.66-1.6c-.46.12-1.04.18-1.66.18h-8.48c-.68 0-1.8-.02-2.56-.12v2.62c.64-.06 1.9-.1 2.62-.1h7.24c-.6.82-1.84 2-3.38 2.98-1.72 1.12-4.28 2.5-8.14 3.36l1.54 2.36c3.1-.94 6.16-2.26 8.32-3.8 1.82-1.28 3.5-2.94 4.62-4.22.42-.48 1.04-1.14 1.54-1.66zm-5.76 4.36l-2.6 1.08v5.2c0 .78-.08 1.98-.14 2.54h2.86c-.06-.62-.12-1.76-.12-2.54v-6.28zm6.06 5.5l1.66-2.2c-1.92-1.3-2.96-1.9-4.8-2.88l-1.64 1.9c1.72.98 3.04 1.82 4.78 3.18zm7.48 1.4l1.88 1.64c.48-.32.92-.46 1.18-.54 4.72-1.54 8.88-3.94 11.62-7.2l-1.42-2.28c-2.56 3.14-7.02 5.7-10.28 6.62v-10.4c0-.76.08-1.5.18-2.26h-3.14c.12.56.24 1.52.24 2.26v10.86c0 .46-.04.8-.26 1.3zm18.92-8.48v3.16c.76-.06 2.1-.12 3.22-.12h10.76c.84 0 1.86.1 2.34.12v-3.16c-.54.04-1.42.14-2.36.14h-10.74c-1.04 0-2.48-.08-3.22-.14zm27.74-.1l-1.78 1.82c2.34 1.48 6.14 4.28 7.88 5.92l1.92-2.28c-1.86-1.48-5.56-4.04-8.02-5.46zm9.42-3.4l-2.04-1.26c-.46.14-1.12.24-1.74.24h-5.7l-.92 2.26h6.76c-.38 1.56-1.62 3.86-2.96 5.44-1.72 2-4.1 4.1-8.28 5.4l2.32 2c3.82-1.44 6.38-3.68 8.26-6.02 1.8-2.22 3.02-4.78 3.62-6.62.18-.5.44-1.06.68-1.44zm-6.62-3.08l-2.9-.9c-.18.7-.6 1.62-.9 2.1-1.02 1.74-2.86 4.48-6.36 6.64l2.14 1.66c2.88-1.98 5.44-5.04 6.78-7.46.24-.42.76-1.34 1.24-2.04zm11.46 6.58v3.16c.76-.06 2.1-.12 3.22-.12h10.76c.84 0 1.86.1 2.34.12v-3.16c-.54.04-1.42.14-2.36.14h-10.74c-1.04 0-2.48-.08-3.22-.14z" fill="#fff" fill-opacity=".77"/></svg>