<svg width="600" height="450" fill="none" xmlns="http://www.w3.org/2000/svg"><path fill="#092533" d="M0 0h600v450H0z"/><path d="M125.633 216h-15.44v-44.48h-13.92v-12.64h43.28v12.64h-13.92V216zm39.481-45.04c4.32 0 8.027.747 11.12 2.24 3.147 1.493 5.547 3.733 7.2 6.72 1.707 2.987 2.56 6.747 2.56 11.28v6.8h-27.28c.107 2.293.96 4.187 2.56 5.68 1.653 1.493 4.027 2.24 7.12 2.24 2.773 0 5.307-.267 7.6-.8 2.293-.533 4.667-1.387 7.12-2.56v10.96c-2.133 1.12-4.48 1.947-7.04 2.48-2.507.533-5.68.8-9.52.8-4.48 0-8.48-.773-12-2.32-3.467-1.6-6.213-4.08-8.24-7.44-2.027-3.36-3.04-7.653-3.04-12.88 0-5.333.907-9.707 2.72-13.12 1.867-3.413 4.427-5.947 7.68-7.6 3.307-1.653 7.12-2.48 11.44-2.48zm.56 10.4c-1.813 0-3.333.56-4.56 1.68-1.173 1.12-1.867 2.907-2.08 5.36h13.12c0-1.333-.267-2.507-.8-3.52a5.943 5.943 0 00-2.16-2.56c-.96-.64-2.133-.96-3.52-.96zm86.973-10.4c5.067 0 8.934 1.28 11.6 3.84 2.667 2.56 4 6.693 4 12.4V216h-15.28v-24.08c0-3.36-.453-5.68-1.36-6.96-.906-1.333-2.24-2-4-2-2.453 0-4.16 1.093-5.12 3.28-.96 2.133-1.44 5.173-1.44 9.12V216h-15.28v-24.08c0-2.133-.186-3.84-.56-5.12-.373-1.333-.933-2.293-1.68-2.88-.746-.64-1.706-.96-2.88-.96-1.76 0-3.146.533-4.16 1.6-.96 1.067-1.626 2.613-2 4.64-.373 2.027-.56 4.507-.56 7.44V216h-15.28v-44.24h11.52l2.24 5.44h.4a12.368 12.368 0 013.04-3.2c1.227-.96 2.694-1.707 4.4-2.24 1.707-.533 3.654-.8 5.84-.8 3.254 0 5.92.56 8 1.68 2.134 1.067 3.867 2.56 5.2 4.48h.48a13.894 13.894 0 015.36-4.56c2.24-1.067 4.747-1.6 7.52-1.6zm57.04 0c4.907 0 8.747 1.973 11.52 5.92 2.774 3.893 4.16 9.52 4.16 16.88 0 5.013-.72 9.253-2.16 12.72-1.386 3.413-3.306 6-5.76 7.76-2.4 1.707-5.146 2.56-8.24 2.56-2.08 0-3.84-.267-5.28-.8-1.44-.533-2.64-1.173-3.6-1.92-.96-.8-1.76-1.6-2.4-2.4h-.48c.107 1.013.214 2.107.32 3.28.107 1.173.16 2.533.16 4.08v16.16h-15.28v-63.44h12.4l2.16 5.6h.72a16.9 16.9 0 012.64-3.2c1.067-.96 2.347-1.733 3.84-2.32 1.494-.587 3.254-.88 5.28-.88zm-5.76 12c-1.493 0-2.666.373-3.52 1.12-.853.693-1.466 1.733-1.84 3.12-.373 1.387-.586 3.147-.64 5.28v1.2c0 2.347.16 4.32.48 5.92.374 1.6 1.014 2.827 1.92 3.68.907.8 2.134 1.2 3.68 1.2 1.28 0 2.347-.347 3.2-1.04.907-.747 1.574-1.92 2-3.52.427-1.6.64-3.707.64-6.32 0-3.893-.506-6.64-1.52-8.24-1.013-1.6-2.48-2.4-4.4-2.4zM353.333 216h-15.28v-60.8h15.28V216zm36.18-45.04c5.6 0 9.973 1.387 13.12 4.16 3.146 2.773 4.72 6.72 4.72 11.84V216h-10.56l-2.96-5.84h-.32c-1.227 1.547-2.507 2.827-3.84 3.84-1.28.96-2.774 1.653-4.48 2.08-1.707.48-3.787.72-6.24.72-2.56 0-4.854-.507-6.88-1.52-2.027-1.067-3.627-2.64-4.8-4.72-1.174-2.133-1.76-4.827-1.76-8.08 0-4.747 1.626-8.267 4.88-10.56 3.306-2.293 8.08-3.573 14.32-3.84l7.36-.24v-.64c0-1.973-.48-3.36-1.44-4.16-.96-.853-2.267-1.28-3.92-1.28-1.76 0-3.707.32-5.84.96a47.374 47.374 0 00-6.48 2.32l-4.4-10.08c2.56-1.333 5.44-2.32 8.64-2.96 3.253-.693 6.88-1.04 10.88-1.04zm-.88 25.44c-2.774.107-4.747.613-5.92 1.52-1.12.853-1.68 2.08-1.68 3.68 0 1.493.4 2.613 1.2 3.36.8.693 1.866 1.04 3.2 1.04 1.866 0 3.44-.587 4.72-1.76 1.333-1.173 2-2.693 2-4.56v-3.44l-3.52.16zm54.804 8.32c1.386 0 2.64-.133 3.76-.4a55.014 55.014 0 003.6-1.12v11.12a38.406 38.406 0 01-5.28 1.76c-1.867.48-4.24.72-7.12.72s-5.414-.453-7.6-1.36c-2.134-.907-3.814-2.453-5.04-4.64-1.227-2.24-1.84-5.36-1.84-9.36V183.2h-5.36v-6.24l6.8-4.8 3.92-9.28h10v8.88h10.88v11.44h-10.88v17.2c0 1.44.346 2.533 1.04 3.28.746.693 1.786 1.04 3.12 1.04zm39.036-33.76c4.32 0 8.027.747 11.12 2.24 3.147 1.493 5.547 3.733 7.2 6.72 1.707 2.987 2.56 6.747 2.56 11.28v6.8h-27.28c.107 2.293.96 4.187 2.56 5.68 1.654 1.493 4.027 2.24 7.12 2.24 2.774 0 5.307-.267 7.6-.8 2.294-.533 4.667-1.387 7.12-2.56v10.96c-2.133 1.12-4.48 1.947-7.04 2.48-2.506.533-5.68.8-9.52.8-4.48 0-8.48-.773-12-2.32-3.466-1.6-6.213-4.08-8.24-7.44-2.026-3.36-3.04-7.653-3.04-12.88 0-5.333.907-9.707 2.72-13.12 1.867-3.413 4.427-5.947 7.68-7.6 3.307-1.653 7.12-2.48 11.44-2.48zm.56 10.4c-1.813 0-3.333.56-4.56 1.68-1.173 1.12-1.866 2.907-2.08 5.36h13.12c0-1.333-.266-2.507-.8-3.52a5.943 5.943 0 00-2.16-2.56c-.96-.64-2.133-.96-3.52-.96zM425.46 342.04l1.14 2.82c2.1-.92 6.82-2.9 9.78-2.9 2.4 0 3.7 1.42 3.7 3.3 0 3.5-4.26 5.06-9.68 5.18l1.18 2.66c7.04-.36 11.36-3.26 11.36-7.78 0-3.7-2.86-5.78-6.46-5.78-2.94 0-7.02 1.42-8.54 1.9-.74.22-1.74.48-2.48.6zm27.92-5.2h-2.8c.16.56.22 1.24.22 2.5v5.1l2.4.94c0-1.34-.02-5.08 0-6.04 0-1.2.08-1.94.18-2.5zm6.72 1.84l-1.68 1.66c1.16.82 3.04 2.66 4.14 4l1.8-1.84c-.9-1.08-3-3.04-4.26-3.82zm-13.14.56l.14 2.34c1.32.14 2.42.18 3.26.18 1.46 0 4.08-.2 6.4-.72v-2.42c-2.28.64-4.58.9-6.58.9-.92 0-2.12-.12-3.22-.28zm5.8 9.3l-2.46.72c0 .54-.04 1.3-.04 2 0 1.4.2 2.88 4.88 2.88 1.36 0 3.44-.16 4.34-.44 2.3-.7 2.86-1.84 2.96-3.64.04-.84.02-1.3.02-2.36l-2.76-.82c.12.92.14 1.68.14 2.46 0 1.02-.42 1.7-1.46 2.02-.76.22-2.06.36-3.06.36-2.38 0-2.6-.44-2.6-1.3 0-.62.02-1.46.04-1.88zm1.02-2.3c0-1.84-1.02-3.14-3.08-3.14-2.16 0-3.7 1.78-3.7 4.16 0 2.56 1.5 3.58 2.96 3.58 2.74 0 3.82-2.26 3.82-4.6zm-3.58 2.22c-.56 0-1.1-.52-1.1-1.4 0-1.16.66-1.96 1.46-1.96.56 0 .92.46.92 1.24 0 1.14-.34 2.12-1.28 2.12zm31.64-11.78l-1.46.6c.62.9 1.04 1.68 1.54 2.78l1.52-.68c-.38-.78-1.1-2-1.6-2.7zm2.22-.92l-1.46.68c.64.86 1.1 1.62 1.64 2.7l1.5-.72c-.42-.78-1.18-1.96-1.68-2.66zm-15.12 2.98l.12 2.3c3.04.28 5.8.28 7.88.12 1.74-.14 3.02-.4 4.06-.66l-.32-2.28c-1.04.32-2.44.62-4.26.76-2.12.16-4.56.1-7.48-.24zm-.36 4.2l.12 2.34c3.62.24 7.5.2 10.04-.08 1.62-.2 3.08-.46 4.28-.76l-.38-2.38c-1.16.34-2.68.74-4.82.94-2.4.24-5.64.28-9.24-.06zm6.66-3.64c.26.98.48 1.7.96 3.1.52 1.46 1.24 3.2 2.32 4.98-.6-.04-1.68-.14-2.52-.22l-.2 1.9c1.46.16 3.62.4 4.74.64l1.22-1.84c-.36-.34-.64-.64-.9-1.04-.92-1.4-1.92-3.46-2.38-4.84-.54-1.56-1.02-3.32-1.26-5.22l-2.68.28c.28.78.5 1.52.7 2.26zm-2.84 8.28l-2.48-.48c-.46.94-.9 1.92-.86 3.22.04 2.84 2.52 4.04 6.52 4.04 1.64 0 3.48-.16 4.88-.38l.14-2.54c-1.44.28-3.14.44-5.02.44-2.66 0-4.06-.62-4.06-2.08 0-.86.4-1.56.88-2.22zm22.9-5.9c-.453 0-.86.1-1.22.3-.36.187-.666.467-.92.84-.253.36-.446.8-.58 1.32-.133.52-.2 1.113-.2 1.78 0 .893.114 1.647.34 2.26.227.613.574 1.08 1.04 1.4.467.307 1.054.46 1.76.46.627 0 1.234-.087 1.82-.26.6-.173 1.2-.387 1.8-.64v3.26c-.626.28-1.273.48-1.94.6-.653.133-1.353.2-2.1.2-1.546 0-2.813-.307-3.8-.92a5.468 5.468 0 01-2.18-2.56c-.466-1.107-.7-2.38-.7-3.82 0-1.08.147-2.067.44-2.96.307-.907.754-1.687 1.34-2.34a5.876 5.876 0 012.16-1.54c.867-.36 1.86-.54 2.98-.54.694 0 1.42.08 2.18.24.76.16 1.507.413 2.24.76l-1.18 3.04a10.49 10.49 0 00-1.58-.62 5.475 5.475 0 00-1.7-.26zm20.598 4.16c0 1.107-.133 2.113-.4 3.02-.267.893-.68 1.667-1.24 2.32-.56.653-1.28 1.153-2.16 1.5-.867.347-1.913.52-3.14.52-1.2 0-2.24-.173-3.12-.52-.867-.347-1.587-.847-2.16-1.5-.56-.653-.98-1.427-1.26-2.32-.267-.907-.4-1.92-.4-3.04 0-1.48.247-2.767.74-3.86a5.46 5.46 0 012.28-2.56c1.027-.6 2.34-.9 3.94-.9 1.627 0 2.947.307 3.96.92a5.248 5.248 0 012.24 2.56c.48 1.093.72 2.38.72 3.86zm-9.82 0c0 .853.093 1.593.28 2.22.2.613.513 1.087.94 1.42.427.333.98.5 1.66.5.707 0 1.267-.167 1.68-.5.427-.333.733-.807.92-1.42.187-.627.28-1.367.28-2.22 0-1.293-.213-2.313-.64-3.06-.427-.747-1.167-1.12-2.22-1.12-.693 0-1.253.173-1.68.52-.427.333-.74.813-.94 1.44-.187.613-.28 1.353-.28 2.22zm25.518-.28c0 1.653-.314 3.033-.94 4.14a5.845 5.845 0 01-2.6 2.48c-1.12.547-2.44.82-3.96.82h-4.62v-14.28h4.94c1.533 0 2.833.267 3.9.8 1.066.52 1.88 1.287 2.44 2.3s.84 2.26.84 3.74zm-4 .14c0-.867-.12-1.587-.36-2.16-.227-.573-.574-1-1.04-1.28-.454-.28-1.034-.42-1.74-.42h-1.12v8h.86c1.173 0 2.033-.34 2.58-1.02.546-.68.82-1.72.82-3.12zm16.047 7.3h-8.48v-14.28h8.48v3.1h-4.62v2.24h4.28v3.1h-4.28v2.7h4.62V353zM243.301 252.44l-7.52 28.56h-4.6l-5.04-17.64c-.16-.48-.32-1.013-.48-1.6-.133-.587-.266-1.16-.4-1.72-.133-.587-.253-1.107-.36-1.56-.08-.453-.146-.8-.2-1.04-.026.24-.08.587-.16 1.04-.08.453-.186.973-.32 1.56-.133.56-.266 1.147-.4 1.76-.133.587-.28 1.147-.44 1.68l-4.96 17.52h-4.6l-7.48-28.56h4.44l4.2 16.88c.134.587.267 1.187.4 1.8.134.613.254 1.227.36 1.84.134.613.24 1.213.32 1.8.107.56.2 1.08.28 1.56.08-.507.16-1.053.24-1.64.107-.587.227-1.187.36-1.8.134-.64.267-1.267.4-1.88.16-.613.32-1.173.48-1.68l4.76-16.88h4.32l4.92 16.96c.16.533.307 1.107.44 1.72.16.613.307 1.24.44 1.88.134.613.24 1.213.32 1.8.107.56.2 1.067.28 1.52.08-.667.187-1.387.32-2.16.16-.8.334-1.613.52-2.44.187-.853.374-1.653.56-2.4l4.2-16.88h4.4zm16.066 6.6c2.587 0 4.667.933 6.24 2.8 1.6 1.867 2.4 4.653 2.4 8.36 0 2.427-.36 4.48-1.08 6.16-.72 1.68-1.733 2.947-3.04 3.8-1.307.827-2.827 1.24-4.56 1.24-1.093 0-2.053-.133-2.88-.4-.827-.293-1.533-.667-2.12-1.12-.56-.48-1.053-.987-1.48-1.52h-.28c.08.48.147 1.053.2 1.72.053.64.08 1.213.08 1.72v8.8h-4.24v-31.16h3.44l.6 2.88h.2a9.735 9.735 0 011.52-1.64c.587-.507 1.293-.907 2.12-1.2.827-.293 1.787-.44 2.88-.44zm-1 3.48c-1.333 0-2.4.267-3.2.8-.8.507-1.387 1.28-1.76 2.32-.347 1.013-.533 2.307-.56 3.88v.64c0 1.653.173 3.067.52 4.24.347 1.147.92 2.027 1.72 2.64.827.587 1.947.88 3.36.88 1.2 0 2.173-.32 2.92-.96.773-.667 1.347-1.587 1.72-2.76.373-1.173.56-2.533.56-4.08 0-2.347-.427-4.2-1.28-5.56-.853-1.36-2.187-2.04-4-2.04zm19.845 3.98c.733 0 1.366.127 1.9.38.546.24.966.587 1.26 1.04.306.453.46 1.013.46 1.68 0 .853-.274 1.58-.82 2.18-.547.6-1.227 1.14-2.04 1.62l3.54 3.42c.32-.427.586-.9.8-1.42.213-.533.393-1.1.54-1.7h2.16c-.2.827-.474 1.627-.82 2.4a8.062 8.062 0 01-1.3 2.06l2.92 2.84h-2.76l-1.56-1.5c-.32.253-.647.487-.98.7a5.92 5.92 0 01-1.08.54c-.374.133-.78.24-1.22.32-.44.093-.92.14-1.44.14-.96 0-1.794-.153-2.5-.46-.707-.32-1.254-.773-1.64-1.36-.374-.6-.56-1.313-.56-2.14 0-.68.113-1.267.34-1.76.24-.493.58-.927 1.02-1.3.453-.387.98-.753 1.58-1.1a14.025 14.025 0 01-.82-1.02c-.24-.36-.44-.733-.6-1.12a3.52 3.52 0 01-.22-1.26c0-.667.153-1.233.46-1.7.32-.48.766-.847 1.34-1.1.586-.253 1.266-.38 2.04-.38zm-.94 7.88a6.954 6.954 0 00-1.06.78c-.28.253-.507.54-.68.86-.16.307-.24.673-.24 1.1 0 .68.233 1.227.7 1.64.48.4 1.106.6 1.88.6.733 0 1.366-.113 1.9-.34a5.17 5.17 0 001.4-.84l-3.9-3.8zm.88-6.18c-.494 0-.907.127-1.24.38-.334.253-.5.633-.5 1.14 0 .44.113.853.34 1.24.226.373.546.78.96 1.22.72-.413 1.246-.807 1.58-1.18.333-.387.5-.827.5-1.32 0-.453-.154-.813-.46-1.08-.307-.267-.7-.4-1.18-.4zm21.486-15.76c3.733 0 6.453.76 8.16 2.28 1.707 1.493 2.56 3.587 2.56 6.28 0 1.2-.2 2.347-.6 3.44-.373 1.093-1 2.08-1.88 2.96-.88.853-2.053 1.533-3.52 2.04-1.44.48-3.213.72-5.32.72h-3.08V281h-4.32v-28.56h8zm-.32 3.64h-3.36v10.44h2.6c1.627 0 2.987-.173 4.08-.52 1.093-.373 1.907-.947 2.44-1.72.56-.8.84-1.84.84-3.12 0-1.707-.533-2.973-1.6-3.8-1.04-.853-2.707-1.28-5-1.28zm26.692 2.96c2.72 0 4.747.6 6.08 1.8 1.333 1.173 2 3.027 2 5.56V281h-3l-.84-3h-.16c-.613.773-1.253 1.413-1.92 1.92-.64.507-1.387.88-2.24 1.12-.827.24-1.84.36-3.04.36-1.28 0-2.44-.227-3.48-.68a5.535 5.535 0 01-2.4-2.16c-.587-.987-.88-2.213-.88-3.68 0-2.187.827-3.853 2.48-5 1.68-1.147 4.227-1.773 7.64-1.88l3.68-.12v-1.2c0-1.6-.36-2.72-1.08-3.36-.72-.64-1.733-.96-3.04-.96-1.12 0-2.187.16-3.2.48-1.013.32-1.973.707-2.88 1.16l-1.36-3.08c1.013-.533 2.173-.973 3.48-1.32 1.333-.373 2.72-.56 4.16-.56zm1 11.68c-2.453.107-4.16.52-5.12 1.24-.933.693-1.4 1.68-1.4 2.96 0 1.12.333 1.933 1 2.44.693.507 1.56.76 2.6.76 1.68 0 3.067-.467 4.16-1.4 1.093-.933 1.64-2.333 1.64-4.2v-1.88l-2.88.08zm26.249-11.68c.373 0 .786.027 1.24.08.453.027.826.067 1.12.12l-.44 3.96a8.004 8.004 0 00-1.04-.2 8.57 8.57 0 00-1.12-.08c-.8 0-1.574.16-2.32.48a5.898 5.898 0 00-1.96 1.32c-.587.56-1.054 1.253-1.4 2.08-.32.827-.48 1.773-.48 2.84V281h-4.24v-21.56h3.36l.56 3.84h.16c.453-.773 1-1.48 1.64-2.12a7.373 7.373 0 012.2-1.52c.826-.4 1.733-.6 2.72-.6zm16.112 18.92c.56 0 1.133-.053 1.72-.16a13.026 13.026 0 001.52-.36v3.2c-.453.213-1.067.387-1.84.52-.773.16-1.547.24-2.32.24-1.173 0-2.253-.2-3.24-.6-.96-.4-1.733-1.093-2.32-2.08-.587-.987-.88-2.36-.88-4.12v-11.92h-3v-1.92l3.16-1.6 1.48-4.56h2.6v4.84h6.16v3.24h-6.16v11.84c0 1.173.28 2.04.84 2.6.587.56 1.347.84 2.28.84zm23.873-3.04c0 1.413-.347 2.6-1.04 3.56-.694.96-1.694 1.693-3 2.2-1.307.48-2.88.72-4.72.72-1.52 0-2.827-.12-3.92-.36a12.788 12.788 0 01-2.96-.96v-3.72c.96.453 2.066.867 3.32 1.24 1.253.347 2.48.52 3.68.52 1.6 0 2.746-.253 3.44-.76.72-.507 1.08-1.187 1.08-2.04 0-.48-.134-.907-.4-1.28-.267-.4-.774-.8-1.52-1.2-.72-.427-1.787-.907-3.2-1.44-1.36-.56-2.52-1.107-3.48-1.64-.96-.56-1.694-1.213-2.2-1.96-.507-.773-.76-1.76-.76-2.96 0-1.867.746-3.293 2.24-4.28 1.52-1.013 3.52-1.52 6-1.52 1.306 0 2.533.133 3.68.4a15.4 15.4 0 013.4 1.12l-1.4 3.24a11.95 11.95 0 00-1.92-.72 16.335 16.335 0 00-1.96-.52 9.81 9.81 0 00-2-.2c-1.28 0-2.254.2-2.92.6-.667.4-1 .96-1 1.68 0 .507.146.947.44 1.32.32.373.866.747 1.64 1.12.773.373 1.826.827 3.16 1.36 1.333.507 2.466 1.027 3.4 1.56.96.533 1.68 1.187 2.16 1.96.506.773.76 1.76.76 2.96z" fill="#fff" fill-opacity=".77"/></svg>