<svg width="72" height="59" viewBox="0 0 72 59" fill="none" xmlns="http://www.w3.org/2000/svg">
<path d="M4.5 5.95427C4.5 4.40728 5.21116 2.92365 6.47703 1.82977C7.7429 0.735878 9.45979 0.121338 11.25 0.121338H60.75C62.5402 0.121338 64.2571 0.735878 65.523 1.82977C66.7888 2.92365 67.5 4.40728 67.5 5.95427V33.1746C67.5 34.7216 66.7888 36.2053 65.523 37.2991C64.2571 38.393 62.5402 39.0076 60.75 39.0076H36V35.1189H60.75C61.3467 35.1189 61.919 34.9141 62.341 34.5495C62.7629 34.1848 63 33.6903 63 33.1746V5.95427C63 5.43861 62.7629 4.94407 62.341 4.57944C61.919 4.21481 61.3467 4.00996 60.75 4.00996H11.25C10.6533 4.00996 10.081 4.21481 9.65901 4.57944C9.23705 4.94407 9 5.43861 9 5.95427V11.7872H4.5V5.95427Z" fill="#092533"/>
<path d="M36 46.7847H69.75C70.3467 46.7847 70.919 46.5798 71.341 46.2153C71.7629 45.8507 72 45.3562 72 44.8406C72 44.325 71.7629 43.8305 71.341 43.4659C70.919 43.1013 70.3467 42.8965 69.75 42.8965H36V46.7847Z" fill="#092533"/>
<path d="M13.5 46.7849C12.9033 46.7849 12.331 46.9897 11.909 47.3543C11.4871 47.7188 11.25 48.2132 11.25 48.7288C11.25 49.2443 11.4871 49.7387 11.909 50.1033C12.331 50.4678 12.9033 50.6726 13.5 50.6726H18C18.5967 50.6726 19.169 50.4678 19.591 50.1033C20.0129 49.7387 20.25 49.2443 20.25 48.7288C20.25 48.2132 20.0129 47.7188 19.591 47.3543C19.169 46.9897 18.5967 46.7849 18 46.7849H13.5Z" fill="#092533"/>
<path d="M0 21.5088C0 19.9618 0.711159 18.4781 1.97703 17.3842C3.2429 16.2903 4.95979 15.6758 6.75 15.6758H24.75C26.5402 15.6758 28.2571 16.2903 29.523 17.3842C30.7888 18.4781 31.5 19.9618 31.5 21.5088V52.6182C31.5 54.1652 30.7888 55.6488 29.523 56.7427C28.2571 57.8366 26.5402 58.4512 24.75 58.4512H6.75C4.95979 58.4512 3.2429 57.8366 1.97703 56.7427C0.711159 55.6488 0 54.1652 0 52.6182V21.5088ZM6.75 19.5645C6.15326 19.5645 5.58097 19.7693 5.15901 20.1339C4.73705 20.4986 4.5 20.9931 4.5 21.5088V52.6182C4.5 53.1338 4.73705 53.6284 5.15901 53.993C5.58097 54.3577 6.15326 54.5625 6.75 54.5625H24.75C25.3467 54.5625 25.919 54.3577 26.341 53.993C26.7629 53.6284 27 53.1338 27 52.6182V21.5088C27 20.9931 26.7629 20.4986 26.341 20.1339C25.919 19.7693 25.3467 19.5645 24.75 19.5645H6.75Z" fill="#092533"/>
</svg>
