<svg width="72" height="71" viewBox="0 0 72 71" fill="none" xmlns="http://www.w3.org/2000/svg">
<path d="M38.2059 28.5218C36.3459 28.5218 34.5621 29.2512 33.247 30.5495C31.9318 31.8478 31.1929 33.6087 31.1929 35.4448V46.9833C31.1929 47.5953 30.9466 48.1823 30.5082 48.6151C30.0698 49.0479 29.4752 49.291 28.8552 49.291C28.2353 49.291 27.6407 49.0479 27.2023 48.6151C26.7639 48.1823 26.5176 47.5953 26.5176 46.9833V35.4448C26.5176 32.3846 27.749 29.4498 29.941 27.2859C32.133 25.122 35.106 23.9064 38.2059 23.9064H41.9134L38.8885 20.9202C38.6652 20.7073 38.4871 20.4527 38.3646 20.1712C38.2421 19.8896 38.1776 19.5868 38.1749 19.2804C38.1722 18.974 38.2314 18.6701 38.3489 18.3865C38.4664 18.1029 38.64 17.8452 38.8595 17.6285C39.079 17.4119 39.34 17.2405 39.6273 17.1245C39.9146 17.0084 40.2224 16.9501 40.5328 16.9527C40.8432 16.9554 41.1499 17.019 41.4351 17.14C41.7203 17.2609 41.9783 17.4367 42.1939 17.6571L49.2069 24.5802C49.6452 25.013 49.8914 25.5998 49.8914 26.2118C49.8914 26.8237 49.6452 27.4105 49.2069 27.8433L42.1939 34.7664C41.9783 34.9868 41.7203 35.1626 41.4351 35.2835C41.1499 35.4045 40.8432 35.4681 40.5328 35.4708C40.2224 35.4735 39.9146 35.4151 39.6273 35.299C39.34 35.183 39.079 35.0117 38.8595 34.795C38.64 34.5783 38.4664 34.3206 38.3489 34.037C38.2314 33.7534 38.1722 33.4496 38.1749 33.1431C38.1776 32.8367 38.2421 32.5339 38.3646 32.2524C38.4871 31.9708 38.6652 31.7162 38.8885 31.5033L41.9134 28.5218H38.2059Z" fill="black"/>
<path d="M27.6006 3.4143C28.686 2.34254 29.9747 1.49235 31.393 0.912295C32.8112 0.332243 34.3314 0.0336914 35.8666 0.0336914C37.4018 0.0336914 38.9219 0.332243 40.3402 0.912295C41.7585 1.49235 43.0472 2.34254 44.1326 3.4143L68.3087 27.2851C69.3943 28.3566 70.2556 29.6287 70.8432 31.0288C71.4308 32.4289 71.7332 33.9296 71.7332 35.4451C71.7332 36.9606 71.4308 38.4612 70.8432 39.8614C70.2556 41.2615 69.3943 42.5336 68.3087 43.6051L44.1326 67.4712C43.0472 68.543 41.7585 69.3932 40.3402 69.9732C38.9219 70.5533 37.4018 70.8518 35.8666 70.8518C34.3314 70.8518 32.8112 70.5533 31.393 69.9732C29.9747 69.3932 28.686 68.543 27.6006 67.4712L3.42452 43.6051C2.33883 42.5336 1.4776 41.2615 0.890014 39.8614C0.302429 38.4612 0 36.9606 0 35.4451C0 33.9296 0.302429 32.4289 0.890014 31.0288C1.4776 29.6287 2.33883 28.3566 3.42452 27.2851L27.6006 3.4143ZM40.8271 6.67738C40.1758 6.03404 39.4025 5.5237 38.5514 5.1755C37.7002 4.82731 36.7879 4.64809 35.8666 4.64809C34.9453 4.64809 34.0329 4.82731 33.1818 5.1755C32.3307 5.5237 31.5573 6.03404 30.9061 6.67738L6.72997 30.5528C5.41524 31.851 4.67666 33.6116 4.67666 35.4474C4.67666 37.2831 5.41524 39.0437 6.72997 40.342L30.9061 64.2128C31.5573 64.8561 32.3307 65.3664 33.1818 65.7146C34.0329 66.0628 34.9453 66.2421 35.8666 66.2421C36.7879 66.2421 37.7002 66.0628 38.5514 65.7146C39.4025 65.3664 40.1758 64.8561 40.8271 64.2128L65.0032 40.342C66.3179 39.0437 67.0565 37.2831 67.0565 35.4474C67.0565 33.6116 66.3179 31.851 65.0032 30.5528L40.8271 6.682V6.67738Z" fill="black"/>
</svg>
