<svg width="24" height="24" viewBox="0 0 24 24" fill="none" xmlns="http://www.w3.org/2000/svg">
<path d="M10 18.9331H14C14.1326 18.9331 14.2598 18.8804 14.3536 18.7867C14.4473 18.6929 14.5 18.5657 14.5 18.4331C14.5 18.3005 14.4473 18.1733 14.3536 18.0796C14.2598 17.9858 14.1326 17.9331 14 17.9331H10C9.86739 17.9331 9.74021 17.9858 9.64645 18.0796C9.55268 18.1733 9.5 18.3005 9.5 18.4331C9.5 18.5657 9.55268 18.6929 9.64645 18.7867C9.74021 18.8804 9.86739 18.9331 10 18.9331Z" fill="white"/>
<path d="M16.7273 21.937H7.27329C6.6459 21.8996 6.05867 21.6159 5.63936 21.1477C5.22005 20.6795 5.00259 20.0647 5.03429 19.437V4.56299C5.0026 3.93512 5.22019 3.32015 5.63972 2.85193C6.05924 2.38372 6.64672 2.10016 7.27429 2.06299H16.7273C17.3549 2.10016 17.9423 2.38372 18.3619 2.85193C18.7814 3.32015 18.999 3.93512 18.9673 4.56299V19.437C18.999 20.0649 18.7814 20.6798 18.3619 21.148C17.9423 21.6163 17.3549 21.8998 16.7273 21.937ZM7.27329 3.06299C6.91157 3.10119 6.57925 3.27966 6.34761 3.56009C6.11598 3.84052 6.00349 4.20057 6.03429 4.56299V19.437C6.0035 19.7996 6.11613 20.1598 6.34797 20.4402C6.57982 20.7207 6.91239 20.899 7.27429 20.937H16.7273C17.0892 20.899 17.4218 20.7207 17.6536 20.4402C17.8854 20.1598 17.9981 19.7996 17.9673 19.437V4.56299C17.9981 4.20041 17.8854 3.84023 17.6536 3.55977C17.4218 3.27931 17.0892 3.10095 16.7273 3.06299H7.27329Z" fill="white"/>
</svg>
