<svg width="48" height="48" viewBox="0 0 48 48" fill="none" xmlns="http://www.w3.org/2000/svg">
<path d="M39.6802 14.5302L24.0002 26.0702L8.32021 14.5302M6.47021 10.7102C5.93978 10.7102 5.43107 10.9209 5.056 11.296C4.68093 11.671 4.47021 12.1797 4.47021 12.7102V35.3202C4.47021 35.8506 4.68093 36.3593 5.056 36.7344C5.43107 37.1095 5.93978 37.3202 6.47021 37.3202H41.5302C42.0606 37.3202 42.5694 37.1095 42.9444 36.7344C43.3195 36.3593 43.5302 35.8506 43.5302 35.3202V12.6802C43.5302 12.1497 43.3195 11.641 42.9444 11.266C42.5694 10.8909 42.0606 10.6802 41.5302 10.6802H6.47021V10.7102Z" stroke="white" stroke-linecap="round" stroke-linejoin="round"/>
</svg>
