<svg width="72" height="61" viewBox="0 0 72 61" fill="none" xmlns="http://www.w3.org/2000/svg">
<path d="M18 29.4623V45.5909H37.18L33.18 42.2273H22V32.8259L18 29.4623Z" fill="black"/>
<path d="M69.74 54.4878L64 49.5937V54.0001H8.00003V47.0205H12V44.3296H8.00003V33.1455H12V30.4546H8.00003V19.691H12V17.0001H8.00003V7.59872L39.88 34.2555V29.5128L7.42003 2.35145C7.14029 2.11427 6.78289 1.95251 6.3934 1.8868C6.0039 1.82109 5.59996 1.85441 5.23307 1.98251C4.86618 2.11061 4.55297 2.32768 4.33337 2.60606C4.11377 2.88443 3.99772 3.21149 4.00003 3.54554V55.6819C4.00003 56.128 4.21075 56.5557 4.58582 56.8711C4.96089 57.1865 5.4696 57.3637 6.00003 57.3637H68.32C68.7173 57.3657 69.1062 57.2681 69.4372 57.0834C69.7683 56.8988 70.0264 56.6354 70.1788 56.3269C70.3311 56.0183 70.3707 55.6787 70.2926 55.3511C70.2144 55.0236 70.0221 54.7231 69.74 54.4878Z" fill="black"/>
<path d="M48 50.6364H56C57.0609 50.6364 58.0783 50.282 58.8284 49.6512C59.5786 49.0204 60 48.1649 60 47.2728V14.8137L55.4 7.6996C55.0442 7.1813 54.5305 6.75219 53.9117 6.45656C53.293 6.16092 52.5916 6.00945 51.88 6.01778C51.1523 6.02264 50.4399 6.19434 49.8197 6.51441C49.1994 6.83447 48.6947 7.29077 48.36 7.83415L44 14.8473V47.2728C44 48.1649 44.4214 49.0204 45.1716 49.6512C45.9217 50.282 46.9391 50.6364 48 50.6364ZM48 15.6546L51.88 9.31415L56 15.6714V40.5455H48V15.6546ZM48 43.2869H56V47.3905H48V43.2869Z" fill="black"/>
</svg>
