<svg width="24" height="24" viewBox="0 0 24 24" fill="none" xmlns="http://www.w3.org/2000/svg">
<path d="M10 18.9331H14C14.1326 18.9331 14.2598 18.8804 14.3536 18.7867C14.4473 18.6929 14.5 18.5657 14.5 18.4331C14.5 18.3005 14.4473 18.1733 14.3536 18.0796C14.2598 17.9858 14.1326 17.9331 14 17.9331H10C9.86739 17.9331 9.74021 17.9858 9.64645 18.0796C9.55268 18.1733 9.5 18.3005 9.5 18.4331C9.5 18.5657 9.55268 18.6929 9.64645 18.7867C9.74021 18.8804 9.86739 18.9331 10 18.9331Z" fill="#092533"/>
<path d="M16.7273 21.937H7.27329C6.6459 21.8996 6.05867 21.6159 5.63936 21.1477C5.22005 20.6795 5.00259 20.0647 5.03429 19.437V4.56299C5.00259 3.93528 5.22005 3.32045 5.63936 2.85227C6.05867 2.38408 6.6459 2.10042 7.27329 2.06299H16.7273C17.3547 2.10042 17.9419 2.38408 18.3612 2.85227C18.7805 3.32045 18.998 3.93528 18.9663 4.56299V19.437C18.998 20.0647 18.7805 20.6795 18.3612 21.1477C17.9419 21.6159 17.3547 21.8996 16.7273 21.937ZM7.27329 3.06299C6.91157 3.10119 6.57925 3.27966 6.34761 3.56009C6.11598 3.84052 6.00349 4.20057 6.03429 4.56299V19.437C6.00349 19.7994 6.11598 20.1595 6.34761 20.4399C6.57925 20.7203 6.91157 20.8988 7.27329 20.937H16.7273C17.089 20.8988 17.4213 20.7203 17.653 20.4399C17.8846 20.1595 17.9971 19.7994 17.9663 19.437V4.56299C17.9971 4.20057 17.8846 3.84052 17.653 3.56009C17.4213 3.27966 17.089 3.10119 16.7273 3.06299H7.27329Z" fill="#092533"/>
</svg>
