<svg width="877" height="664" viewBox="0 0 877 664" fill="none" xmlns="http://www.w3.org/2000/svg">
<mask id="mask0_832_1286" style="mask-type:alpha" maskUnits="userSpaceOnUse" x="0" y="59" width="842" height="597">
<path d="M841.89 59.74H0V655.02H841.89V59.74Z" fill="white"/>
</mask>
<g mask="url(#mask0_832_1286)">
<path d="M773.014 554.575C851.033 476.556 851.033 350.063 773.014 272.044C694.995 194.025 568.502 194.025 490.483 272.044C412.464 350.063 412.464 476.556 490.483 554.575C568.502 632.594 694.995 632.594 773.014 554.575Z" stroke="#D4E8F2" stroke-width="2" stroke-miterlimit="10"/>
<path d="M794.438 424.684C891.362 327.76 891.362 170.615 794.438 73.6904C697.514 -23.2338 540.368 -23.2338 443.444 73.6904C346.52 170.615 346.52 327.76 443.444 424.684C540.368 521.608 697.514 521.608 794.438 424.684Z" stroke="#D4E8F2" stroke-width="2" stroke-miterlimit="10"/>
<path d="M842.452 207.61C842.452 207.98 842.152 208.29 841.772 208.29C841.392 208.29 841.092 207.99 841.092 207.61C841.092 207.23 841.392 206.93 841.772 206.93C842.152 206.93 842.452 207.23 842.452 207.61Z" fill="#D4E8F2"/>
<path d="M831.871 190.48C831.871 190.82 831.591 191.1 831.251 191.1C830.911 191.1 830.631 190.82 830.631 190.48C830.631 190.14 830.911 189.86 831.251 189.86C831.591 189.86 831.871 190.14 831.871 190.48Z" fill="#D4E8F2"/>
<path d="M837.57 170.68C837.57 171.07 837.25 171.39 836.86 171.39C836.47 171.39 836.15 171.07 836.15 170.68C836.15 170.29 836.47 169.97 836.86 169.97C837.25 169.97 837.57 170.29 837.57 170.68Z" fill="#D4E8F2"/>
<path d="M821.86 158.35C821.86 158.8 821.5 159.16 821.05 159.16C820.6 159.16 820.24 158.8 820.24 158.35C820.24 157.9 820.6 157.54 821.05 157.54C821.5 157.54 821.86 157.9 821.86 158.35Z" fill="#D4E8F2"/>
<path d="M799.982 154.28C800.429 154.28 800.792 153.917 800.792 153.47C800.792 153.023 800.429 152.66 799.982 152.66C799.535 152.66 799.172 153.023 799.172 153.47C799.172 153.917 799.535 154.28 799.982 154.28Z" fill="#D4E8F2"/>
<path d="M811.451 129.94C811.451 130.26 811.191 130.51 810.881 130.51C810.571 130.51 810.311 130.25 810.311 129.94C810.311 129.63 810.571 129.37 810.881 129.37C811.191 129.37 811.451 129.63 811.451 129.94Z" fill="#D4E8F2"/>
<path d="M797.682 132.75C797.682 132.89 797.572 133 797.432 133C797.292 133 797.182 132.89 797.182 132.75C797.182 132.61 797.292 132.5 797.432 132.5C797.572 132.5 797.682 132.61 797.682 132.75Z" fill="#D4E8F2"/>
<path d="M798.741 122.95C798.741 123.27 798.481 123.54 798.151 123.54C797.821 123.54 797.561 123.28 797.561 122.95C797.561 122.62 797.821 122.36 798.151 122.36C798.481 122.36 798.741 122.62 798.741 122.95Z" fill="#D4E8F2"/>
<path d="M782.522 115.32C782.991 115.32 783.372 114.939 783.372 114.47C783.372 114 782.991 113.62 782.522 113.62C782.052 113.62 781.672 114 781.672 114.47C781.672 114.939 782.052 115.32 782.522 115.32Z" fill="#D4E8F2"/>
<path d="M780.842 89.4698C781.024 89.4698 781.172 89.3221 781.172 89.1398C781.172 88.9576 781.024 88.8098 780.842 88.8098C780.659 88.8098 780.512 88.9576 780.512 89.1398C780.512 89.3221 780.659 89.4698 780.842 89.4698Z" fill="#D4E8F2"/>
<path d="M755.812 97.1798C756.259 97.1798 756.622 96.8172 756.622 96.3698C756.622 95.9225 756.259 95.5598 755.812 95.5598C755.365 95.5598 755.002 95.9225 755.002 96.3698C755.002 96.8172 755.365 97.1798 755.812 97.1798Z" fill="#D4E8F2"/>
<path d="M764.66 76.4099C764.942 76.4099 765.17 76.1816 765.17 75.8999C765.17 75.6182 764.942 75.3899 764.66 75.3899C764.379 75.3899 764.15 75.6182 764.15 75.8999C764.15 76.1816 764.379 76.4099 764.66 76.4099Z" fill="#D4E8F2"/>
<path d="M744.821 66.16C744.821 66.27 744.731 66.35 744.631 66.35C744.531 66.35 744.441 66.26 744.441 66.16C744.441 66.06 744.531 65.97 744.631 65.97C744.731 65.97 744.821 66.06 744.821 66.16Z" fill="#D4E8F2"/>
<path d="M724.282 86.8C724.282 86.97 724.142 87.1 723.982 87.1C723.822 87.1 723.682 86.96 723.682 86.8C723.682 86.64 723.822 86.5 723.982 86.5C724.142 86.5 724.282 86.64 724.282 86.8Z" fill="#D4E8F2"/>
<path d="M711.351 73.6999C711.516 73.6999 711.651 73.5655 711.651 73.3999C711.651 73.2342 711.516 73.0999 711.351 73.0999C711.185 73.0999 711.051 73.2342 711.051 73.3999C711.051 73.5655 711.185 73.6999 711.351 73.6999Z" fill="#D4E8F2"/>
<path d="M530.001 61.3298C530.001 61.6398 529.751 61.8898 529.441 61.8898C529.131 61.8898 528.881 61.6398 528.881 61.3298C528.881 61.0198 529.131 60.7698 529.441 60.7698C529.751 60.7698 530.001 61.0198 530.001 61.3298Z" fill="#D4E8F2"/>
<path d="M497.55 71.2099C497.55 71.3899 497.41 71.5299 497.23 71.5299C497.05 71.5299 496.91 71.3899 496.91 71.2099C496.91 71.0299 497.05 70.8899 497.23 70.8899C497.41 70.8899 497.55 71.0299 497.55 71.2099Z" fill="#D4E8F2"/>
<path d="M498.061 81.76C498.061 82.07 497.811 82.31 497.511 82.31C497.211 82.31 496.961 82.06 496.961 81.76C496.961 81.46 497.211 81.21 497.511 81.21C497.811 81.21 498.061 81.46 498.061 81.76Z" fill="#D4E8F2"/>
<path d="M489.132 87.1099C489.132 87.4899 488.822 87.7999 488.442 87.7999C488.062 87.7999 487.752 87.4899 487.752 87.1099C487.752 86.7299 488.062 86.4199 488.442 86.4199C488.822 86.4199 489.132 86.7299 489.132 87.1099Z" fill="#D4E8F2"/>
<path d="M470.011 84.0199C470.011 84.3499 469.741 84.6199 469.411 84.6199C469.081 84.6199 468.811 84.3499 468.811 84.0199C468.811 83.6899 469.081 83.4199 469.411 83.4199C469.741 83.4199 470.011 83.6899 470.011 84.0199Z" fill="#D4E8F2"/>
<path d="M457.1 91.8498C457.531 91.8498 457.88 91.5006 457.88 91.0698C457.88 90.639 457.531 90.2898 457.1 90.2898C456.67 90.2898 456.32 90.639 456.32 91.0698C456.32 91.5006 456.67 91.8498 457.1 91.8498Z" fill="#D4E8F2"/>
<path d="M451.671 114.22C451.671 114.34 451.571 114.45 451.441 114.45C451.311 114.45 451.211 114.35 451.211 114.22C451.211 114.09 451.311 113.99 451.441 113.99C451.571 113.99 451.671 114.09 451.671 114.22Z" fill="#D4E8F2"/>
<path d="M414.171 98.9699C414.463 98.9699 414.701 98.7326 414.701 98.4399C414.701 98.1472 414.463 97.9099 414.171 97.9099C413.878 97.9099 413.641 98.1472 413.641 98.4399C413.641 98.7326 413.878 98.9699 414.171 98.9699Z" fill="#D4E8F2"/>
<path d="M433.24 119.42C433.24 119.86 432.88 120.21 432.45 120.21C432.02 120.21 431.66 119.85 431.66 119.42C431.66 118.99 432.02 118.63 432.45 118.63C432.88 118.63 433.24 118.99 433.24 119.42Z" fill="#D4E8F2"/>
<path d="M408.351 111.99C408.351 112.4 408.021 112.73 407.611 112.73C407.201 112.73 406.871 112.4 406.871 111.99C406.871 111.58 407.201 111.25 407.611 111.25C408.021 111.25 408.351 111.58 408.351 111.99Z" fill="#D4E8F2"/>
<path d="M405.25 115.39C405.72 115.39 406.1 115.009 406.1 114.54C406.1 114.07 405.72 113.69 405.25 113.69C404.781 113.69 404.4 114.07 404.4 114.54C404.4 115.009 404.781 115.39 405.25 115.39Z" fill="#D4E8F2"/>
<path d="M405.261 118.53C405.261 118.7 405.121 118.84 404.951 118.84C404.781 118.84 404.641 118.7 404.641 118.53C404.641 118.36 404.781 118.22 404.951 118.22C405.121 118.22 405.261 118.36 405.261 118.53Z" fill="#D4E8F2"/>
<path d="M396.372 135.31C396.372 135.59 396.142 135.82 395.862 135.82C395.582 135.82 395.352 135.59 395.352 135.31C395.352 135.03 395.582 134.8 395.862 134.8C396.142 134.8 396.372 135.03 396.372 135.31Z" fill="#D4E8F2"/>
<path d="M401.362 154.41C401.362 154.81 401.042 155.13 400.642 155.13C400.242 155.13 399.922 154.81 399.922 154.41C399.922 154.01 400.242 153.69 400.642 153.69C401.042 153.69 401.362 154.01 401.362 154.41Z" fill="#D4E8F2"/>
<path d="M369.451 160.54C369.76 160.54 370.011 160.289 370.011 159.98C370.011 159.671 369.76 159.42 369.451 159.42C369.141 159.42 368.891 159.671 368.891 159.98C368.891 160.289 369.141 160.54 369.451 160.54Z" fill="#D4E8F2"/>
<path d="M390.632 179.68C390.792 179.68 390.922 179.55 390.922 179.39C390.922 179.23 390.792 179.1 390.632 179.1C390.472 179.1 390.342 179.23 390.342 179.39C390.342 179.55 390.472 179.68 390.632 179.68Z" fill="#D4E8F2"/>
<path d="M375.491 179.4C375.491 179.82 375.151 180.16 374.731 180.16C374.311 180.16 373.971 179.82 373.971 179.4C373.971 178.98 374.311 178.64 374.731 178.64C375.151 178.64 375.491 178.98 375.491 179.4Z" fill="#D4E8F2"/>
<path d="M375.991 199.73C375.991 200.13 375.671 200.45 375.271 200.45C374.871 200.45 374.551 200.13 374.551 199.73C374.551 199.33 374.871 199.01 375.271 199.01C375.671 199.01 375.991 199.33 375.991 199.73Z" fill="#D4E8F2"/>
<path d="M353.97 199.64C353.97 199.98 353.69 200.26 353.35 200.26C353.01 200.26 352.73 199.98 352.73 199.64C352.73 199.3 353.01 199.02 353.35 199.02C353.69 199.02 353.97 199.3 353.97 199.64Z" fill="#D4E8F2"/>
<path d="M351.501 205.58C351.501 206.01 351.151 206.35 350.731 206.35C350.311 206.35 349.961 206 349.961 205.58C349.961 205.16 350.311 204.81 350.731 204.81C351.151 204.81 351.501 205.16 351.501 205.58Z" fill="#D4E8F2"/>
<path d="M351.192 222.28C351.379 222.28 351.532 222.128 351.532 221.94C351.532 221.752 351.379 221.6 351.192 221.6C351.004 221.6 350.852 221.752 350.852 221.94C350.852 222.128 351.004 222.28 351.192 222.28Z" fill="#D4E8F2"/>
<path d="M376.522 238.32C376.522 238.44 376.432 238.53 376.312 238.53C376.192 238.53 376.102 238.44 376.102 238.32C376.102 238.2 376.192 238.11 376.312 238.11C376.432 238.11 376.522 238.2 376.522 238.32Z" fill="#D4E8F2"/>
<path d="M368.251 242.43C368.593 242.43 368.871 242.152 368.871 241.81C368.871 241.468 368.593 241.19 368.251 241.19C367.908 241.19 367.631 241.468 367.631 241.81C367.631 242.152 367.908 242.43 368.251 242.43Z" fill="#D4E8F2"/>
<path d="M350.77 245.67C350.975 245.67 351.14 245.504 351.14 245.3C351.14 245.096 350.975 244.93 350.77 244.93C350.566 244.93 350.4 245.096 350.4 245.3C350.4 245.504 350.566 245.67 350.77 245.67Z" fill="#D4E8F2"/>
<path d="M340.541 255.77C340.541 256.21 340.191 256.56 339.751 256.56C339.311 256.56 338.961 256.2 338.961 255.77C338.961 255.34 339.321 254.98 339.751 254.98C340.181 254.98 340.541 255.34 340.541 255.77Z" fill="#D4E8F2"/>
<path d="M346.111 263.33C346.111 263.47 346.001 263.57 345.871 263.57C345.741 263.57 345.631 263.46 345.631 263.33C345.631 263.2 345.741 263.09 345.871 263.09C346.001 263.09 346.111 263.2 346.111 263.33Z" fill="#D4E8F2"/>
<path d="M340.021 277.34C340.021 277.72 339.711 278.04 339.321 278.04C338.931 278.04 338.621 277.73 338.621 277.34C338.621 276.95 338.931 276.64 339.321 276.64C339.711 276.64 340.021 276.95 340.021 277.34Z" fill="#D4E8F2"/>
<path d="M351.061 288.42C351.061 288.79 350.761 289.09 350.391 289.09C350.021 289.09 349.721 288.79 349.721 288.42C349.721 288.05 350.021 287.75 350.391 287.75C350.761 287.75 351.061 288.05 351.061 288.42Z" fill="#D4E8F2"/>
<path d="M353.991 305.73C354.289 305.73 354.531 305.488 354.531 305.19C354.531 304.892 354.289 304.65 353.991 304.65C353.693 304.65 353.451 304.892 353.451 305.19C353.451 305.488 353.693 305.73 353.991 305.73Z" fill="#D4E8F2"/>
<path d="M371.411 312.38C371.411 312.66 371.181 312.89 370.901 312.89C370.621 312.89 370.391 312.66 370.391 312.38C370.391 312.1 370.621 311.87 370.901 311.87C371.181 311.87 371.411 312.1 371.411 312.38Z" fill="#D4E8F2"/>
<path d="M379.051 330.13C379.051 330.22 378.981 330.3 378.881 330.3C378.781 330.3 378.711 330.23 378.711 330.13C378.711 330.03 378.781 329.96 378.881 329.96C378.981 329.96 379.051 330.03 379.051 330.13Z" fill="#D4E8F2"/>
<path d="M355.161 339.9C355.161 340.26 354.871 340.55 354.511 340.55C354.151 340.55 353.861 340.26 353.861 339.9C353.861 339.54 354.151 339.25 354.511 339.25C354.871 339.25 355.161 339.54 355.161 339.9Z" fill="#D4E8F2"/>
<path d="M366.36 356.74C366.614 356.74 366.82 356.534 366.82 356.28C366.82 356.026 366.614 355.82 366.36 355.82C366.106 355.82 365.9 356.026 365.9 356.28C365.9 356.534 366.106 356.74 366.36 356.74Z" fill="#D4E8F2"/>
<path d="M382.902 368.51C382.902 368.76 382.702 368.96 382.452 368.96C382.202 368.96 382.002 368.76 382.002 368.51C382.002 368.26 382.202 368.06 382.452 368.06C382.702 368.06 382.902 368.26 382.902 368.51Z" fill="#D4E8F2"/>
<path d="M366.731 393.77C366.731 394.1 366.461 394.37 366.131 394.37C365.801 394.37 365.531 394.1 365.531 393.77C365.531 393.44 365.801 393.17 366.131 393.17C366.461 393.17 366.731 393.44 366.731 393.77Z" fill="#D4E8F2"/>
<path d="M399.431 393.34C399.431 393.45 399.341 393.54 399.231 393.54C399.121 393.54 399.031 393.45 399.031 393.34C399.031 393.23 399.121 393.14 399.231 393.14C399.341 393.14 399.431 393.23 399.431 393.34Z" fill="#D4E8F2"/>
<path d="M398.181 414.63C398.181 414.9 397.961 415.12 397.691 415.12C397.421 415.12 397.201 414.9 397.201 414.63C397.201 414.36 397.421 414.14 397.691 414.14C397.961 414.14 398.181 414.36 398.181 414.63Z" fill="#D4E8F2"/>
<path d="M408.152 429.39C408.152 429.64 407.952 429.84 407.702 429.84C407.452 429.84 407.252 429.64 407.252 429.39C407.252 429.14 407.452 428.94 407.702 428.94C407.952 428.94 408.152 429.14 408.152 429.39Z" fill="#D4E8F2"/>
<path d="M408.361 433.23C408.593 433.23 408.781 433.042 408.781 432.81C408.781 432.578 408.593 432.39 408.361 432.39C408.129 432.39 407.941 432.578 407.941 432.81C407.941 433.042 408.129 433.23 408.361 433.23Z" fill="#D4E8F2"/>
<path d="M422.86 436.17C422.86 436.5 422.59 436.77 422.26 436.77C421.93 436.77 421.66 436.5 421.66 436.17C421.66 435.84 421.93 435.57 422.26 435.57C422.59 435.57 422.86 435.84 422.86 436.17Z" fill="#D4E8F2"/>
<path d="M411.242 459.54C411.369 459.54 411.472 459.437 411.472 459.31C411.472 459.183 411.369 459.08 411.242 459.08C411.115 459.08 411.012 459.183 411.012 459.31C411.012 459.437 411.115 459.54 411.242 459.54Z" fill="#D4E8F2"/>
<path d="M426.731 472.45C426.731 472.78 426.471 473.04 426.141 473.04C425.811 473.04 425.551 472.78 425.551 472.45C425.551 472.12 425.811 471.86 426.141 471.86C426.471 471.86 426.731 472.12 426.731 472.45Z" fill="#D4E8F2"/>
<path d="M429.811 484.64C429.811 484.75 429.721 484.85 429.601 484.85C429.481 484.85 429.391 484.76 429.391 484.64C429.391 484.52 429.481 484.43 429.601 484.43C429.721 484.43 429.811 484.52 429.811 484.64Z" fill="#D4E8F2"/>
<path d="M454.341 466.79C454.739 466.79 455.061 466.468 455.061 466.07C455.061 465.672 454.739 465.35 454.341 465.35C453.943 465.35 453.621 465.672 453.621 466.07C453.621 466.468 453.943 466.79 454.341 466.79Z" fill="#D4E8F2"/>
<path d="M446.78 490.59C446.78 490.69 446.7 490.78 446.59 490.78C446.48 490.78 446.4 490.69 446.4 490.59C446.4 490.49 446.48 490.4 446.59 490.4C446.7 490.4 446.78 490.49 446.78 490.59Z" fill="#D4E8F2"/>
<path d="M445.521 499.16C445.521 499.62 445.151 499.99 444.691 499.99C444.231 499.99 443.861 499.62 443.861 499.16C443.861 498.7 444.231 498.33 444.691 498.33C445.151 498.33 445.521 498.7 445.521 499.16Z" fill="#D4E8F2"/>
<path d="M471.241 498.11C471.241 498.31 471.082 498.47 470.882 498.47C470.682 498.47 470.521 498.31 470.521 498.11C470.521 497.91 470.682 497.75 470.882 497.75C471.082 497.75 471.241 497.91 471.241 498.11Z" fill="#D4E8F2"/>
<path d="M473.492 514.52C473.492 514.7 473.342 514.85 473.162 514.85C472.982 514.85 472.832 514.7 472.832 514.52C472.832 514.34 472.982 514.19 473.162 514.19C473.342 514.19 473.492 514.34 473.492 514.52Z" fill="#D4E8F2"/>
<path d="M496.972 500.9C496.972 501.21 496.722 501.47 496.402 501.47C496.082 501.47 495.832 501.22 495.832 500.9C495.832 500.58 496.082 500.33 496.402 500.33C496.722 500.33 496.972 500.58 496.972 500.9Z" fill="#D4E8F2"/>
<path d="M516.521 499.72C516.73 499.72 516.901 499.55 516.901 499.34C516.901 499.13 516.73 498.96 516.521 498.96C516.311 498.96 516.141 499.13 516.141 499.34C516.141 499.55 516.311 499.72 516.521 499.72Z" fill="#D4E8F2"/>
<path d="M516.911 515.83C516.911 515.98 516.791 516.1 516.641 516.1C516.491 516.1 516.371 515.98 516.371 515.83C516.371 515.68 516.491 515.56 516.641 515.56C516.791 515.56 516.911 515.68 516.911 515.83Z" fill="#D4E8F2"/>
<path d="M528.141 520.05C528.141 520.29 527.951 520.48 527.711 520.48C527.471 520.48 527.281 520.29 527.281 520.05C527.281 519.81 527.471 519.62 527.711 519.62C527.951 519.62 528.141 519.81 528.141 520.05Z" fill="#D4E8F2"/>
<path d="M533.161 523.76C533.465 523.76 533.711 523.513 533.711 523.21C533.711 522.906 533.465 522.66 533.161 522.66C532.858 522.66 532.611 522.906 532.611 523.21C532.611 523.513 532.858 523.76 533.161 523.76Z" fill="#D4E8F2"/>
<path d="M543.991 508.33C544.228 508.33 544.421 508.137 544.421 507.9C544.421 507.662 544.228 507.47 543.991 507.47C543.753 507.47 543.561 507.662 543.561 507.9C543.561 508.137 543.753 508.33 543.991 508.33Z" fill="#D4E8F2"/>
<path d="M552.141 512.86C552.141 513.04 551.99 513.19 551.81 513.19C551.63 513.19 551.48 513.04 551.48 512.86C551.48 512.68 551.63 512.53 551.81 512.53C551.99 512.53 552.141 512.68 552.141 512.86Z" fill="#D4E8F2"/>
<path d="M561.812 522.59C561.928 522.59 562.022 522.496 562.022 522.38C562.022 522.264 561.928 522.17 561.812 522.17C561.696 522.17 561.602 522.264 561.602 522.38C561.602 522.496 561.696 522.59 561.812 522.59Z" fill="#D4E8F2"/>
<path d="M566.08 550.04C566.08 550.15 565.99 550.25 565.87 550.25C565.75 550.25 565.66 550.16 565.66 550.04C565.66 549.92 565.75 549.83 565.87 549.83C565.99 549.83 566.08 549.92 566.08 550.04Z" fill="#D4E8F2"/>
<path d="M574.601 525.7C574.601 526.06 574.311 526.35 573.951 526.35C573.591 526.35 573.301 526.06 573.301 525.7C573.301 525.34 573.591 525.05 573.951 525.05C574.311 525.05 574.601 525.34 574.601 525.7Z" fill="#D4E8F2"/>
<path d="M581.472 518.67C581.472 518.98 581.222 519.23 580.912 519.23C580.602 519.23 580.352 518.98 580.352 518.67C580.352 518.36 580.602 518.11 580.912 518.11C581.222 518.11 581.472 518.36 581.472 518.67Z" fill="#D4E8F2"/>
<path d="M590.072 530.1C590.072 530.23 589.962 530.34 589.832 530.34C589.702 530.34 589.592 530.23 589.592 530.1C589.592 529.97 589.702 529.86 589.832 529.86C589.962 529.86 590.072 529.97 590.072 530.1Z" fill="#D4E8F2"/>
<path d="M593.591 527.78C593.901 527.78 594.151 527.529 594.151 527.22C594.151 526.91 593.901 526.66 593.591 526.66C593.282 526.66 593.031 526.91 593.031 527.22C593.031 527.529 593.282 527.78 593.591 527.78Z" fill="#D4E8F2"/>
<path d="M612.581 543.45C612.581 543.53 612.511 543.6 612.431 543.6C612.351 543.6 612.281 543.53 612.281 543.45C612.281 543.37 612.351 543.3 612.431 543.3C612.511 543.3 612.581 543.37 612.581 543.45Z" fill="#D4E8F2"/>
<path d="M620.212 523.26C620.212 523.53 619.992 523.74 619.732 523.74C619.472 523.74 619.252 523.52 619.252 523.26C619.252 523 619.472 522.78 619.732 522.78C619.992 522.78 620.212 523 620.212 523.26Z" fill="#D4E8F2"/>
<path d="M629.29 537.92C629.29 538.21 629.05 538.45 628.76 538.45C628.47 538.45 628.23 538.21 628.23 537.92C628.23 537.63 628.47 537.39 628.76 537.39C629.05 537.39 629.29 537.63 629.29 537.92Z" fill="#D4E8F2"/>
<path d="M637.04 525.08C637.388 525.08 637.67 524.798 637.67 524.45C637.67 524.102 637.388 523.82 637.04 523.82C636.692 523.82 636.41 524.102 636.41 524.45C636.41 524.798 636.692 525.08 637.04 525.08Z" fill="#D4E8F2"/>
<path d="M653.592 526.8C653.592 527.03 653.402 527.22 653.172 527.22C652.942 527.22 652.752 527.03 652.752 526.8C652.752 526.57 652.942 526.38 653.172 526.38C653.402 526.38 653.592 526.57 653.592 526.8Z" fill="#D4E8F2"/>
<path d="M668.881 535.81C669.195 535.81 669.451 535.555 669.451 535.24C669.451 534.925 669.195 534.67 668.881 534.67C668.566 534.67 668.311 534.925 668.311 535.24C668.311 535.555 668.566 535.81 668.881 535.81Z" fill="#D4E8F2"/>
<path d="M670.721 506.95C670.721 507.18 670.531 507.37 670.301 507.37C670.071 507.37 669.881 507.18 669.881 506.95C669.881 506.72 670.071 506.53 670.301 506.53C670.531 506.53 670.721 506.72 670.721 506.95Z" fill="#D4E8F2"/>
<path d="M683.262 515.34C683.262 515.64 683.022 515.88 682.722 515.88C682.422 515.88 682.182 515.64 682.182 515.34C682.182 515.04 682.422 514.8 682.722 514.8C683.022 514.8 683.262 515.04 683.262 515.34Z" fill="#D4E8F2"/>
<path d="M704.791 519.19C704.791 519.51 704.531 519.77 704.211 519.77C703.891 519.77 703.631 519.51 703.631 519.19C703.631 518.87 703.891 518.61 704.211 518.61C704.531 518.61 704.791 518.87 704.791 519.19Z" fill="#D4E8F2"/>
<path d="M710.071 516.16C710.32 516.16 710.521 515.958 710.521 515.71C710.521 515.461 710.32 515.26 710.071 515.26C709.823 515.26 709.621 515.461 709.621 515.71C709.621 515.958 709.823 516.16 710.071 516.16Z" fill="#D4E8F2"/>
<path d="M727.231 507.31C727.231 507.62 726.981 507.87 726.671 507.87C726.361 507.87 726.111 507.62 726.111 507.31C726.111 507 726.361 506.75 726.671 506.75C726.981 506.75 727.231 507 727.231 507.31Z" fill="#D4E8F2"/>
<path d="M734.03 500.27C734.03 500.42 733.91 500.54 733.76 500.54C733.61 500.54 733.49 500.42 733.49 500.27C733.49 500.12 733.61 500 733.76 500C733.91 500 734.03 500.12 734.03 500.27Z" fill="#D4E8F2"/>
<path d="M748.772 492.28C748.772 492.61 748.512 492.87 748.182 492.87C747.852 492.87 747.592 492.61 747.592 492.28C747.592 491.95 747.852 491.69 748.182 491.69C748.512 491.69 748.772 491.95 748.772 492.28Z" fill="#D4E8F2"/>
<path d="M739.461 476.6C739.461 476.81 739.291 476.97 739.091 476.97C738.891 476.97 738.721 476.8 738.721 476.6C738.721 476.4 738.891 476.23 739.091 476.23C739.291 476.23 739.461 476.4 739.461 476.6Z" fill="#D4E8F2"/>
<path d="M755.112 473.02C755.487 473.02 755.792 472.716 755.792 472.34C755.792 471.965 755.487 471.66 755.112 471.66C754.736 471.66 754.432 471.965 754.432 472.34C754.432 472.716 754.736 473.02 755.112 473.02Z" fill="#D4E8F2"/>
<path d="M776.681 479.77C776.681 479.95 776.541 480.09 776.361 480.09C776.181 480.09 776.041 479.95 776.041 479.77C776.041 479.59 776.181 479.45 776.361 479.45C776.541 479.45 776.681 479.59 776.681 479.77Z" fill="#D4E8F2"/>
<path d="M776.991 470.44C776.991 470.74 776.741 470.99 776.441 470.99C776.141 470.99 775.891 470.74 775.891 470.44C775.891 470.14 776.141 469.89 776.441 469.89C776.741 469.89 776.991 470.14 776.991 470.44Z" fill="#D4E8F2"/>
<path d="M798.391 464.93C798.391 465.28 798.111 465.56 797.761 465.56C797.411 465.56 797.131 465.28 797.131 464.93C797.131 464.58 797.411 464.3 797.761 464.3C798.111 464.3 798.391 464.58 798.391 464.93Z" fill="#D4E8F2"/>
<path d="M798.161 439.6C798.161 440.07 797.781 440.45 797.311 440.45C796.841 440.45 796.461 440.07 796.461 439.6C796.461 439.13 796.841 438.75 797.311 438.75C797.781 438.75 798.161 439.13 798.161 439.6Z" fill="#D4E8F2"/>
<path d="M803.181 435.89C803.181 436.04 803.061 436.16 802.911 436.16C802.761 436.16 802.641 436.04 802.641 435.89C802.641 435.74 802.761 435.62 802.911 435.62C803.061 435.62 803.181 435.74 803.181 435.89Z" fill="#D4E8F2"/>
<path d="M799.381 418.16C799.613 418.16 799.801 417.972 799.801 417.74C799.801 417.508 799.613 417.32 799.381 417.32C799.149 417.32 798.961 417.508 798.961 417.74C798.961 417.972 799.149 418.16 799.381 418.16Z" fill="#D4E8F2"/>
<path d="M801.351 412.3C801.699 412.3 801.981 412.018 801.981 411.67C801.981 411.322 801.699 411.04 801.351 411.04C801.003 411.04 800.721 411.322 800.721 411.67C800.721 412.018 801.003 412.3 801.351 412.3Z" fill="#D4E8F2"/>
<path d="M825.772 405.77C825.772 406.12 825.492 406.4 825.142 406.4C824.792 406.4 824.512 406.12 824.512 405.77C824.512 405.42 824.792 405.14 825.142 405.14C825.492 405.14 825.772 405.42 825.772 405.77Z" fill="#D4E8F2"/>
<path d="M832.42 400.58C832.42 400.7 832.321 400.8 832.201 400.8C832.081 400.8 831.98 400.7 831.98 400.58C831.98 400.46 832.081 400.36 832.201 400.36C832.321 400.36 832.42 400.46 832.42 400.58Z" fill="#D4E8F2"/>
<path d="M829.021 393.02C829.021 393.19 828.881 393.34 828.701 393.34C828.521 393.34 828.381 393.2 828.381 393.02C828.381 392.84 828.521 392.7 828.701 392.7C828.881 392.7 829.021 392.84 829.021 393.02Z" fill="#D4E8F2"/>
<path d="M831.932 385.64C832.302 385.64 832.602 385.34 832.602 384.97C832.602 384.6 832.302 384.3 831.932 384.3C831.562 384.3 831.262 384.6 831.262 384.97C831.262 385.34 831.562 385.64 831.932 385.64Z" fill="#D4E8F2"/>
<path d="M842.241 369.1C842.241 369.26 842.111 369.4 841.941 369.4C841.771 369.4 841.641 369.27 841.641 369.1C841.641 368.93 841.771 368.8 841.941 368.8C842.111 368.8 842.241 368.93 842.241 369.1Z" fill="#D4E8F2"/>
<path d="M842.22 302.02C842.22 302.31 841.98 302.55 841.69 302.55C841.4 302.55 841.16 302.31 841.16 302.02C841.16 301.73 841.4 301.49 841.69 301.49C841.98 301.49 842.22 301.73 842.22 302.02Z" fill="#D4E8F2"/>
<path d="M836.16 298.6C836.16 299.06 835.79 299.43 835.33 299.43C834.87 299.43 834.5 299.06 834.5 298.6C834.5 298.14 834.87 297.77 835.33 297.77C835.79 297.77 836.16 298.14 836.16 298.6Z" fill="#D4E8F2"/>
<path d="M824.82 266.05C824.82 266.3 824.62 266.5 824.37 266.5C824.12 266.5 823.92 266.3 823.92 266.05C823.92 265.8 824.12 265.6 824.37 265.6C824.62 265.6 824.82 265.8 824.82 266.05Z" fill="#D4E8F2"/>
<path d="M839.689 248.1C840.054 248.1 840.349 247.804 840.349 247.44C840.349 247.075 840.054 246.78 839.689 246.78C839.325 246.78 839.029 247.075 839.029 247.44C839.029 247.804 839.325 248.1 839.689 248.1Z" fill="#D4E8F2"/>
<path d="M821.351 240.06C821.351 240.28 821.171 240.46 820.951 240.46C820.731 240.46 820.551 240.28 820.551 240.06C820.551 239.84 820.731 239.66 820.951 239.66C821.171 239.66 821.351 239.84 821.351 240.06Z" fill="#D4E8F2"/>
<path d="M840.279 216.47C840.6 216.47 840.859 216.21 840.859 215.89C840.859 215.569 840.6 215.31 840.279 215.31C839.959 215.31 839.699 215.569 839.699 215.89C839.699 216.21 839.959 216.47 840.279 216.47Z" fill="#D4E8F2"/>
<path d="M830.011 210.28C830.011 210.61 829.741 210.88 829.411 210.88C829.081 210.88 828.811 210.61 828.811 210.28C828.811 209.95 829.081 209.68 829.411 209.68C829.741 209.68 830.011 209.95 830.011 210.28Z" fill="#D4E8F2"/>
<path d="M830.15 200.63C830.15 201.02 829.84 201.33 829.45 201.33C829.06 201.33 828.75 201.02 828.75 200.63C828.75 200.24 829.06 199.93 829.45 199.93C829.84 199.93 830.15 200.24 830.15 200.63Z" fill="#D4E8F2"/>
<path d="M808.769 197.63C808.852 197.63 808.919 197.563 808.919 197.48C808.919 197.397 808.852 197.33 808.769 197.33C808.686 197.33 808.619 197.397 808.619 197.48C808.619 197.563 808.686 197.63 808.769 197.63Z" fill="#D4E8F2"/>
<path d="M801.99 185.72C801.99 186.09 801.69 186.38 801.33 186.38C800.97 186.38 800.67 186.08 800.67 185.72C800.67 185.36 800.97 185.06 801.33 185.06C801.69 185.06 801.99 185.36 801.99 185.72Z" fill="#D4E8F2"/>
<path d="M792.54 183.52C792.54 183.64 792.44 183.74 792.32 183.74C792.2 183.74 792.1 183.64 792.1 183.52C792.1 183.4 792.2 183.3 792.32 183.3C792.44 183.3 792.54 183.4 792.54 183.52Z" fill="#D4E8F2"/>
<path d="M808.019 157.92C808.378 157.92 808.669 157.629 808.669 157.27C808.669 156.911 808.378 156.62 808.019 156.62C807.66 156.62 807.369 156.911 807.369 157.27C807.369 157.629 807.66 157.92 808.019 157.92Z" fill="#D4E8F2"/>
<path d="M805.751 155.03C805.751 155.36 805.481 155.63 805.151 155.63C804.821 155.63 804.551 155.36 804.551 155.03C804.551 154.7 804.821 154.43 805.151 154.43C805.481 154.43 805.751 154.7 805.751 155.03Z" fill="#D4E8F2"/>
<path d="M794.58 157.43C794.58 157.59 794.449 157.71 794.299 157.71C794.149 157.71 794.02 157.58 794.02 157.43C794.02 157.28 794.149 157.15 794.299 157.15C794.449 157.15 794.58 157.28 794.58 157.43Z" fill="#D4E8F2"/>
<path d="M804.85 138.32C804.85 138.51 804.7 138.66 804.51 138.66C804.32 138.66 804.17 138.51 804.17 138.32C804.17 138.13 804.32 137.98 804.51 137.98C804.7 137.98 804.85 138.13 804.85 138.32Z" fill="#D4E8F2"/>
<path d="M785.651 145.05C785.651 145.2 785.531 145.31 785.391 145.31C785.251 145.31 785.131 145.19 785.131 145.05C785.131 144.91 785.251 144.79 785.391 144.79C785.531 144.79 785.651 144.91 785.651 145.05Z" fill="#D4E8F2"/>
<path d="M782.939 135.82C782.939 136.07 782.739 136.27 782.489 136.27C782.239 136.27 782.039 136.07 782.039 135.82C782.039 135.57 782.239 135.37 782.489 135.37C782.739 135.37 782.939 135.57 782.939 135.82Z" fill="#D4E8F2"/>
<path d="M757.261 139.75C757.261 140.13 756.951 140.44 756.571 140.44C756.191 140.44 755.881 140.13 755.881 139.75C755.881 139.37 756.191 139.06 756.571 139.06C756.951 139.06 757.261 139.37 757.261 139.75Z" fill="#D4E8F2"/>
<path d="M764.23 120.54C764.495 120.54 764.71 120.325 764.71 120.06C764.71 119.795 764.495 119.58 764.23 119.58C763.965 119.58 763.75 119.795 763.75 120.06C763.75 120.325 763.965 120.54 764.23 120.54Z" fill="#D4E8F2"/>
<path d="M750.4 117.07C750.627 117.07 750.81 116.886 750.81 116.66C750.81 116.434 750.627 116.25 750.4 116.25C750.174 116.25 749.99 116.434 749.99 116.66C749.99 116.886 750.174 117.07 750.4 117.07Z" fill="#D4E8F2"/>
<path d="M745.51 109.48C745.742 109.48 745.93 109.292 745.93 109.06C745.93 108.828 745.742 108.64 745.51 108.64C745.278 108.64 745.09 108.828 745.09 109.06C745.09 109.292 745.278 109.48 745.51 109.48Z" fill="#D4E8F2"/>
<path d="M752.519 92.4199C752.519 92.8499 752.169 93.1999 751.739 93.1999C751.309 93.1999 750.959 92.8499 750.959 92.4199C750.959 91.9899 751.309 91.6399 751.739 91.6399C752.169 91.6399 752.519 91.9899 752.519 92.4199Z" fill="#D4E8F2"/>
<path d="M740.781 95.2199C740.781 95.6499 740.43 95.9999 740 95.9999C739.57 95.9999 739.23 95.6499 739.23 95.2199C739.23 94.7899 739.58 94.4399 740 94.4399C740.42 94.4399 740.781 94.7899 740.781 95.2199Z" fill="#D4E8F2"/>
<path d="M718.93 99.99C718.93 100.29 718.69 100.53 718.39 100.53C718.09 100.53 717.85 100.29 717.85 99.99C717.85 99.69 718.09 99.45 718.39 99.45C718.69 99.45 718.93 99.69 718.93 99.99Z" fill="#D4E8F2"/>
<path d="M709.169 88.4898C709.169 88.7398 708.969 88.9398 708.719 88.9398C708.469 88.9398 708.27 88.7398 708.27 88.4898C708.27 88.2398 708.469 88.0398 708.719 88.0398C708.969 88.0398 709.169 88.2398 709.169 88.4898Z" fill="#D4E8F2"/>
<path d="M700.92 70.2199C700.92 70.3999 700.77 70.5499 700.59 70.5499C700.41 70.5499 700.26 70.3999 700.26 70.2199C700.26 70.0399 700.41 69.8899 700.59 69.8899C700.77 69.8899 700.92 70.0399 700.92 70.2199Z" fill="#D4E8F2"/>
<path d="M688.64 78.55C688.999 78.55 689.29 78.259 689.29 77.9C689.29 77.541 688.999 77.25 688.64 77.25C688.281 77.25 687.99 77.541 687.99 77.9C687.99 78.259 688.281 78.55 688.64 78.55Z" fill="#D4E8F2"/>
<path d="M659.97 78.2598C659.97 78.4998 659.77 78.6998 659.53 78.6998C659.29 78.6998 659.09 78.4998 659.09 78.2598C659.09 78.0198 659.29 77.8198 659.53 77.8198C659.77 77.8198 659.97 78.0198 659.97 78.2598Z" fill="#D4E8F2"/>
<path d="M641.37 63.3799C641.37 63.7999 641.03 64.1399 640.61 64.1399C640.19 64.1399 639.85 63.7999 639.85 63.3799C639.85 62.9599 640.19 62.6199 640.61 62.6199C641.03 62.6199 641.37 62.9599 641.37 63.3799Z" fill="#D4E8F2"/>
<path d="M621.45 74.7799C621.45 74.9999 621.27 75.1699 621.06 75.1699C620.85 75.1699 620.67 74.9899 620.67 74.7799C620.67 74.5699 620.85 74.3899 621.06 74.3899C621.27 74.3899 621.45 74.5699 621.45 74.7799Z" fill="#D4E8F2"/>
<path d="M540.119 79.1699C540.119 79.6099 539.769 79.9599 539.329 79.9599C538.889 79.9599 538.539 79.6099 538.539 79.1699C538.539 78.7299 538.889 78.3799 539.329 78.3799C539.769 78.3799 540.119 78.7299 540.119 79.1699Z" fill="#D4E8F2"/>
<path d="M522.621 76.09C522.621 76.27 522.471 76.42 522.291 76.42C522.111 76.42 521.971 76.27 521.971 76.09C521.971 75.91 522.121 75.77 522.291 75.77C522.461 75.77 522.621 75.92 522.621 76.09Z" fill="#D4E8F2"/>
<path d="M500.88 67.2699C500.88 67.7399 500.5 68.1199 500.03 68.1199C499.56 68.1199 499.18 67.7399 499.18 67.2699C499.18 66.7999 499.56 66.4199 500.03 66.4199C500.5 66.4199 500.88 66.7999 500.88 67.2699Z" fill="#D4E8F2"/>
<path d="M485.15 73.5C485.283 73.5 485.39 73.3926 485.39 73.26C485.39 73.1275 485.283 73.02 485.15 73.02C485.018 73.02 484.91 73.1275 484.91 73.26C484.91 73.3926 485.018 73.5 485.15 73.5Z" fill="#D4E8F2"/>
<path d="M479.73 81.53C479.819 81.53 479.89 81.4583 479.89 81.37C479.89 81.2816 479.819 81.21 479.73 81.21C479.642 81.21 479.57 81.2816 479.57 81.37C479.57 81.4583 479.642 81.53 479.73 81.53Z" fill="#D4E8F2"/>
<path d="M457.591 77.5999C457.591 77.7299 457.491 77.8299 457.361 77.8299C457.231 77.8299 457.131 77.7299 457.131 77.5999C457.131 77.4699 457.231 77.3699 457.361 77.3699C457.491 77.3699 457.591 77.4699 457.591 77.5999Z" fill="#D4E8F2"/>
<path d="M445.29 89.01C445.29 89.17 445.16 89.29 445.01 89.29C444.86 89.29 444.73 89.16 444.73 89.01C444.73 88.86 444.86 88.73 445.01 88.73C445.16 88.73 445.29 88.86 445.29 89.01Z" fill="#D4E8F2"/>
<path d="M451.901 113.52C452.188 113.52 452.421 113.287 452.421 113C452.421 112.713 452.188 112.48 451.901 112.48C451.614 112.48 451.381 112.713 451.381 113C451.381 113.287 451.614 113.52 451.901 113.52Z" fill="#D4E8F2"/>
<path d="M424.37 104.76C424.37 104.96 424.21 105.12 424.01 105.12C423.81 105.12 423.65 104.96 423.65 104.76C423.65 104.56 423.81 104.4 424.01 104.4C424.21 104.4 424.37 104.56 424.37 104.76Z" fill="#D4E8F2"/>
<path d="M413.87 116.68C413.87 116.8 413.77 116.91 413.64 116.91C413.51 116.91 413.41 116.81 413.41 116.68C413.41 116.55 413.51 116.45 413.64 116.45C413.77 116.45 413.87 116.55 413.87 116.68Z" fill="#D4E8F2"/>
<path d="M411.18 133.51C411.18 133.91 410.86 134.23 410.46 134.23C410.06 134.23 409.74 133.91 409.74 133.51C409.74 133.11 410.06 132.79 410.46 132.79C410.86 132.79 411.18 133.11 411.18 133.51Z" fill="#D4E8F2"/>
<path d="M399.251 138.52C399.251 138.76 399.061 138.95 398.821 138.95C398.581 138.95 398.391 138.76 398.391 138.52C398.391 138.28 398.581 138.09 398.821 138.09C399.061 138.09 399.251 138.28 399.251 138.52Z" fill="#D4E8F2"/>
<path d="M386.07 139.5C386.253 139.5 386.4 139.352 386.4 139.17C386.4 138.988 386.253 138.84 386.07 138.84C385.888 138.84 385.74 138.988 385.74 139.17C385.74 139.352 385.888 139.5 386.07 139.5Z" fill="#D4E8F2"/>
<path d="M388.871 164.58C388.871 164.81 388.691 164.99 388.461 164.99C388.231 164.99 388.051 164.81 388.051 164.58C388.051 164.35 388.231 164.17 388.461 164.17C388.691 164.17 388.871 164.35 388.871 164.58Z" fill="#D4E8F2"/>
<path d="M400.451 173.98C400.451 174.43 400.081 174.8 399.631 174.8C399.181 174.8 398.811 174.43 398.811 173.98C398.811 173.53 399.181 173.16 399.631 173.16C400.081 173.16 400.451 173.53 400.451 173.98Z" fill="#D4E8F2"/>
<path d="M379.659 185.18C379.659 185.27 379.589 185.33 379.509 185.33C379.429 185.33 379.359 185.26 379.359 185.18C379.359 185.1 379.429 185.03 379.509 185.03C379.589 185.03 379.659 185.1 379.659 185.18Z" fill="#D4E8F2"/>
<path d="M378 195.76C378 196.01 377.79 196.22 377.54 196.22C377.29 196.22 377.08 196.01 377.08 195.76C377.08 195.51 377.29 195.3 377.54 195.3C377.79 195.3 378 195.51 378 195.76Z" fill="#D4E8F2"/>
<path d="M350.321 191.21C350.321 191.65 349.961 192.01 349.521 192.01C349.081 192.01 348.721 191.65 348.721 191.21C348.721 190.77 349.081 190.41 349.521 190.41C349.961 190.41 350.321 190.77 350.321 191.21Z" fill="#D4E8F2"/>
<path d="M360.041 200.38C360.041 200.61 359.861 200.79 359.631 200.79C359.401 200.79 359.221 200.61 359.221 200.38C359.221 200.15 359.401 199.97 359.631 199.97C359.861 199.97 360.041 200.15 360.041 200.38Z" fill="#D4E8F2"/>
<path d="M360.85 214.57C360.85 215.03 360.47 215.41 360.01 215.41C359.55 215.41 359.17 215.03 359.17 214.57C359.17 214.11 359.55 213.73 360.01 213.73C360.47 213.73 360.85 214.11 360.85 214.57Z" fill="#D4E8F2"/>
<path d="M338.191 222.98C338.191 223.18 338.031 223.34 337.831 223.34C337.631 223.34 337.471 223.18 337.471 222.98C337.471 222.78 337.631 222.62 337.831 222.62C338.031 222.62 338.191 222.78 338.191 222.98Z" fill="#D4E8F2"/>
<path d="M334.91 235.92C334.91 236.31 334.59 236.63 334.2 236.63C333.81 236.63 333.49 236.31 333.49 235.92C333.49 235.53 333.81 235.21 334.2 235.21C334.59 235.21 334.91 235.53 334.91 235.92Z" fill="#D4E8F2"/>
<path d="M351.029 259.22C351.029 259.58 350.739 259.88 350.369 259.88C349.999 259.88 349.709 259.59 349.709 259.22C349.709 258.85 349.999 258.56 350.369 258.56C350.739 258.56 351.029 258.85 351.029 259.22Z" fill="#D4E8F2"/>
<path d="M364.791 265.72C364.791 265.81 364.721 265.88 364.631 265.88C364.541 265.88 364.471 265.81 364.471 265.72C364.471 265.63 364.541 265.56 364.631 265.56C364.721 265.56 364.791 265.63 364.791 265.72Z" fill="#D4E8F2"/>
<path d="M358.27 281.53C358.27 281.95 357.93 282.3 357.5 282.3C357.07 282.3 356.73 281.96 356.73 281.53C356.73 281.1 357.07 280.76 357.5 280.76C357.93 280.76 358.27 281.1 358.27 281.53Z" fill="#D4E8F2"/>
<path d="M348.39 294.56C348.39 294.78 348.21 294.96 347.99 294.96C347.77 294.96 347.59 294.78 347.59 294.56C347.59 294.34 347.77 294.16 347.99 294.16C348.21 294.16 348.39 294.34 348.39 294.56Z" fill="#D4E8F2"/>
<path d="M361.24 304.97C361.24 305.22 361.04 305.42 360.79 305.42C360.54 305.42 360.34 305.22 360.34 304.97C360.34 304.72 360.54 304.52 360.79 304.52C361.04 304.52 361.24 304.72 361.24 304.97Z" fill="#D4E8F2"/>
<path d="M343.04 325.72C343.04 326.07 342.75 326.36 342.4 326.36C342.05 326.36 341.76 326.07 341.76 325.72C341.76 325.37 342.05 325.08 342.4 325.08C342.75 325.08 343.04 325.37 343.04 325.72Z" fill="#D4E8F2"/>
<path d="M329.56 330.75C329.56 331.06 329.31 331.32 328.99 331.32C328.67 331.32 328.42 331.07 328.42 330.75C328.42 330.43 328.67 330.18 328.99 330.18C329.31 330.18 329.56 330.43 329.56 330.75Z" fill="#D4E8F2"/>
<path d="M341.02 338.92C341.219 338.92 341.38 338.759 341.38 338.56C341.38 338.361 341.219 338.2 341.02 338.2C340.821 338.2 340.66 338.361 340.66 338.56C340.66 338.759 340.821 338.92 341.02 338.92Z" fill="#D4E8F2"/>
<path d="M346.37 353.19C346.37 353.47 346.14 353.7 345.86 353.7C345.58 353.7 345.35 353.47 345.35 353.19C345.35 352.91 345.58 352.68 345.86 352.68C346.14 352.68 346.37 352.91 346.37 353.19Z" fill="#D4E8F2"/>
<path d="M352.83 356.12C353.233 356.12 353.56 355.793 353.56 355.39C353.56 354.987 353.233 354.66 352.83 354.66C352.426 354.66 352.1 354.987 352.1 355.39C352.1 355.793 352.426 356.12 352.83 356.12Z" fill="#D4E8F2"/>
<path d="M368.63 368.28C368.63 368.43 368.51 368.56 368.35 368.56C368.19 368.56 368.07 368.44 368.07 368.28C368.07 368.12 368.19 368 368.35 368C368.51 368 368.63 368.12 368.63 368.28Z" fill="#D4E8F2"/>
<path d="M346.261 394.2C346.261 394.37 346.121 394.51 345.951 394.51C345.781 394.51 345.641 394.37 345.641 394.2C345.641 394.03 345.781 393.89 345.951 393.89C346.121 393.89 346.261 394.03 346.261 394.2Z" fill="#D4E8F2"/>
<path d="M373.88 389.62C374.178 389.62 374.42 389.378 374.42 389.08C374.42 388.782 374.178 388.54 373.88 388.54C373.582 388.54 373.34 388.782 373.34 389.08C373.34 389.378 373.582 389.62 373.88 389.62Z" fill="#D4E8F2"/>
<path d="M372.69 401.25C372.69 401.69 372.33 402.05 371.89 402.05C371.45 402.05 371.09 401.69 371.09 401.25C371.09 400.81 371.45 400.45 371.89 400.45C372.33 400.45 372.69 400.81 372.69 401.25Z" fill="#D4E8F2"/>
<path d="M368.23 413.92C368.501 413.92 368.72 413.701 368.72 413.43C368.72 413.159 368.501 412.94 368.23 412.94C367.96 412.94 367.74 413.159 367.74 413.43C367.74 413.701 367.96 413.92 368.23 413.92Z" fill="#D4E8F2"/>
<path d="M360.6 434.47C360.882 434.47 361.11 434.241 361.11 433.96C361.11 433.678 360.882 433.45 360.6 433.45C360.318 433.45 360.09 433.678 360.09 433.96C360.09 434.241 360.318 434.47 360.6 434.47Z" fill="#D4E8F2"/>
<path d="M385.801 438.1C385.801 438.45 385.521 438.72 385.181 438.72C384.841 438.72 384.561 438.44 384.561 438.1C384.561 437.76 384.841 437.48 385.181 437.48C385.521 437.48 385.801 437.76 385.801 438.1Z" fill="#D4E8F2"/>
<path d="M399.56 447.4C399.56 447.63 399.38 447.81 399.15 447.81C398.92 447.81 398.74 447.63 398.74 447.4C398.74 447.17 398.92 446.99 399.15 446.99C399.38 446.99 399.56 447.17 399.56 447.4Z" fill="#D4E8F2"/>
<path d="M384.871 466.62C384.871 467.03 384.541 467.36 384.131 467.36C383.721 467.36 383.391 467.03 383.391 466.62C383.391 466.21 383.721 465.88 384.131 465.88C384.541 465.88 384.871 466.21 384.871 466.62Z" fill="#D4E8F2"/>
<path d="M396.541 469.83C396.541 469.94 396.451 470.03 396.341 470.03C396.231 470.03 396.141 469.94 396.141 469.83C396.141 469.72 396.231 469.63 396.341 469.63C396.451 469.63 396.541 469.72 396.541 469.83Z" fill="#D4E8F2"/>
<path d="M420.289 455.72C420.289 456.16 419.939 456.51 419.499 456.51C419.059 456.51 418.709 456.16 418.709 455.72C418.709 455.28 419.059 454.93 419.499 454.93C419.939 454.93 420.289 455.28 420.289 455.72Z" fill="#D4E8F2"/>
<path d="M422.14 476.69C422.14 476.8 422.05 476.89 421.94 476.89C421.83 476.89 421.74 476.8 421.74 476.69C421.74 476.58 421.83 476.49 421.94 476.49C422.05 476.49 422.14 476.58 422.14 476.69Z" fill="#D4E8F2"/>
<path d="M421.37 484.71C421.37 485.07 421.08 485.36 420.72 485.36C420.36 485.36 420.07 485.07 420.07 484.71C420.07 484.35 420.36 484.06 420.72 484.06C421.08 484.06 421.37 484.35 421.37 484.71Z" fill="#D4E8F2"/>
<path d="M433.15 483.96C433.15 484.26 432.91 484.5 432.61 484.5C432.31 484.5 432.07 484.26 432.07 483.96C432.07 483.66 432.31 483.42 432.61 483.42C432.91 483.42 433.15 483.66 433.15 483.96Z" fill="#D4E8F2"/>
<path d="M433.11 502.97C433.458 502.97 433.74 502.688 433.74 502.34C433.74 501.992 433.458 501.71 433.11 501.71C432.763 501.71 432.48 501.992 432.48 502.34C432.48 502.688 432.763 502.97 433.11 502.97Z" fill="#D4E8F2"/>
<path d="M440.11 502.63C440.259 502.63 440.38 502.509 440.38 502.36C440.38 502.211 440.259 502.09 440.11 502.09C439.961 502.09 439.84 502.211 439.84 502.36C439.84 502.509 439.961 502.63 440.11 502.63Z" fill="#D4E8F2"/>
<path d="M447.53 499.83C447.53 500.3 447.15 500.67 446.69 500.67C446.23 500.67 445.85 500.29 445.85 499.83C445.85 499.37 446.23 498.99 446.69 498.99C447.15 498.99 447.53 499.37 447.53 499.83Z" fill="#D4E8F2"/>
<path d="M447.579 503.89C447.579 504.13 447.379 504.33 447.139 504.33C446.899 504.33 446.699 504.13 446.699 503.89C446.699 503.65 446.899 503.45 447.139 503.45C447.379 503.45 447.579 503.65 447.579 503.89Z" fill="#D4E8F2"/>
<path d="M456.611 512.44C456.611 512.76 456.351 513.01 456.041 513.01C455.731 513.01 455.471 512.75 455.471 512.44C455.471 512.13 455.731 511.87 456.041 511.87C456.351 511.87 456.611 512.13 456.611 512.44Z" fill="#D4E8F2"/>
<path d="M461.94 518.67C461.94 519.07 461.62 519.39 461.22 519.39C460.82 519.39 460.5 519.07 460.5 518.67C460.5 518.27 460.82 517.95 461.22 517.95C461.62 517.95 461.94 518.27 461.94 518.67Z" fill="#D4E8F2"/>
<path d="M481.181 521.97C481.181 522.1 481.081 522.2 480.951 522.2C480.821 522.2 480.721 522.1 480.721 521.97C480.721 521.84 480.821 521.74 480.951 521.74C481.081 521.74 481.181 521.84 481.181 521.97Z" fill="#D4E8F2"/>
<path d="M490.35 532.43C490.35 532.78 490.07 533.06 489.72 533.06C489.37 533.06 489.09 532.78 489.09 532.43C489.09 532.08 489.37 531.8 489.72 531.8C490.07 531.8 490.35 532.08 490.35 532.43Z" fill="#D4E8F2"/>
<path d="M502.569 536.45C502.569 536.76 502.319 537.01 502.009 537.01C501.699 537.01 501.449 536.76 501.449 536.45C501.449 536.14 501.699 535.89 502.009 535.89C502.319 535.89 502.569 536.14 502.569 536.45Z" fill="#D4E8F2"/>
<path d="M508.289 541.13C508.289 541.25 508.199 541.34 508.079 541.34C507.959 541.34 507.869 541.25 507.869 541.13C507.869 541.01 507.959 540.92 508.079 540.92C508.199 540.92 508.289 541.01 508.289 541.13Z" fill="#D4E8F2"/>
<path d="M517.281 544.47C517.722 544.47 518.081 544.112 518.081 543.67C518.081 543.228 517.722 542.87 517.281 542.87C516.839 542.87 516.48 543.228 516.48 543.67C516.48 544.112 516.839 544.47 517.281 544.47Z" fill="#D4E8F2"/>
<path d="M536.801 536.52C536.801 536.84 536.541 537.1 536.221 537.1C535.901 537.1 535.641 536.84 535.641 536.52C535.641 536.2 535.901 535.94 536.221 535.94C536.541 535.94 536.801 536.2 536.801 536.52Z" fill="#D4E8F2"/>
<path d="M553.791 546.77C553.791 547.09 553.531 547.35 553.211 547.35C552.891 547.35 552.631 547.09 552.631 546.77C552.631 546.45 552.891 546.19 553.211 546.19C553.531 546.19 553.791 546.45 553.791 546.77Z" fill="#D4E8F2"/>
<path d="M569.019 568.54C569.019 568.81 568.799 569.03 568.529 569.03C568.259 569.03 568.039 568.81 568.039 568.54C568.039 568.27 568.259 568.05 568.529 568.05C568.799 568.05 569.019 568.27 569.019 568.54Z" fill="#D4E8F2"/>
<path d="M574.791 543.98C575.155 543.98 575.451 543.684 575.451 543.32C575.451 542.955 575.155 542.66 574.791 542.66C574.426 542.66 574.131 542.955 574.131 543.32C574.131 543.684 574.426 543.98 574.791 543.98Z" fill="#D4E8F2"/>
<path d="M577.56 555.75C577.875 555.75 578.13 555.495 578.13 555.18C578.13 554.865 577.875 554.61 577.56 554.61C577.245 554.61 576.99 554.865 576.99 555.18C576.99 555.495 577.245 555.75 577.56 555.75Z" fill="#D4E8F2"/>
<path d="M597.83 569.96C597.83 570.14 597.68 570.29 597.5 570.29C597.32 570.29 597.17 570.14 597.17 569.96C597.17 569.78 597.32 569.63 597.5 569.63C597.68 569.63 597.83 569.78 597.83 569.96Z" fill="#D4E8F2"/>
<path d="M598.94 544.53C598.94 544.97 598.58 545.33 598.14 545.33C597.7 545.33 597.34 544.97 597.34 544.53C597.34 544.09 597.7 543.73 598.14 543.73C598.58 543.73 598.94 544.09 598.94 544.53Z" fill="#D4E8F2"/>
<path d="M602.2 546.24C602.2 546.34 602.12 546.42 602.02 546.42C601.92 546.42 601.84 546.34 601.84 546.24C601.84 546.14 601.92 546.06 602.02 546.06C602.12 546.06 602.2 546.14 602.2 546.24Z" fill="#D4E8F2"/>
<path d="M618.421 536.15C618.421 536.6 618.061 536.96 617.611 536.96C617.161 536.96 616.801 536.6 616.801 536.15C616.801 535.7 617.161 535.34 617.611 535.34C618.061 535.34 618.421 535.7 618.421 536.15Z" fill="#D4E8F2"/>
<path d="M636.939 558.05C636.939 558.3 636.739 558.5 636.489 558.5C636.239 558.5 636.039 558.3 636.039 558.05C636.039 557.8 636.239 557.6 636.489 557.6C636.739 557.6 636.939 557.8 636.939 558.05Z" fill="#D4E8F2"/>
<path d="M645.24 541.76C645.24 542.08 644.98 542.34 644.66 542.34C644.34 542.34 644.08 542.08 644.08 541.76C644.08 541.44 644.34 541.18 644.66 541.18C644.98 541.18 645.24 541.44 645.24 541.76Z" fill="#D4E8F2"/>
<path d="M659.921 537.81C660.125 537.81 660.291 537.644 660.291 537.44C660.291 537.235 660.125 537.07 659.921 537.07C659.716 537.07 659.551 537.235 659.551 537.44C659.551 537.644 659.716 537.81 659.921 537.81Z" fill="#D4E8F2"/>
<path d="M662.73 528.08C662.73 528.26 662.58 528.41 662.4 528.41C662.22 528.41 662.07 528.26 662.07 528.08C662.07 527.9 662.22 527.75 662.4 527.75C662.58 527.75 662.73 527.9 662.73 528.08Z" fill="#D4E8F2"/>
<path d="M677.8 538.21C677.8 538.6 677.49 538.91 677.1 538.91C676.71 538.91 676.4 538.59 676.4 538.21C676.4 537.83 676.72 537.51 677.1 537.51C677.48 537.51 677.8 537.83 677.8 538.21Z" fill="#D4E8F2"/>
<path d="M682.721 517.68C682.721 517.78 682.641 517.85 682.551 517.85C682.461 517.85 682.381 517.77 682.381 517.68C682.381 517.59 682.461 517.51 682.551 517.51C682.641 517.51 682.721 517.59 682.721 517.68Z" fill="#D4E8F2"/>
<path d="M709.3 540.8C709.3 541.14 709.03 541.41 708.69 541.41C708.35 541.41 708.08 541.14 708.08 540.8C708.08 540.46 708.35 540.19 708.69 540.19C709.03 540.19 709.3 540.46 709.3 540.8Z" fill="#D4E8F2"/>
<path d="M710.66 538.14C711.074 538.14 711.41 537.804 711.41 537.39C711.41 536.976 711.074 536.64 710.66 536.64C710.246 536.64 709.91 536.976 709.91 537.39C709.91 537.804 710.246 538.14 710.66 538.14Z" fill="#D4E8F2"/>
<path d="M723.7 519.65C723.7 519.94 723.47 520.17 723.18 520.17C722.89 520.17 722.66 519.94 722.66 519.65C722.66 519.36 722.89 519.13 723.18 519.13C723.47 519.13 723.7 519.36 723.7 519.65Z" fill="#D4E8F2"/>
<path d="M726.93 494.28C726.93 494.61 726.661 494.88 726.331 494.88C726.001 494.88 725.73 494.61 725.73 494.28C725.73 493.95 726.001 493.68 726.331 493.68C726.661 493.68 726.93 493.95 726.93 494.28Z" fill="#D4E8F2"/>
<path d="M752.74 515.31C752.878 515.31 752.99 515.198 752.99 515.06C752.99 514.922 752.878 514.81 752.74 514.81C752.602 514.81 752.49 514.922 752.49 515.06C752.49 515.198 752.602 515.31 752.74 515.31Z" fill="#D4E8F2"/>
<path d="M743.851 489.06C743.851 489.35 743.621 489.58 743.331 489.58C743.041 489.58 742.811 489.35 742.811 489.06C742.811 488.77 743.041 488.54 743.331 488.54C743.621 488.54 743.851 488.77 743.851 489.06Z" fill="#D4E8F2"/>
<path d="M768.889 494.55C769.088 494.55 769.249 494.389 769.249 494.19C769.249 493.991 769.088 493.83 768.889 493.83C768.69 493.83 768.529 493.991 768.529 494.19C768.529 494.389 768.69 494.55 768.889 494.55Z" fill="#D4E8F2"/>
<path d="M778.95 498.37C778.95 498.66 778.72 498.89 778.43 498.89C778.14 498.89 777.91 498.66 777.91 498.37C777.91 498.08 778.14 497.85 778.43 497.85C778.72 497.85 778.95 498.08 778.95 498.37Z" fill="#D4E8F2"/>
<path d="M773.66 472.58C773.66 472.85 773.44 473.07 773.17 473.07C772.9 473.07 772.68 472.85 772.68 472.58C772.68 472.31 772.9 472.09 773.17 472.09C773.44 472.09 773.66 472.31 773.66 472.58Z" fill="#D4E8F2"/>
<path d="M781.859 473.75C782.229 473.75 782.529 473.45 782.529 473.08C782.529 472.71 782.229 472.41 781.859 472.41C781.489 472.41 781.189 472.71 781.189 473.08C781.189 473.45 781.489 473.75 781.859 473.75Z" fill="#D4E8F2"/>
<path d="M790.121 456.36C790.121 456.45 790.051 456.52 789.961 456.52C789.871 456.52 789.801 456.45 789.801 456.36C789.801 456.27 789.871 456.2 789.961 456.2C790.051 456.2 790.121 456.27 790.121 456.36Z" fill="#D4E8F2"/>
<path d="M806.711 462.51C806.711 462.88 806.411 463.17 806.051 463.17C805.691 463.17 805.391 462.87 805.391 462.51C805.391 462.15 805.691 461.85 806.051 461.85C806.411 461.85 806.711 462.15 806.711 462.51Z" fill="#D4E8F2"/>
<path d="M808.789 452.05C808.789 452.47 808.45 452.81 808.03 452.81C807.61 452.81 807.27 452.47 807.27 452.05C807.27 451.63 807.61 451.29 808.03 451.29C808.45 451.29 808.789 451.63 808.789 452.05Z" fill="#D4E8F2"/>
<path d="M812.12 444.35C812.407 444.35 812.64 444.117 812.64 443.83C812.64 443.543 812.407 443.31 812.12 443.31C811.832 443.31 811.6 443.543 811.6 443.83C811.6 444.117 811.832 444.35 812.12 444.35Z" fill="#D4E8F2"/>
<path d="M810.371 427.7C810.371 427.83 810.261 427.94 810.131 427.94C810.001 427.94 809.891 427.83 809.891 427.7C809.891 427.57 810.001 427.46 810.131 427.46C810.261 427.46 810.371 427.57 810.371 427.7Z" fill="#D4E8F2"/>
<path d="M815.039 411.38C815.039 411.68 814.799 411.92 814.499 411.92C814.199 411.92 813.959 411.68 813.959 411.38C813.959 411.08 814.199 410.84 814.499 410.84C814.799 410.84 815.039 411.08 815.039 411.38Z" fill="#D4E8F2"/>
<path d="M817.701 392.44C817.701 392.53 817.631 392.6 817.541 392.6C817.451 392.6 817.381 392.53 817.381 392.44C817.381 392.35 817.451 392.28 817.541 392.28C817.631 392.28 817.701 392.35 817.701 392.44Z" fill="#D4E8F2"/>
<path d="M837.189 384.1C837.189 384.24 837.079 384.35 836.939 384.35C836.799 384.35 836.689 384.24 836.689 384.1C836.689 383.96 836.799 383.85 836.939 383.85C837.079 383.85 837.189 383.96 837.189 384.1Z" fill="#D4E8F2"/>
<path d="M830.87 372.26C830.87 372.55 830.64 372.78 830.35 372.78C830.06 372.78 829.83 372.55 829.83 372.26C829.83 371.97 830.06 371.74 830.35 371.74C830.64 371.74 830.87 371.97 830.87 372.26Z" fill="#D4E8F2"/>
<path d="M820.241 364.13C820.39 364.13 820.511 364.009 820.511 363.86C820.511 363.711 820.39 363.59 820.241 363.59C820.092 363.59 819.971 363.711 819.971 363.86C819.971 364.009 820.092 364.13 820.241 364.13Z" fill="#D4E8F2"/>
<path d="M842.349 341.49C842.349 341.64 842.229 341.77 842.069 341.77C841.909 341.77 841.789 341.65 841.789 341.49C841.789 341.33 841.909 341.21 842.069 341.21C842.229 341.21 842.349 341.33 842.349 341.49Z" fill="#D4E8F2"/>
<path d="M825.2 321.86C825.642 321.86 826 321.502 826 321.06C826 320.618 825.642 320.26 825.2 320.26C824.759 320.26 824.4 320.618 824.4 321.06C824.4 321.502 824.759 321.86 825.2 321.86Z" fill="#D4E8F2"/>
<path d="M841.451 370.03C841.451 370.46 841.101 370.81 840.671 370.81C840.241 370.81 839.891 370.46 839.891 370.03C839.891 369.6 840.241 369.25 840.671 369.25C841.101 369.25 841.451 369.6 841.451 370.03Z" fill="#D4E8F2"/>
<path d="M844.25 324.15C844.25 324.89 843.65 325.49 842.91 325.49C842.17 325.49 841.57 324.89 841.57 324.15C841.57 323.41 842.17 322.81 842.91 322.81C843.65 322.81 844.25 323.41 844.25 324.15Z" fill="#D4E8F2"/>
<path d="M796.1 310.31C796.1 310.93 795.59 311.44 794.97 311.44C794.35 311.44 793.84 310.93 793.84 310.31C793.84 309.69 794.35 309.18 794.97 309.18C795.59 309.18 796.1 309.69 796.1 310.31Z" fill="#D4E8F2"/>
<path d="M786.52 276.73C786.901 276.73 787.21 276.421 787.21 276.04C787.21 275.659 786.901 275.35 786.52 275.35C786.139 275.35 785.83 275.659 785.83 276.04C785.83 276.421 786.139 276.73 786.52 276.73Z" fill="#D4E8F2"/>
<path d="M775.271 268.19C775.271 268.83 774.751 269.35 774.111 269.35C773.471 269.35 772.951 268.83 772.951 268.19C772.951 267.55 773.471 267.03 774.111 267.03C774.751 267.03 775.271 267.55 775.271 268.19Z" fill="#D4E8F2"/>
<path d="M776.521 218.98C776.521 219.32 776.241 219.6 775.901 219.6C775.561 219.6 775.281 219.32 775.281 218.98C775.281 218.64 775.561 218.36 775.901 218.36C776.241 218.36 776.521 218.64 776.521 218.98Z" fill="#D4E8F2"/>
<path d="M756.202 196.48C756.202 196.78 755.952 197.03 755.652 197.03C755.352 197.03 755.102 196.78 755.102 196.48C755.102 196.18 755.352 195.93 755.652 195.93C755.952 195.93 756.202 196.18 756.202 196.48Z" fill="#D4E8F2"/>
<path d="M744.151 195.72C744.151 196.48 743.531 197.1 742.771 197.1C742.011 197.1 741.391 196.48 741.391 195.72C741.391 194.96 742.011 194.34 742.771 194.34C743.531 194.34 744.151 194.96 744.151 195.72Z" fill="#D4E8F2"/>
<path d="M723.29 182.95C723.29 183.4 722.92 183.77 722.47 183.77C722.02 183.77 721.65 183.4 721.65 182.95C721.65 182.5 722.02 182.13 722.47 182.13C722.92 182.13 723.29 182.5 723.29 182.95Z" fill="#D4E8F2"/>
<path d="M678.431 189.42C678.431 189.92 678.021 190.33 677.521 190.33C677.021 190.33 676.611 189.92 676.611 189.42C676.611 188.92 677.021 188.51 677.521 188.51C678.021 188.51 678.431 188.92 678.431 189.42Z" fill="#D4E8F2"/>
<path d="M660.121 156.01C660.121 156.26 659.921 156.46 659.661 156.46C659.401 156.46 659.211 156.26 659.211 156.01C659.211 155.76 659.411 155.55 659.661 155.55C659.911 155.55 660.121 155.75 660.121 156.01Z" fill="#D4E8F2"/>
<path d="M637.5 153.56C637.5 153.88 637.24 154.15 636.91 154.15C636.58 154.15 636.32 153.89 636.32 153.56C636.32 153.23 636.58 152.97 636.91 152.97C637.24 152.97 637.5 153.23 637.5 153.56Z" fill="#D4E8F2"/>
<path d="M609.272 172.18C609.272 172.99 608.622 173.64 607.812 173.64C607.002 173.64 606.352 172.99 606.352 172.18C606.352 171.37 607.002 170.72 607.812 170.72C608.622 170.72 609.272 171.37 609.272 172.18Z" fill="#D4E8F2"/>
<path d="M599.42 189.97C599.42 190.24 599.2 190.47 598.92 190.47C598.64 190.47 598.42 190.25 598.42 189.97C598.42 189.69 598.64 189.47 598.92 189.47C599.2 189.47 599.42 189.69 599.42 189.97Z" fill="#D4E8F2"/>
<path d="M587.541 182.76C587.541 183.38 587.041 183.88 586.421 183.88C585.801 183.88 585.301 183.38 585.301 182.76C585.301 182.14 585.801 181.64 586.421 181.64C587.041 181.64 587.541 182.14 587.541 182.76Z" fill="#D4E8F2"/>
<path d="M574.641 192C575.066 192 575.411 191.655 575.411 191.23C575.411 190.805 575.066 190.46 574.641 190.46C574.216 190.46 573.871 190.805 573.871 191.23C573.871 191.655 574.216 192 574.641 192Z" fill="#D4E8F2"/>
<path d="M536.552 149.78C536.552 150.64 535.852 151.34 534.992 151.34C534.132 151.34 533.432 150.64 533.432 149.78C533.432 148.92 534.132 148.22 534.992 148.22C535.852 148.22 536.552 148.92 536.552 149.78Z" fill="#D4E8F2"/>
<path d="M508.01 141.43C508.01 142.27 507.33 142.95 506.49 142.95C505.65 142.95 504.98 142.27 504.98 141.43C504.98 140.59 505.66 139.91 506.49 139.91C507.32 139.91 508.01 140.59 508.01 141.43Z" fill="#D4E8F2"/>
<path d="M482.371 184.53C482.371 184.88 482.091 185.16 481.741 185.16C481.391 185.16 481.111 184.88 481.111 184.53C481.111 184.18 481.391 183.9 481.741 183.9C482.091 183.9 482.371 184.18 482.371 184.53Z" fill="#D4E8F2"/>
<path d="M460.45 176.99C460.45 177.42 460.11 177.76 459.68 177.76C459.25 177.76 458.91 177.42 458.91 176.99C458.91 176.56 459.25 176.22 459.68 176.22C460.11 176.22 460.45 176.56 460.45 176.99Z" fill="#D4E8F2"/>
<path d="M461.812 197.36C461.812 197.6 461.612 197.8 461.372 197.8C461.132 197.8 460.932 197.6 460.932 197.36C460.932 197.12 461.132 196.92 461.372 196.92C461.612 196.92 461.812 197.12 461.812 197.36Z" fill="#D4E8F2"/>
<path d="M454.451 238.66C454.451 239.49 453.781 240.16 452.951 240.16C452.121 240.16 451.451 239.49 451.451 238.66C451.451 237.83 452.121 237.16 452.951 237.16C453.781 237.16 454.451 237.83 454.451 238.66Z" fill="#D4E8F2"/>
<path d="M393.021 229.98C393.021 230.27 392.781 230.51 392.491 230.51C392.201 230.51 391.961 230.27 391.961 229.98C391.961 229.69 392.201 229.45 392.491 229.45C392.781 229.45 393.021 229.69 393.021 229.98Z" fill="#D4E8F2"/>
<path d="M414.4 275.55C414.4 275.98 414.05 276.34 413.61 276.34C413.17 276.34 412.82 275.99 412.82 275.55C412.82 275.11 413.17 274.76 413.61 274.76C414.05 274.76 414.4 275.11 414.4 275.55Z" fill="#D4E8F2"/>
<path d="M362.15 269.26C363.067 269.26 363.81 268.517 363.81 267.6C363.81 266.683 363.067 265.94 362.15 265.94C361.233 265.94 360.49 266.683 360.49 267.6C360.49 268.517 361.233 269.26 362.15 269.26Z" fill="#D4E8F2"/>
<path d="M380.76 308.39C380.76 308.92 380.33 309.35 379.8 309.35C379.27 309.35 378.84 308.92 378.84 308.39C378.84 307.86 379.27 307.43 379.8 307.43C380.33 307.43 380.76 307.86 380.76 308.39Z" fill="#D4E8F2"/>
<path d="M375.811 346.58C375.811 347 375.471 347.34 375.051 347.34C374.631 347.34 374.291 347 374.291 346.58C374.291 346.16 374.631 345.82 375.051 345.82C375.471 345.82 375.811 346.16 375.811 346.58Z" fill="#D4E8F2"/>
<path d="M387.401 383.13C387.401 383.6 387.021 383.97 386.561 383.97C386.101 383.97 385.721 383.59 385.721 383.13C385.721 382.67 386.101 382.29 386.561 382.29C387.021 382.29 387.401 382.67 387.401 383.13Z" fill="#D4E8F2"/>
<path d="M346.361 412.63C346.361 413.53 345.631 414.25 344.741 414.25C343.851 414.25 343.121 413.52 343.121 412.63C343.121 411.74 343.851 411.01 344.741 411.01C345.631 411.01 346.361 411.74 346.361 412.63Z" fill="#D4E8F2"/>
<path d="M355.44 431.34C355.44 431.97 354.93 432.49 354.29 432.49C353.65 432.49 353.15 431.98 353.15 431.34C353.15 430.7 353.66 430.2 354.29 430.2C354.92 430.2 355.44 430.71 355.44 431.34Z" fill="#D4E8F2"/>
<path d="M319.131 461.66C319.131 461.84 318.981 461.99 318.801 461.99C318.621 461.99 318.471 461.84 318.471 461.66C318.471 461.48 318.621 461.33 318.801 461.33C318.981 461.33 319.131 461.48 319.131 461.66Z" fill="#D4E8F2"/>
<path d="M354.26 473.57C354.641 473.57 354.95 473.261 354.95 472.88C354.95 472.499 354.641 472.19 354.26 472.19C353.879 472.19 353.57 472.499 353.57 472.88C353.57 473.261 353.879 473.57 354.26 473.57Z" fill="#D4E8F2"/>
<path d="M344.56 498.78C344.56 499.67 343.84 500.39 342.95 500.39C342.06 500.39 341.34 499.67 341.34 498.78C341.34 497.89 342.06 497.17 342.95 497.17C343.84 497.17 344.56 497.89 344.56 498.78Z" fill="#D4E8F2"/>
<path d="M363.641 506.55C363.641 506.74 363.481 506.9 363.291 506.9C363.101 506.9 362.941 506.74 362.941 506.55C362.941 506.36 363.101 506.2 363.291 506.2C363.481 506.2 363.641 506.36 363.641 506.55Z" fill="#D4E8F2"/>
<path d="M408.94 524.39C409.641 524.39 410.21 523.822 410.21 523.12C410.21 522.419 409.641 521.85 408.94 521.85C408.239 521.85 407.67 522.419 407.67 523.12C407.67 523.822 408.239 524.39 408.94 524.39Z" fill="#D4E8F2"/>
<path d="M395.501 547.34C395.501 548.04 394.931 548.61 394.231 548.61C393.531 548.61 392.961 548.04 392.961 547.34C392.961 546.64 393.531 546.07 394.231 546.07C394.931 546.07 395.501 546.64 395.501 547.34Z" fill="#D4E8F2"/>
<path d="M390.101 576.08C390.913 576.08 391.571 575.422 391.571 574.61C391.571 573.798 390.913 573.14 390.101 573.14C389.289 573.14 388.631 573.798 388.631 574.61C388.631 575.422 389.289 576.08 390.101 576.08Z" fill="#D4E8F2"/>
<path d="M390.601 612.46C390.601 612.66 390.441 612.82 390.241 612.82C390.041 612.82 389.881 612.66 389.881 612.46C389.881 612.26 390.041 612.1 390.241 612.1C390.441 612.1 390.601 612.26 390.601 612.46Z" fill="#D4E8F2"/>
<path d="M465.73 587.19C465.73 588.03 465.05 588.72 464.2 588.72C463.35 588.72 462.67 588.04 462.67 587.19C462.67 586.34 463.35 585.66 464.2 585.66C465.05 585.66 465.73 586.34 465.73 587.19Z" fill="#D4E8F2"/>
<path d="M483.6 619.54C483.6 620.03 483.2 620.43 482.71 620.43C482.22 620.43 481.82 620.03 481.82 619.54C481.82 619.05 482.22 618.65 482.71 618.65C483.2 618.65 483.6 619.05 483.6 619.54Z" fill="#D4E8F2"/>
<path d="M490.271 622.05C490.271 622.35 490.031 622.59 489.731 622.59C489.431 622.59 489.191 622.35 489.191 622.05C489.191 621.75 489.431 621.51 489.731 621.51C490.031 621.51 490.271 621.75 490.271 622.05Z" fill="#D4E8F2"/>
<path d="M510.78 634.19C510.78 634.88 510.22 635.45 509.52 635.45C508.82 635.45 508.26 634.89 508.26 634.19C508.26 633.49 508.82 632.93 509.52 632.93C510.22 632.93 510.78 633.49 510.78 634.19Z" fill="#D4E8F2"/>
<path d="M540.58 630.41C540.58 631.05 540.06 631.57 539.42 631.57C538.78 631.57 538.26 631.05 538.26 630.41C538.26 629.77 538.78 629.25 539.42 629.25C540.06 629.25 540.58 629.77 540.58 630.41Z" fill="#D4E8F2"/>
<path d="M596.56 642.26C596.56 643.15 595.84 643.87 594.95 643.87C594.06 643.87 593.34 643.15 593.34 642.26C593.34 641.37 594.06 640.65 594.95 640.65C595.84 640.65 596.56 641.37 596.56 642.26Z" fill="#D4E8F2"/>
<path d="M613.59 642.01C613.96 642.01 614.26 641.71 614.26 641.34C614.26 640.97 613.96 640.67 613.59 640.67C613.22 640.67 612.92 640.97 612.92 641.34C612.92 641.71 613.22 642.01 613.59 642.01Z" fill="#D4E8F2"/>
<path d="M648.76 640.15C648.76 640.43 648.53 640.65 648.26 640.65C647.99 640.65 647.76 640.42 647.76 640.15C647.76 639.88 647.99 639.65 648.26 639.65C648.53 639.65 648.76 639.88 648.76 640.15Z" fill="#D4E8F2"/>
<path d="M736.201 643.37C736.383 643.37 736.531 643.222 736.531 643.04C736.531 642.858 736.383 642.71 736.201 642.71C736.019 642.71 735.871 642.858 735.871 643.04C735.871 643.222 736.019 643.37 736.201 643.37Z" fill="#D4E8F2"/>
<path d="M770.981 625.86C770.981 626.45 770.501 626.92 769.921 626.92C769.341 626.92 768.861 626.44 768.861 625.86C768.861 625.28 769.341 624.8 769.921 624.8C770.501 624.8 770.981 625.28 770.981 625.86Z" fill="#D4E8F2"/>
<path d="M762.68 584.03C762.68 584.52 762.29 584.91 761.8 584.91C761.31 584.91 760.92 584.52 760.92 584.03C760.92 583.54 761.31 583.15 761.8 583.15C762.29 583.15 762.68 583.54 762.68 584.03Z" fill="#D4E8F2"/>
<path d="M806.13 605.18C806.622 605.18 807.02 604.781 807.02 604.29C807.02 603.798 806.622 603.4 806.13 603.4C805.639 603.4 805.24 603.798 805.24 604.29C805.24 604.781 805.639 605.18 806.13 605.18Z" fill="#D4E8F2"/>
<path d="M777.011 549.79C777.011 550.65 776.311 551.35 775.451 551.35C774.591 551.35 773.891 550.65 773.891 549.79C773.891 548.93 774.591 548.23 775.451 548.23C776.311 548.23 777.011 548.93 777.011 549.79Z" fill="#D4E8F2"/>
<path d="M786.191 534.93C786.191 535.41 785.801 535.8 785.321 535.8C784.841 535.8 784.451 535.41 784.451 534.93C784.451 534.45 784.841 534.06 785.321 534.06C785.801 534.06 786.191 534.45 786.191 534.93Z" fill="#D4E8F2"/>
<path d="M844.05 484.1C844.05 484.71 843.55 485.21 842.94 485.21C842.33 485.21 841.83 484.71 841.83 484.1C841.83 483.49 842.33 482.99 842.94 482.99C843.55 482.99 844.05 483.49 844.05 484.1Z" fill="#D4E8F2"/>
<path d="M838.69 434.37C838.69 435.26 837.97 435.97 837.09 435.97C836.21 435.97 835.49 435.25 835.49 434.37C835.49 433.49 836.21 432.77 837.09 432.77C837.97 432.77 838.69 433.49 838.69 434.37Z" fill="#D4E8F2"/>
<path d="M743.223 515.866C840.147 418.942 840.147 261.797 743.223 164.872C646.299 67.9481 489.153 67.9481 392.229 164.872C295.305 261.797 295.305 418.942 392.229 515.866C489.153 612.79 646.299 612.79 743.223 515.866Z" stroke="#D4E8F2" stroke-miterlimit="10"/>
<path d="M730.42 552.335C827.344 455.411 827.344 298.266 730.42 201.342C633.496 104.417 476.351 104.417 379.426 201.342C282.502 298.266 282.502 455.411 379.427 552.335C476.351 649.259 633.496 649.259 730.42 552.335Z" stroke="#D4E8F2" stroke-miterlimit="10"/>
<path d="M717.61 570.571C814.534 473.647 814.534 316.502 717.61 219.577C620.685 122.653 463.54 122.653 366.616 219.577C269.692 316.502 269.692 473.647 366.616 570.571C463.54 667.495 620.685 667.495 717.61 570.571Z" stroke="#D4E8F2" stroke-width="2" stroke-miterlimit="10"/>
<path d="M704.793 442.92C801.717 345.995 801.717 188.85 704.793 91.926C607.869 -4.99819 450.724 -4.99819 353.8 91.926C256.875 188.85 256.875 345.995 353.8 442.92C450.724 539.844 607.869 539.844 704.793 442.92Z" stroke="#D4E8F2" stroke-miterlimit="10"/>
<path d="M658.076 500.175C736.267 421.984 736.267 295.212 658.076 217.021C579.886 138.83 453.113 138.83 374.923 217.021C296.732 295.212 296.732 421.984 374.923 500.175C453.113 578.366 579.886 578.366 658.076 500.175Z" stroke="#D4E8F2" stroke-miterlimit="10"/>
<path d="M644.55 663.02C772.387 663.02 876.02 559.387 876.02 431.55C876.02 303.713 772.387 200.08 644.55 200.08C516.713 200.08 413.08 303.713 413.08 431.55C413.08 559.387 516.713 663.02 644.55 663.02Z" stroke="#D4E8F2" stroke-miterlimit="10"/>
</g>
<path d="M422.704 399.518C427.25 395.258 427.481 388.12 423.222 383.574C418.962 379.028 411.823 378.796 407.278 383.056C402.732 387.316 402.5 394.454 406.76 399C411.02 403.546 418.158 403.778 422.704 399.518Z" fill="#D4E8F2"/>
<path d="M426.85 412.09C426.85 414.85 429.09 417.08 431.84 417.08C434.59 417.08 436.83 414.84 436.83 412.09C436.83 409.34 434.59 407.1 431.84 407.1C429.09 407.1 426.85 409.34 426.85 412.09Z" fill="#D4E8F2"/>
<path d="M303.621 360.39C307.304 356.708 307.304 350.737 303.621 347.054C299.939 343.372 293.968 343.372 290.285 347.054C286.603 350.737 286.603 356.708 290.285 360.39C293.968 364.073 299.939 364.073 303.621 360.39Z" fill="#D4E8F2"/>
<path d="M384.404 463.885C385.553 458.596 382.197 453.377 376.908 452.227C371.619 451.078 366.4 454.434 365.251 459.723C364.102 465.012 367.457 470.231 372.746 471.38C378.035 472.53 383.255 469.174 384.404 463.885Z" fill="#D4E8F2"/>
<path d="M704.347 456.201C705.252 450.137 701.071 444.488 695.008 443.583C688.945 442.678 683.296 446.86 682.391 452.923C681.486 458.986 685.667 464.635 691.73 465.54C697.793 466.445 703.442 462.264 704.347 456.201Z" fill="#D4E8F2"/>
<path d="M613.231 540.98C617.008 540.98 620.071 537.917 620.071 534.14C620.071 530.362 617.008 527.3 613.231 527.3C609.453 527.3 606.391 530.362 606.391 534.14C606.391 537.917 609.453 540.98 613.231 540.98Z" fill="#D4E8F2"/>
<path d="M493.75 571.31C502.023 571.31 508.73 564.603 508.73 556.33C508.73 548.057 502.023 541.35 493.75 541.35C485.476 541.35 478.77 548.057 478.77 556.33C478.77 564.603 485.476 571.31 493.75 571.31Z" fill="#D4E8F2"/>
<path d="M517.941 621.05C517.941 624.11 515.461 626.58 512.411 626.58C509.361 626.58 506.881 624.1 506.881 621.05C506.881 618 509.361 615.52 512.411 615.52C515.461 615.52 517.941 618 517.941 621.05Z" fill="#D4E8F2"/>
<path d="M637.569 611.69C637.569 614.86 634.999 617.42 631.839 617.42C628.679 617.42 626.109 614.85 626.109 611.69C626.109 608.53 628.679 605.96 631.839 605.96C634.999 605.96 637.569 608.53 637.569 611.69Z" fill="#D4E8F2"/>
<path d="M665.579 615.7C668.644 615.7 671.129 613.215 671.129 610.15C671.129 607.085 668.644 604.6 665.579 604.6C662.514 604.6 660.029 607.085 660.029 610.15C660.029 613.215 662.514 615.7 665.579 615.7Z" fill="#D4E8F2"/>
<path d="M780.373 313.673C784.2 309.846 784.2 303.641 780.373 299.814C776.546 295.986 770.341 295.986 766.514 299.814C762.686 303.641 762.686 309.846 766.514 313.673C770.341 317.5 776.546 317.5 780.373 313.673Z" fill="#D4E8F2"/>
<path d="M663.361 215.55C663.361 219.43 660.211 222.58 656.331 222.58C652.451 222.58 649.301 219.43 649.301 215.55C649.301 211.67 652.451 208.52 656.331 208.52C660.211 208.52 663.361 211.67 663.361 215.55Z" fill="#D4E8F2"/>
<path d="M706.08 212.96C708.836 212.96 711.07 210.726 711.07 207.97C711.07 205.214 708.836 202.98 706.08 202.98C703.324 202.98 701.09 205.214 701.09 207.97C701.09 210.726 703.324 212.96 706.08 212.96Z" fill="#D4E8F2"/>
<path d="M759.91 227.02C759.91 230.49 757.09 233.31 753.62 233.31C750.15 233.31 747.33 230.49 747.33 227.02C747.33 223.55 750.15 220.73 753.62 220.73C757.09 220.73 759.91 223.55 759.91 227.02Z" fill="#D4E8F2"/>
<path d="M771.739 190.21C771.739 193.58 769.009 196.31 765.639 196.31C762.269 196.31 759.539 193.58 759.539 190.21C759.539 186.84 762.269 184.11 765.639 184.11C769.009 184.11 771.739 186.84 771.739 190.21Z" fill="#D4E8F2"/>
<path d="M811.699 263.64C811.699 267.11 808.879 269.93 805.409 269.93C801.939 269.93 799.119 267.11 799.119 263.64C799.119 260.17 801.939 257.35 805.409 257.35C808.879 257.35 811.699 260.17 811.699 263.64Z" fill="#D4E8F2"/>
<path d="M825.519 289.8C827.359 289.8 828.849 288.309 828.849 286.47C828.849 284.631 827.359 283.14 825.519 283.14C823.68 283.14 822.189 284.631 822.189 286.47C822.189 288.309 823.68 289.8 825.519 289.8Z" fill="#D4E8F2"/>
<path d="M734.009 133.8C738.096 133.8 741.409 130.487 741.409 126.4C741.409 122.313 738.096 119 734.009 119C729.922 119 726.609 122.313 726.609 126.4C726.609 130.487 729.922 133.8 734.009 133.8Z" fill="#D4E8F2"/>
<path d="M392.106 178.855C396.152 174.809 396.152 168.25 392.106 164.204C388.06 160.158 381.5 160.158 377.455 164.204C373.409 168.25 373.409 174.809 377.455 178.855C381.5 182.901 388.06 182.901 392.106 178.855Z" fill="#D4E8F2"/>
<path d="M377.41 220.31C377.41 222.66 375.51 224.56 373.16 224.56C370.81 224.56 368.91 222.66 368.91 220.31C368.91 217.96 370.81 216.06 373.16 216.06C375.51 216.06 377.41 217.96 377.41 220.31Z" fill="#D4E8F2"/>
<path d="M329.51 532.94C335.127 532.94 339.68 528.387 339.68 522.77C339.68 517.153 335.127 512.6 329.51 512.6C323.893 512.6 319.34 517.153 319.34 522.77C319.34 528.387 323.893 532.94 329.51 532.94Z" fill="#D4E8F2"/>
<path d="M367.049 566.61C367.049 569.47 364.729 571.79 361.869 571.79C359.009 571.79 356.689 569.47 356.689 566.61C356.689 563.75 359.009 561.43 361.869 561.43C364.729 561.43 367.049 563.75 367.049 566.61Z" fill="#D4E8F2"/>
<path d="M409.961 573.64C409.961 577.32 406.981 580.3 403.301 580.3C399.621 580.3 396.641 577.32 396.641 573.64C396.641 569.96 399.621 566.98 403.301 566.98C406.981 566.98 409.961 569.96 409.961 573.64Z" fill="#D4E8F2"/>
<path d="M546.63 223.53C546.63 227.49 543.42 230.71 539.45 230.71C535.48 230.71 532.27 227.5 532.27 223.53C532.27 219.56 535.48 216.35 539.45 216.35C543.42 216.35 546.63 219.56 546.63 223.53Z" fill="#D4E8F2"/>
<path d="M488.951 281.41C488.951 284.58 486.381 287.15 483.211 287.15C480.041 287.15 477.471 284.58 477.471 281.41C477.471 278.24 480.041 275.67 483.211 275.67C486.381 275.67 488.951 278.24 488.951 281.41Z" fill="#D4E8F2"/>
<path d="M761.12 642.46C767.25 642.46 772.219 637.49 772.219 631.36C772.219 625.229 767.25 620.26 761.12 620.26C754.989 620.26 750.02 625.229 750.02 631.36C750.02 637.49 754.989 642.46 761.12 642.46Z" fill="#D4E8F2"/>
<path d="M835.931 568.64C835.931 571.81 833.361 574.37 830.201 574.37C827.041 574.37 824.471 571.8 824.471 568.64C824.471 565.48 827.041 562.91 830.201 562.91C833.361 562.91 835.931 565.48 835.931 568.64Z" fill="#D4E8F2"/>
</svg>
