<svg width="80" height="80" viewBox="0 0 80 80" fill="none" xmlns="http://www.w3.org/2000/svg">
<rect width="80" height="80" fill="url(#paint0_linear_850_628)"/>
<path d="M17.98 27.972L17.77 28.056C17.77 28.378 17.742 28.77 17.882 29.12C18.12 29.708 18.946 30.352 19.534 30.352C20.052 30.352 20.346 29.96 21.116 29.358C21.9 28.728 23.944 26.922 25.806 26.922C27.402 26.922 28.284 28.168 28.284 29.526C28.284 30.94 27.486 31.934 26.282 32.634C24.84 33.502 23.314 33.81 21.368 34.034L21.41 34.356C23.468 34.51 25.946 34.328 27.458 33.516C28.9 32.774 30.006 31.64 30.006 29.764C30.006 27.902 28.41 26.152 25.848 26.152C23.552 26.152 21.424 27.51 19.772 28.238C19.31 28.448 19.1 28.49 18.904 28.49C18.54 28.49 18.176 28.196 17.98 27.972ZM34.136 25.788L33.954 25.9C34.346 27.062 34.78 27.58 35.788 27.58C37.44 27.58 39.386 26.978 40.212 26.67C40.842 26.432 41.052 26.194 41.052 25.914C41.052 25.34 40.492 25.284 40.002 25.284C39.862 25.284 39.022 25.774 37.986 26.04C37.412 26.194 36.39 26.474 35.746 26.474C35.144 26.474 34.836 26.39 34.136 25.788ZM36.306 24.066L36.32 24.262C36.586 24.36 36.838 24.458 37.02 24.57C37.216 24.71 37.258 24.822 37.258 25.116C37.258 25.914 37.202 27.58 37.146 28.966L38.028 29.288C38.196 27.916 38.448 26.208 38.588 25.466C38.686 25.004 38.882 24.906 38.882 24.57C38.882 24.248 37.972 23.814 37.328 23.814C36.908 23.814 36.642 23.912 36.306 24.066ZM38.476 29.918C38.476 28.882 37.86 28.518 36.866 28.518C35.606 28.518 34.682 29.778 34.682 31.052C34.682 32.046 35.55 32.998 36.628 32.998C37.986 32.998 38.476 31.108 38.476 29.918ZM36.348 31.612C35.844 31.612 35.508 31.136 35.508 30.632C35.508 29.876 35.942 29.148 36.586 29.148C37.034 29.148 37.23 29.484 37.23 30.002C37.23 30.884 36.992 31.612 36.348 31.612ZM37.762 32.06H36.67C36.586 32.606 36.432 33.194 36.432 33.894C36.432 35.224 37.412 35.84 39.932 35.84C42.592 35.84 44.258 35 44.258 33.88C44.258 33.306 43.978 33.138 43.6 32.018C43.362 31.304 43.04 29.456 43.04 28.7C43.04 27.748 43.278 27.398 43.684 27.398C44.216 27.398 45.014 28.196 45.014 28.896C45.014 29.092 44.958 29.19 44.804 29.316C44.594 29.484 44.16 29.708 43.824 29.89L43.894 30.086C45.07 29.932 45.154 30.422 45.77 30.408C46.456 30.38 46.554 29.918 46.554 29.428C46.554 27.93 45.182 26.754 43.95 26.754C43.054 26.754 42.466 27.37 42.466 28.826C42.466 29.834 42.662 31.836 42.662 32.578C42.662 33.46 42.424 33.74 41.962 33.992C41.472 34.244 40.646 34.454 39.554 34.454C38.238 34.454 37.384 34.328 37.384 33.6C37.384 33.194 37.552 32.634 37.762 32.06ZM60.4 25.634C60.638 25.97 60.806 26.166 61.044 26.18C61.338 26.18 61.548 25.97 61.548 25.676C61.562 25.41 61.464 25.158 61.156 24.878C60.736 24.486 60.078 24.22 59.294 23.996L59.154 24.178C59.812 24.738 60.148 25.256 60.4 25.634ZM61.73 24.668C61.996 25.018 62.15 25.242 62.43 25.242C62.724 25.242 62.892 25.06 62.892 24.752C62.892 24.43 62.752 24.164 62.388 23.884C62.01 23.59 61.366 23.366 60.568 23.198L60.442 23.394C61.184 23.954 61.478 24.346 61.73 24.668ZM51.23 25.494C52 25.998 52.42 26.166 53.372 26.166C54.17 26.166 55.57 25.872 56.382 25.62C57.642 25.228 58.104 24.738 58.258 24.738C58.818 24.738 59.42 24.822 59.434 25.326C59.434 25.522 59.322 25.732 59.028 25.928C58.202 26.488 55.696 27.286 53.652 27.286C52.308 27.286 51.664 26.936 51.062 25.606L51.23 25.494ZM52.77 27.636C52.168 28.406 52.378 28.868 53.596 28.868C54.828 28.868 56.2 28.588 57.6 28.098C59.07 27.608 59.42 27.258 59.56 27.258C60.092 27.188 60.736 27.3 60.736 27.846C60.736 28.056 60.652 28.28 60.33 28.49C59.07 29.274 56.256 30.086 53.596 30.086C51.664 30.086 50.838 28.658 52.574 27.496L52.77 27.636ZM55.584 31.178C56.578 31.178 57.572 31.346 58.118 31.458C58.286 31.5 58.3 31.458 58.23 31.332C57.936 30.884 57.32 30.072 56.718 28.91C56.186 27.888 55.5 26.334 55.08 25.2C54.926 24.822 54.814 24.682 54.394 24.584C54.156 24.542 53.778 24.486 53.47 24.458L53.414 24.276C53.848 23.898 54.31 23.646 54.884 23.646C55.668 23.646 56.214 23.8 56.298 24.332C56.354 24.738 56.452 25.536 56.634 26.082C56.97 27.09 57.236 27.734 57.768 28.686C59.014 30.912 60.092 31.276 60.092 31.906C60.092 32.592 59.686 33.222 59.238 33.222C58.79 33.222 58.566 32.9 57.754 32.424C57.25 32.144 56.228 31.78 55.136 31.78C53.722 31.78 52.868 32.382 52.868 33.194C52.868 34.202 54.24 34.44 55.388 34.44C56.648 34.44 56.76 34.272 57.572 34.272C58.174 34.272 58.692 34.468 58.692 35C58.692 35.714 57.264 35.924 55.738 35.924C53.526 35.924 51.776 35.084 51.776 33.544C51.776 32.298 53.064 31.178 55.584 31.178ZM23.076 58.266C24.336 58.266 25.316 57.986 26.198 57.454L26.17 55.032H25.414L24.686 57.79L25.666 57.468V56.964C24.896 57.524 24.224 57.748 23.426 57.748C21.326 57.748 19.758 56.18 19.758 52.834C19.758 49.502 21.326 47.892 23.412 47.892C24.238 47.892 24.854 48.116 25.582 48.62V48.158L24.574 47.822L25.316 50.608H26.072L26.1 48.172C25.19 47.654 24.336 47.374 23.09 47.374C20.066 47.374 17.658 49.292 17.658 52.904C17.658 56.46 19.996 58.266 23.076 58.266ZM34.3497 58.266C36.9537 58.266 39.1797 56.348 39.1797 52.82C39.1797 49.278 36.9397 47.374 34.3497 47.374C31.7737 47.374 29.5197 49.306 29.5197 52.82C29.5197 56.376 31.7737 58.266 34.3497 58.266ZM34.3497 57.748C32.5017 57.748 31.6057 55.62 31.6057 52.82C31.6057 50.034 32.5017 47.892 34.3497 47.892C36.2117 47.892 37.0937 50.034 37.0937 52.82C37.0937 55.62 36.2117 57.748 34.3497 57.748ZM42.3788 58H44.7168V57.342H44.5208L42.3788 57.552V58ZM43.6808 58H45.7528C45.7108 56.39 45.7108 54.766 45.7108 52.974V52.54C45.7108 50.86 45.7108 49.222 45.7528 47.64H43.6808C43.7228 49.25 43.7228 50.86 43.7228 52.54V52.974C43.7228 54.794 43.7228 56.432 43.6808 58ZM44.7168 58H46.5928C50.0368 58 52.1228 56.026 52.1228 52.806C52.1228 49.572 50.1488 47.64 46.8168 47.64H44.7168V48.144H46.6208C48.8048 48.144 50.0648 49.768 50.0648 52.82C50.0648 55.76 48.8048 57.51 46.5368 57.51H44.7168V58ZM42.3788 48.102L44.5208 48.284H44.7168V47.64H42.3788V48.102ZM55.2112 58H57.5492V57.342H57.3532L55.2112 57.552V58ZM56.5132 58H58.5852C58.5432 56.39 58.5432 54.766 58.5432 52.974V52.582C58.5432 50.86 58.5432 49.222 58.5852 47.64H56.5132C56.5552 49.25 56.5552 50.86 56.5552 52.498V53.156C56.5552 54.794 56.5552 56.432 56.5132 58ZM57.5492 58H63.2892L63.3032 55.228H62.5892L61.9032 57.958L62.9112 57.482H57.5492V58ZM57.5492 52.974H60.9932V52.484H57.5492V52.974ZM60.8392 54.388H61.4692V51H60.8392L60.6292 52.54V52.834L60.8392 54.388ZM55.2112 48.102L57.3532 48.284H57.5492V47.64H55.2112V48.102ZM62.2952 50.328H63.0372L63.0232 47.64H57.5492V48.172H62.6172L61.6372 47.668L62.2952 50.328Z" fill="white"/>
<line x1="4.5" y1="5.5" x2="8.5" y2="5.5" stroke="white" stroke-linecap="round"/>
<line x1="10.5" y1="5.5" x2="14.5" y2="5.5" stroke="white" stroke-linecap="round"/>
<line x1="65.5" y1="75.5" x2="69.5" y2="75.5" stroke="white" stroke-linecap="round"/>
<line x1="71.5" y1="75.5" x2="75.5" y2="75.5" stroke="white" stroke-linecap="round"/>
<defs>
<linearGradient id="paint0_linear_850_628" x1="40" y1="0" x2="40" y2="80" gradientUnits="userSpaceOnUse">
<stop offset="0.0989583" stop-color="#0B2B3C" stop-opacity="0.96"/>
<stop offset="0.348958" stop-color="#092533"/>
</linearGradient>
</defs>
</svg>
