<svg width="230" height="185" viewBox="0 0 230 185" fill="none" xmlns="http://www.w3.org/2000/svg">
<path d="M28.6809 167.87C28.6809 171.41 27.1309 174.26 24.0209 176.42C21.7009 178.03 18.1909 179.36 13.5009 180.42C13.3409 180.47 13.1809 180.49 13.0209 180.49C12.4509 180.49 11.9509 180.28 11.5409 179.87C11.1309 179.46 10.9209 178.95 10.9209 178.35C10.9209 177.18 11.5009 176.48 12.6409 176.24C16.1309 175.53 18.7609 174.65 20.5009 173.62C22.8709 172.2 24.0509 170.4 24.0509 168.24C24.0509 166.84 23.5309 165.78 22.4809 165.07C21.4309 164.36 20.0509 164 18.3209 164C16.4809 164 14.0009 164.48 10.8709 165.45C8.27091 166.25 5.73092 167.22 3.25092 168.35C2.95092 168.49 2.65089 168.56 2.35089 168.56C1.75089 168.56 1.25093 168.35 0.830933 167.92C0.420933 167.49 0.210938 166.98 0.210938 166.39C0.210938 165.4 0.660903 164.73 1.5509 164.39C9.1609 161.42 14.9209 159.94 18.8309 159.94C21.9809 159.94 24.4509 160.76 26.2409 162.39C27.8509 163.86 28.6509 165.69 28.6509 167.87H28.6809Z" fill="#052432"/>
<path d="M64.8181 176.9C64.8181 179.89 63.5281 181.86 60.9581 182.8C58.7281 183.63 55.4981 184.04 51.2681 184.04C49.0381 184.04 47.4181 183.76 46.4081 183.21C45.2381 182.57 44.6481 181.48 44.6481 179.93C44.6481 178.96 44.6781 178.27 44.7481 177.86C44.2881 178.46 43.4581 178.76 42.2681 178.76C40.9581 178.76 39.8781 178.35 39.0281 177.52C38.0581 176.6 37.5781 175.34 37.5781 173.73C37.5781 171.73 38.1081 170.09 39.1681 168.81C40.2281 167.53 41.6481 166.9 43.4481 166.9C44.1881 166.9 44.7481 167.13 45.1381 167.59L45.3781 163.73C44.3181 163.89 42.7181 164.13 40.5881 164.45C40.0081 164.54 39.4981 164.4 39.0381 164.02C38.5781 163.64 38.3481 163.15 38.3481 162.55C38.3481 162.07 38.5181 161.64 38.8681 161.27C39.2081 160.9 39.6281 160.7 40.1081 160.65C42.1781 160.44 44.0181 160.16 45.6281 159.79C45.7181 158.23 45.7781 156.87 45.8081 155.72C45.8281 155.14 46.0381 154.66 46.4481 154.27C46.8481 153.88 47.3381 153.68 47.9081 153.68C48.4781 153.68 49.0081 153.9 49.4281 154.35C49.8481 154.8 50.0281 155.32 49.9781 155.92L49.7681 158.61C50.5481 158.36 51.2781 158.09 51.9381 157.82C52.1681 157.73 52.4081 157.68 52.6581 157.68C53.2381 157.68 53.7081 157.88 54.0881 158.27C54.4681 158.66 54.6581 159.13 54.6581 159.68C54.6581 160.6 54.2181 161.22 53.3481 161.54C52.0381 162.02 50.7381 162.44 49.4481 162.78L48.9981 169.23C48.6981 173.6 48.5481 176.47 48.5481 177.85C48.5481 178.86 48.8681 179.48 49.5181 179.71C49.9081 179.87 50.8581 179.95 52.3781 179.95C55.5781 179.95 57.8181 179.6 59.0981 178.92C60.0181 178.44 60.4781 177.45 60.4781 175.95C60.4781 175.54 60.4181 174.92 60.3081 174.09C60.2181 173.45 60.3781 172.88 60.7881 172.4C61.1981 171.92 61.7281 171.68 62.3781 171.68C62.8881 171.68 63.3381 171.85 63.7381 172.18C64.1381 172.52 64.3881 172.92 64.4781 173.41C64.7081 174.63 64.8181 175.79 64.8181 176.89V176.9ZM44.9881 171.87C44.9681 171.48 44.8281 171.1 44.5781 170.73C44.2581 170.25 43.8181 170.01 43.2681 170.01C42.6481 170.01 42.1381 170.3 41.7381 170.89C41.3381 171.47 41.1381 172.22 41.1381 173.11C41.1381 174.61 41.7281 175.35 42.8981 175.35C43.5881 175.35 44.1181 175.03 44.4981 174.38C44.8781 173.73 45.0481 172.9 44.9981 171.86L44.9881 171.87ZM66.7481 166.52C66.7481 167.1 66.5481 167.58 66.1481 167.99C65.7481 168.39 65.2581 168.59 64.6881 168.59C63.9781 168.59 63.3981 168.28 62.9681 167.66C62.2081 166.56 61.3881 165.49 60.5181 164.45C60.1981 164.06 60.0381 163.62 60.0381 163.14C60.0381 162.59 60.2281 162.11 60.6281 161.71C61.0281 161.31 61.4881 161.11 62.0481 161.11C62.6481 161.11 63.1381 161.33 63.5281 161.77C64.7881 163.15 65.7581 164.35 66.4281 165.36C66.6581 165.7 66.7681 166.1 66.7681 166.53L66.7481 166.52Z" fill="#052432"/>
<path d="M100.611 165.38C100.611 165.89 100.441 166.31 100.091 166.66C99.7406 167 99.3306 167.19 98.8506 167.21C97.3506 167.26 95.7906 167.39 94.1606 167.62C95.4006 169.67 96.7406 171.61 98.1606 173.45C98.4806 173.86 98.6406 174.36 98.6406 174.93C98.6406 175.6 98.4006 176.17 97.9306 176.65C97.4606 177.13 96.8906 177.37 96.2206 177.37C95.8306 177.37 95.3606 177.27 94.8106 177.06C94.3506 176.88 93.8906 176.7 93.4306 176.54C91.4506 175.9 89.5606 175.57 87.7406 175.57C84.4506 175.57 82.8106 176.41 82.8106 178.09C82.8106 179.91 85.6706 180.82 91.4006 180.82C91.7206 180.82 92.1506 180.81 92.6806 180.79C93.2306 180.77 93.7006 180.94 94.0806 181.32C94.4606 181.7 94.6506 182.15 94.6506 182.68C94.6506 183.21 94.4706 183.66 94.1206 184.02C93.7606 184.39 93.3306 184.58 92.8306 184.61C92.2606 184.63 91.6406 184.64 90.9706 184.64C82.8106 184.64 78.7306 182.5 78.7306 178.23C78.7306 176.41 79.5306 174.95 81.1406 173.85C82.6806 172.81 84.6706 172.3 87.1006 172.3C89.3806 172.3 91.5806 172.67 93.7206 173.4C92.6406 171.91 91.5106 170.19 90.3406 168.26C87.4706 168.83 85.0206 169.51 83.0006 170.29C82.7706 170.38 82.5406 170.43 82.3106 170.43C81.8006 170.43 81.3606 170.24 80.9806 169.86C80.6006 169.48 80.4106 169.04 80.4106 168.53C80.4106 167.56 80.8706 166.96 81.7906 166.7C84.0406 166.08 86.2906 165.55 88.5206 165.11C88.2006 164.53 87.7206 163.65 87.0706 162.45C84.7506 162.73 82.3506 162.79 79.8606 162.66C79.3806 162.64 78.9706 162.45 78.6406 162.11C78.3106 161.77 78.1406 161.35 78.1406 160.87C78.1406 160.34 78.3306 159.89 78.7306 159.53C79.1206 159.16 79.5806 159 80.1106 159.05C81.8306 159.19 83.6006 159.19 85.4206 159.05C84.9806 158.08 84.6106 157.23 84.2806 156.5C84.1706 156.22 84.1106 155.96 84.1106 155.71C84.1106 155.16 84.3006 154.69 84.7006 154.3C85.0906 153.91 85.5606 153.71 86.1106 153.71C87.0506 153.71 87.6906 154.15 88.0106 155.02C88.4906 156.31 88.9606 157.47 89.4206 158.5C90.8906 158.2 92.1606 157.8 93.2106 157.29C93.4606 157.18 93.7406 157.12 94.0406 157.12C94.5506 157.12 94.9806 157.3 95.3306 157.67C95.6906 158.04 95.8606 158.47 95.8606 158.98C95.8606 159.85 95.4606 160.44 94.6506 160.74C93.4806 161.18 92.2506 161.53 90.9606 161.81C91.3306 162.52 91.7906 163.4 92.3406 164.43C94.8406 163.99 96.9506 163.71 98.6506 163.57C99.1606 163.53 99.6106 163.69 100.011 164.05C100.411 164.42 100.611 164.86 100.611 165.36V165.38ZM101.441 158.97C101.441 159.38 101.301 159.75 101.011 160.06C100.721 160.37 100.361 160.53 99.9306 160.53C99.3806 160.53 98.9406 160.28 98.6206 159.77C98.1106 158.99 97.4506 158.12 96.6206 157.15C96.3906 156.87 96.2806 156.56 96.2806 156.22C96.2806 155.81 96.4206 155.46 96.6906 155.17C96.9606 154.88 97.3106 154.74 97.7206 154.74C98.1606 154.74 98.5106 154.89 98.7906 155.19C99.8206 156.34 100.621 157.29 101.171 158.05C101.351 158.3 101.451 158.61 101.451 158.98L101.441 158.97ZM105.341 156.49C105.341 156.93 105.181 157.29 104.881 157.59C104.571 157.89 104.191 158.04 103.761 158.04C103.231 158.04 102.801 157.81 102.481 157.35C102.041 156.71 101.351 155.88 100.411 154.87C100.161 154.59 100.031 154.24 100.031 153.8C100.031 153.39 100.171 153.03 100.461 152.73C100.751 152.43 101.101 152.28 101.511 152.28C101.921 152.28 102.281 152.43 102.581 152.73C103.311 153.44 104.121 154.39 104.991 155.56C105.221 155.86 105.341 156.17 105.341 156.49Z" fill="#052432"/>
<path d="M125.059 119.75C157.981 119.75 184.669 93.0615 184.669 60.1398C184.669 27.2181 157.981 0.529785 125.059 0.529785C92.1375 0.529785 65.4492 27.2181 65.4492 60.1398C65.4492 93.0615 92.1375 119.75 125.059 119.75Z" fill="#052432"/>
<path d="M125.059 12.0298C151.629 12.0298 173.169 33.5698 173.169 60.1398C173.169 86.7098 151.629 108.25 125.059 108.25" stroke="#548A88" stroke-width="23.43" stroke-miterlimit="10"/>
<path d="M136.039 178.22C136.039 178.63 135.959 178.99 135.789 179.3C134.779 181.2 133.519 182.6 131.999 183.49C130.389 184.45 128.329 184.93 125.829 184.93C122.009 184.93 119.039 183.67 116.949 181.16C114.859 178.65 113.809 175.09 113.809 170.49C113.809 165.89 114.919 162.59 117.129 160C119.339 157.41 122.279 156.12 125.939 156.12C130.439 156.12 133.649 157.89 135.579 161.43C135.749 161.74 135.829 162.12 135.829 162.55C135.829 163.2 135.599 163.75 135.139 164.21C134.679 164.67 134.129 164.9 133.479 164.9C132.519 164.9 131.819 164.47 131.389 163.6C130.259 161.39 128.439 160.28 125.939 160.28C123.819 160.28 122.109 161.08 120.809 162.66C119.369 164.47 118.639 167.08 118.639 170.49C118.639 173.9 119.329 176.57 120.699 178.33C121.949 179.94 123.679 180.75 125.899 180.75C128.519 180.75 130.409 179.56 131.569 177.18C131.979 176.31 132.689 175.88 133.699 175.88C134.349 175.88 134.899 176.11 135.359 176.57C135.819 177.03 136.049 177.58 136.049 178.23L136.039 178.22Z" fill="#052432"/>
<path d="M169.039 170.49C169.039 174.94 167.959 178.47 165.789 181.05C163.619 183.64 160.639 184.93 156.839 184.93C153.039 184.93 150.049 183.64 147.879 181.05C145.709 178.46 144.629 174.94 144.629 170.49C144.629 166.04 145.709 162.53 147.879 159.97C150.049 157.41 153.029 156.12 156.839 156.12C160.649 156.12 163.629 157.4 165.789 159.97C167.959 162.53 169.039 166.04 169.039 170.49ZM164.169 170.49C164.169 167.02 163.469 164.41 162.079 162.66C160.799 161.07 159.059 160.28 156.839 160.28C154.619 160.28 152.879 161.08 151.599 162.66C150.199 164.42 149.509 167.03 149.509 170.49C149.509 173.95 150.209 176.57 151.599 178.33C152.869 179.94 154.619 180.75 156.839 180.75C159.059 180.75 160.799 179.95 162.079 178.33C163.479 176.57 164.169 173.96 164.169 170.49Z" fill="#052432"/>
<path d="M200.521 170.49C200.521 174.82 199.451 178.25 197.321 180.78C195.191 183.31 192.381 184.57 188.891 184.57H182.251C179.851 184.57 178.641 183.37 178.641 180.96V160.05C178.641 157.64 179.841 156.44 182.251 156.44H188.891C192.381 156.44 195.191 157.7 197.321 160.23C199.451 162.76 200.521 166.18 200.521 170.48V170.49ZM195.611 170.49C195.611 167.27 194.851 164.76 193.341 162.98C192.041 161.44 190.431 160.67 188.501 160.67H184.311C183.711 160.67 183.411 160.97 183.411 161.57V179.52C183.411 180.12 183.711 180.42 184.311 180.42H188.501C190.401 180.42 192.011 179.62 193.341 178.04C194.851 176.24 195.611 173.72 195.611 170.49Z" fill="#052432"/>
<path d="M229.772 182.44C229.772 183.04 229.562 183.55 229.142 183.96C228.722 184.37 228.222 184.57 227.642 184.57H213.782C211.382 184.57 210.172 183.37 210.172 180.96V160.05C210.172 157.64 211.372 156.44 213.782 156.44H227.642C228.222 156.44 228.722 156.65 229.142 157.05C229.562 157.46 229.772 157.95 229.772 158.53C229.772 159.11 229.562 159.64 229.142 160.05C228.722 160.46 228.222 160.66 227.642 160.66H215.872C215.272 160.66 214.972 160.96 214.972 161.56V167.73H225.912C226.492 167.73 226.992 167.94 227.412 168.34C227.832 168.75 228.042 169.26 228.042 169.86C228.042 170.46 227.832 170.97 227.412 171.38C226.992 171.79 226.492 171.99 225.912 171.99H214.972V179.39C214.972 179.99 215.272 180.29 215.872 180.29H227.642C228.222 180.29 228.722 180.49 229.142 180.91C229.562 181.32 229.772 181.82 229.772 182.42V182.44Z" fill="#052432"/>
</svg>
